<svg fill="none" height="4415" viewBox="0 0 5107 4415" width="5107" xmlns="http://www.w3.org/2000/svg"><path d="m801 421h3466v575h-3466z" fill="#b3833b"/><path d="m1441.81 621v160h-19.37v-139.688h-.94l-39.06 25.938v-19.688l40-26.562zm97.27 162.187c-10.73 0-20.21-1.901-28.44-5.703-8.18-3.854-14.56-9.14-19.14-15.859-4.58-6.771-6.85-14.479-6.8-23.125-.05-6.771 1.28-13.021 3.99-18.75 2.71-5.781 6.4-10.599 11.09-14.453 4.74-3.906 10.03-6.38 15.86-7.422v-.938c-7.66-1.979-13.75-6.276-18.28-12.89-4.53-6.667-6.77-14.245-6.72-22.735-.05-8.125 2.01-15.39 6.17-21.796 4.17-6.407 9.9-11.459 17.19-15.157 7.34-3.698 15.7-5.547 25.08-5.547 9.27 0 17.55 1.849 24.84 5.547s13.02 8.75 17.19 15.157c4.22 6.406 6.35 13.671 6.41 21.796-.06 8.49-2.37 16.068-6.96 22.735-4.53 6.614-10.54 10.911-18.04 12.89v.938c5.78 1.042 10.99 3.516 15.62 7.422 4.64 3.854 8.33 8.672 11.09 14.453 2.76 5.729 4.17 11.979 4.22 18.75-.05 8.646-2.39 16.354-7.03 23.125-4.58 6.719-10.96 12.005-19.14 15.859-8.12 3.802-17.52 5.703-28.2 5.703zm0-17.187c7.24 0 13.49-1.172 18.75-3.516 5.26-2.343 9.32-5.651 12.19-9.922 2.86-4.27 4.32-9.27 4.37-15-.05-6.041-1.61-11.38-4.69-16.015-3.07-4.636-7.26-8.281-12.57-10.938-5.27-2.656-11.28-3.984-18.05-3.984-6.82 0-12.92 1.328-18.28 3.984-5.32 2.657-9.51 6.302-12.58 10.938-3.02 4.635-4.51 9.974-4.45 16.015-.06 5.73 1.32 10.73 4.14 15 2.86 4.271 6.95 7.579 12.26 9.922 5.31 2.344 11.62 3.516 18.91 3.516zm0-75.938c5.73 0 10.81-1.145 15.23-3.437 4.48-2.292 8-5.495 10.55-9.609 2.55-4.115 3.85-8.933 3.91-14.454-.06-5.416-1.33-10.13-3.83-14.14-2.5-4.063-5.97-7.188-10.39-9.375-4.43-2.24-9.59-3.36-15.47-3.36-5.99 0-11.23 1.12-15.7 3.36-4.48 2.187-7.95 5.312-10.4 9.375-2.44 4.01-3.64 8.724-3.59 14.14-.05 5.521 1.17 10.339 3.67 14.454 2.55 4.114 6.07 7.317 10.55 9.609s9.63 3.437 15.47 3.437zm100.88-69.062v14.062c0 4.271-.78 8.829-2.35 13.672-1.51 4.792-3.75 9.453-6.72 13.985-2.91 4.479-6.45 8.385-10.62 11.719l-10-8.125c3.28-4.688 6.12-9.558 8.52-14.61 2.44-5.104 3.67-10.547 3.67-16.328v-14.375zm40 0v14.062c0 4.271-.78 8.829-2.35 13.672-1.51 4.792-3.75 9.453-6.72 13.985-2.91 4.479-6.45 8.385-10.62 11.719l-10-8.125c3.28-4.688 6.12-9.558 8.52-14.61 2.44-5.104 3.67-10.547 3.67-16.328v-14.375zm41.29 40 28.75 49.062 28.75-49.062h21.25l-38.75 60 38.75 60h-21.25l-28.75-46.563-28.75 46.563h-21.25l38.12-60-38.12-60zm109.74 120 71.56-141.563v-1.25h-82.5v-17.187h102.5v18.125l-71.25 141.875zm137.25-160v14.062c0 4.271-.78 8.829-2.35 13.672-1.51 4.792-3.75 9.453-6.71 13.985-2.92 4.479-6.46 8.385-10.63 11.719l-10-8.125c3.28-4.688 6.12-9.558 8.52-14.61 2.44-5.104 3.67-10.547 3.67-16.328v-14.375zm40 0v14.062c0 4.271-.78 8.829-2.35 13.672-1.51 4.792-3.75 9.453-6.71 13.985-2.92 4.479-6.46 8.385-10.63 11.719l-10-8.125c3.28-4.688 6.12-9.558 8.52-14.61 2.44-5.104 3.67-10.547 3.67-16.328v-14.375z" fill="#000"/><path d="m3145.81 621v160h-19.37v-139.688h-.94l-39.06 25.938v-19.688l40-26.562zm97.27 162.187c-10.73 0-20.21-1.901-28.44-5.703-8.18-3.854-14.56-9.14-19.14-15.859-4.58-6.771-6.85-14.479-6.8-23.125-.05-6.771 1.28-13.021 3.99-18.75 2.71-5.781 6.4-10.599 11.09-14.453 4.74-3.906 10.03-6.38 15.86-7.422v-.938c-7.66-1.979-13.75-6.276-18.28-12.89-4.53-6.667-6.77-14.245-6.72-22.735-.05-8.125 2.01-15.39 6.17-21.796 4.17-6.407 9.9-11.459 17.19-15.157 7.34-3.698 15.7-5.547 25.08-5.547 9.27 0 17.55 1.849 24.84 5.547s13.02 8.75 17.19 15.157c4.22 6.406 6.35 13.671 6.41 21.796-.06 8.49-2.37 16.068-6.96 22.735-4.53 6.614-10.54 10.911-18.04 12.89v.938c5.78 1.042 10.99 3.516 15.62 7.422 4.64 3.854 8.33 8.672 11.09 14.453 2.76 5.729 4.17 11.979 4.22 18.75-.05 8.646-2.39 16.354-7.03 23.125-4.58 6.719-10.96 12.005-19.14 15.859-8.12 3.802-17.52 5.703-28.2 5.703zm0-17.187c7.24 0 13.49-1.172 18.75-3.516 5.26-2.343 9.32-5.651 12.19-9.922 2.86-4.27 4.32-9.27 4.37-15-.05-6.041-1.61-11.38-4.69-16.015-3.07-4.636-7.26-8.281-12.57-10.938-5.27-2.656-11.28-3.984-18.05-3.984-6.82 0-12.92 1.328-18.28 3.984-5.32 2.657-9.51 6.302-12.58 10.938-3.02 4.635-4.51 9.974-4.45 16.015-.06 5.73 1.32 10.73 4.14 15 2.86 4.271 6.95 7.579 12.26 9.922 5.31 2.344 11.62 3.516 18.91 3.516zm0-75.938c5.73 0 10.81-1.145 15.23-3.437 4.48-2.292 8-5.495 10.55-9.609 2.55-4.115 3.85-8.933 3.91-14.454-.06-5.416-1.33-10.13-3.83-14.14-2.5-4.063-5.97-7.188-10.39-9.375-4.43-2.24-9.59-3.36-15.47-3.36-5.99 0-11.23 1.12-15.7 3.36-4.48 2.187-7.95 5.312-10.4 9.375-2.44 4.01-3.64 8.724-3.59 14.14-.05 5.521 1.17 10.339 3.67 14.454 2.55 4.114 6.07 7.317 10.55 9.609s9.63 3.437 15.47 3.437zm100.88-69.062v14.062c0 4.271-.78 8.829-2.35 13.672-1.51 4.792-3.75 9.453-6.72 13.985-2.91 4.479-6.45 8.385-10.62 11.719l-10-8.125c3.28-4.688 6.12-9.558 8.52-14.61 2.44-5.104 3.67-10.547 3.67-16.328v-14.375zm40 0v14.062c0 4.271-.78 8.829-2.35 13.672-1.51 4.792-3.75 9.453-6.72 13.985-2.91 4.479-6.45 8.385-10.62 11.719l-10-8.125c3.28-4.688 6.12-9.558 8.52-14.61 2.44-5.104 3.67-10.547 3.67-16.328v-14.375zm41.29 40 28.75 49.062 28.75-49.062h21.25l-38.75 60 38.75 60h-21.25l-28.75-46.563-28.75 46.563h-21.25l38.12-60-38.12-60zm109.74 120 71.56-141.563v-1.25h-82.5v-17.187h102.5v18.125l-71.25 141.875zm137.25-160v14.062c0 4.271-.78 8.829-2.35 13.672-1.51 4.792-3.75 9.453-6.71 13.985-2.92 4.479-6.46 8.385-10.63 11.719l-10-8.125c3.28-4.688 6.12-9.558 8.52-14.61 2.44-5.104 3.67-10.547 3.67-16.328v-14.375zm40 0v14.062c0 4.271-.78 8.829-2.35 13.672-1.51 4.792-3.75 9.453-6.71 13.985-2.92 4.479-6.46 8.385-10.63 11.719l-10-8.125c3.28-4.688 6.12-9.558 8.52-14.61 2.44-5.104 3.67-10.547 3.67-16.328v-14.375z" fill="#000"/><path d="m2544 1040v-658" stroke="#000" stroke-width="18"/><path d="m892.825 186.091v130.909h-15.852v-114.29h-.767l-31.961 21.222v-16.108l32.728-21.733zm65.406 131.932c-3.153 0-5.859-1.13-8.117-3.388-2.259-2.259-3.388-4.965-3.388-8.118s1.129-5.859 3.388-8.118c2.258-2.258 4.964-3.388 8.117-3.388 3.154 0 5.86 1.13 8.118 3.388 2.259 2.259 3.388 4.965 3.388 8.118 0 2.088-.533 4.006-1.598 5.753-1.023 1.747-2.408 3.153-4.155 4.219-1.704 1.022-3.622 1.534-5.753 1.534zm205.959-91.023h-15.85c-.94-4.56-2.58-8.565-4.92-12.017-2.3-3.452-5.11-6.349-8.44-8.693-3.28-2.387-6.92-4.176-10.93-5.37-4-1.193-8.18-1.789-12.53-1.789-7.92 0-15.1 2.003-21.54 6.008-6.39 4.006-11.48 9.908-15.28 17.706-3.75 7.798-5.62 17.365-5.62 28.7 0 11.336 1.87 20.902 5.62 28.701 3.8 7.798 8.89 13.7 15.28 17.706 6.44 4.005 13.62 6.008 21.54 6.008 4.35 0 8.53-.596 12.53-1.79 4.01-1.193 7.65-2.961 10.93-5.305 3.33-2.386 6.14-5.305 8.44-8.757 2.34-3.494 3.98-7.5 4.92-12.017h15.85c-1.19 6.69-3.36 12.677-6.52 17.962-3.15 5.284-7.07 9.779-11.76 13.487-4.69 3.665-9.95 6.456-15.79 8.373-5.79 1.918-11.99 2.877-18.6 2.877-11.16 0-21.09-2.728-29.78-8.182-8.7-5.455-15.54-13.21-20.52-23.267-4.99-10.057-7.48-21.989-7.48-35.796 0-13.806 2.49-25.738 7.48-35.795 4.98-10.057 11.82-17.812 20.52-23.267 8.69-5.455 18.62-8.182 29.78-8.182 6.61 0 12.81.959 18.6 2.877 5.84 1.917 11.1 4.73 15.79 8.437 4.69 3.665 8.61 8.139 11.76 13.423 3.16 5.242 5.33 11.229 6.52 17.962zm85.45 49.858v-58.04h15.08v98.182h-15.08v-16.619h-1.02c-2.31 4.985-5.88 9.226-10.74 12.72-4.86 3.452-11 5.177-18.41 5.177-6.14 0-11.59-1.342-16.37-4.027-4.77-2.727-8.52-6.818-11.25-12.272-2.72-5.497-4.09-12.422-4.09-20.774v-62.387h15.09v61.364c0 7.159 2 12.869 6.01 17.13 4.05 4.262 9.2 6.393 15.47 6.393 3.75 0 7.56-.959 11.44-2.877 3.92-1.917 7.2-4.858 9.84-8.821 2.69-3.963 4.03-9.013 4.03-15.149zm85.41-58.04v12.784h-50.88v-12.784zm-36.05-23.523h15.09v93.58c0 4.261.61 7.457 1.85 9.588 1.28 2.088 2.9 3.494 4.86 4.219 2 .682 4.11 1.023 6.33 1.023 1.66 0 3.02-.086 4.09-.256 1.06-.213 1.91-.384 2.55-.511l3.07 13.551c-1.02.383-2.45.767-4.28 1.15-1.83.426-4.16.639-6.97.639-4.26 0-8.44-.916-12.53-2.748-4.04-1.833-7.41-4.624-10.1-8.374-2.64-3.75-3.96-8.48-3.96-14.19zm109.37 121.705v-98.182h15.08v98.182zm7.67-114.545c-2.94 0-5.48-1.002-7.61-3.005-2.08-2.003-3.13-4.41-3.13-7.223 0-2.812 1.05-5.22 3.13-7.223 2.13-2.003 4.67-3.004 7.61-3.004s5.45 1.001 7.54 3.004c2.13 2.003 3.2 4.411 3.2 7.223 0 2.813-1.07 5.22-3.2 7.223-2.09 2.003-4.6 3.005-7.54 3.005zm50.13 55.483v59.062h-15.09v-98.182h14.58v15.341h1.28c2.3-4.986 5.79-8.991 10.48-12.017 4.69-3.068 10.74-4.602 18.15-4.602 6.65 0 12.47 1.363 17.45 4.091 4.99 2.684 8.87 6.775 11.64 12.272 2.77 5.455 4.15 12.358 4.15 20.711v62.386h-15.08v-61.364c0-7.713-2.01-13.721-6.01-18.025-4.01-4.347-9.51-6.52-16.49-6.52-4.82 0-9.12 1.044-12.92 3.132-3.75 2.088-6.71 5.135-8.88 9.141-2.17 4.005-3.26 8.863-3.26 14.574zm155.92 0v59.062h-15.09v-130.909h15.09v48.068h1.28c2.3-5.071 5.75-9.098 10.35-12.081 4.65-3.025 10.82-4.538 18.54-4.538 6.69 0 12.55 1.342 17.58 4.027 5.02 2.642 8.92 6.711 11.69 12.209 2.82 5.454 4.22 12.4 4.22 20.838v62.386h-15.08v-61.364c0-7.798-2.03-13.828-6.08-18.089-4-4.304-9.56-6.456-16.68-6.456-4.94 0-9.37 1.044-13.29 3.132-3.88 2.088-6.95 5.135-9.21 9.141-2.21 4.005-3.32 8.863-3.32 14.574zm120.15 61.363c-6.22 0-11.87-1.172-16.94-3.515-5.07-2.387-9.1-5.817-12.08-10.292-2.98-4.517-4.47-9.971-4.47-16.363 0-5.625 1.11-10.185 3.32-13.679 2.22-3.537 5.18-6.307 8.89-8.31 3.7-2.003 7.79-3.494 12.27-4.474 4.52-1.023 9.05-1.833 13.61-2.429 5.97-.767 10.81-1.343 14.51-1.726 3.75-.426 6.48-1.129 8.19-2.11 1.74-.98 2.62-2.684 2.62-5.113v-.512c0-6.306-1.73-11.207-5.18-14.701-3.41-3.495-8.59-5.242-15.53-5.242-7.21 0-12.85 1.577-16.94 4.73-4.09 3.154-6.97 6.52-8.63 10.1l-14.32-5.114c2.56-5.966 5.97-10.611 10.23-13.935 4.3-3.366 8.99-5.71 14.06-7.031 5.11-1.363 10.14-2.045 15.09-2.045 3.15 0 6.77.383 10.86 1.15 4.14.725 8.12 2.238 11.95 4.539 3.88 2.301 7.1 5.774 9.66 10.419 2.55 4.645 3.83 10.866 3.83 18.664v64.688h-15.08v-13.295h-.77c-1.02 2.13-2.73 4.41-5.11 6.839-2.39 2.429-5.57 4.496-9.53 6.2-3.96 1.705-8.8 2.557-14.51 2.557zm2.3-13.551c5.97 0 11-1.172 15.09-3.516 4.13-2.343 7.24-5.369 9.33-9.076 2.13-3.708 3.2-7.607 3.2-11.698v-13.807c-.64.767-2.05 1.471-4.22 2.11-2.13.596-4.6 1.129-7.42 1.598-2.77.426-5.47.809-8.11 1.15-2.6.299-4.71.554-6.33.767-3.92.512-7.59 1.343-11 2.493-3.36 1.108-6.09 2.791-8.18 5.05-2.04 2.216-3.07 5.241-3.07 9.077 0 5.241 1.94 9.204 5.82 11.889 3.92 2.642 8.88 3.963 14.89 3.963zm85.32-119.659v130.909h-15.08v-130.909zm71.35 32.727v12.784h-52.92v-12.784zm-37.07 98.182v-111.733c0-5.625 1.32-10.312 3.96-14.062s6.07-6.563 10.29-8.438 8.67-2.812 13.36-2.812c3.71 0 6.73.298 9.08.894 2.34.597 4.09 1.151 5.24 1.662l-4.35 13.04c-.76-.256-1.83-.575-3.19-.959-1.32-.383-3.07-.575-5.24-.575-4.99 0-8.59 1.257-10.81 3.771-2.17 2.515-3.26 6.201-3.26 11.059v108.153zm123.92-130.909v130.909h-15.08v-130.909zm68.8 132.954c-9.46 0-17.62-2.088-24.48-6.264-6.82-4.219-12.08-10.099-15.79-17.642-3.67-7.585-5.5-16.406-5.5-26.463s1.83-18.92 5.5-26.591c3.71-7.713 8.86-13.721 15.47-18.025 6.64-4.347 14.4-6.52 23.26-6.52 5.12 0 10.17.852 15.15 2.557 4.99 1.704 9.53 4.474 13.62 8.309 4.09 3.793 7.35 8.821 9.78 15.085 2.43 6.265 3.64 13.978 3.64 23.14v6.392h-75.68v-13.04h60.34c0-5.54-1.11-10.483-3.32-14.83-2.18-4.346-5.29-7.777-9.34-10.291-4-2.514-8.73-3.771-14.19-3.771-6 0-11.2 1.491-15.59 4.474-4.35 2.941-7.69 6.776-10.04 11.506-2.34 4.73-3.51 9.801-3.51 15.213v8.693c0 7.415 1.27 13.701 3.83 18.857 2.6 5.113 6.2 9.013 10.8 11.697 4.61 2.642 9.95 3.963 16.05 3.963 3.96 0 7.54-.554 10.74-1.662 3.24-1.15 6.03-2.855 8.37-5.113 2.34-2.301 4.16-5.157 5.43-8.566l14.58 4.091c-1.54 4.944-4.11 9.29-7.74 13.04-3.62 3.707-8.09 6.605-13.42 8.693-5.33 2.046-11.31 3.068-17.96 3.068zm78.68-61.107v59.062h-15.08v-98.182h14.57v15.341h1.28c2.3-4.986 5.8-8.991 10.48-12.017 4.69-3.068 10.74-4.602 18.16-4.602 6.65 0 12.46 1.363 17.45 4.091 4.98 2.684 8.86 6.775 11.63 12.272 2.77 5.455 4.16 12.358 4.16 20.711v62.386h-15.09v-61.364c0-7.713-2-13.721-6.01-18.025-4-4.347-9.5-6.52-16.49-6.52-4.81 0-9.12 1.044-12.91 3.132-3.75 2.088-6.71 5.135-8.89 9.141-2.17 4.005-3.26 8.863-3.26 14.574zm129.84 97.926c-7.28 0-13.55-.938-18.79-2.813-5.24-1.832-9.61-4.261-13.1-7.287-3.46-2.983-6.2-6.179-8.25-9.588l12.02-8.437c1.36 1.789 3.09 3.835 5.18 6.136 2.08 2.344 4.94 4.368 8.56 6.072 3.67 1.748 8.46 2.621 14.38 2.621 7.93 0 14.47-1.917 19.63-5.753 5.15-3.835 7.73-9.843 7.73-18.025v-19.943h-1.28c-1.11 1.789-2.68 4.005-4.73 6.647-2 2.6-4.9 4.922-8.69 6.968-3.75 2.002-8.82 3.004-15.21 3.004-7.93 0-15.05-1.875-21.35-5.625-6.27-3.75-11.23-9.205-14.9-16.364-3.62-7.159-5.43-15.852-5.43-26.079 0-10.057 1.77-18.814 5.31-26.272 3.53-7.5 8.45-13.295 14.76-17.386 6.31-4.133 13.59-6.2 21.86-6.2 6.39 0 11.46 1.065 15.21 3.196 3.8 2.088 6.7 4.474 8.7 7.159 2.04 2.642 3.62 4.815 4.73 6.52h1.53v-15.597h14.58v100.994c0 8.438-1.92 15.299-5.76 20.583-3.79 5.327-8.9 9.226-15.34 11.697-6.39 2.515-13.51 3.772-21.35 3.772zm-.51-53.949c6.05 0 11.17-1.385 15.34-4.155 4.18-2.77 7.35-6.754 9.53-11.953 2.17-5.199 3.26-11.421 3.26-18.665 0-7.074-1.07-13.317-3.2-18.729s-5.28-9.652-9.46-12.72-9.33-4.602-15.47-4.602c-6.39 0-11.72 1.619-15.98 4.858-4.22 3.238-7.39 7.585-9.52 13.04-2.09 5.454-3.13 11.505-3.13 18.153 0 6.818 1.06 12.848 3.19 18.09 2.17 5.198 5.37 9.289 9.59 12.272 4.26 2.941 9.54 4.411 15.85 4.411zm113.27-83.097v12.784h-50.88v-12.784zm-36.05-23.523h15.08v93.58c0 4.261.62 7.457 1.86 9.588 1.27 2.088 2.89 3.494 4.85 4.219 2.01.682 4.12 1.023 6.33 1.023 1.66 0 3.03-.086 4.09-.256 1.07-.213 1.92-.384 2.56-.511l3.07 13.551c-1.02.383-2.45.767-4.28 1.15-1.84.426-4.16.639-6.97.639-4.26 0-8.44-.916-12.53-2.748-4.05-1.833-7.41-4.624-10.1-8.374-2.64-3.75-3.96-8.48-3.96-14.19zm75.93 62.643v59.062h-15.08v-130.909h15.08v48.068h1.28c2.3-5.071 5.76-9.098 10.36-12.081 4.64-3.025 10.82-4.538 18.54-4.538 6.69 0 12.55 1.342 17.57 4.027 5.03 2.642 8.93 6.711 11.7 12.209 2.81 5.454 4.22 12.4 4.22 20.838v62.386h-15.09v-61.364c0-7.798-2.02-13.828-6.07-18.089-4-4.304-9.56-6.456-16.68-6.456-4.94 0-9.38 1.044-13.3 3.132-3.87 2.088-6.94 5.135-9.2 9.141-2.22 4.005-3.33 8.863-3.33 14.574zm113.51 59.062-29.91-98.182h15.85l21.22 75.171h1.02l20.97-75.171h16.11l20.71 74.915h1.02l21.22-74.915h15.85l-29.91 98.182h-14.83l-21.48-75.426h-1.53l-21.48 75.426zm124.01 0v-98.182h15.08v98.182zm7.67-114.545c-2.94 0-5.48-1.002-7.61-3.005-2.09-2.003-3.13-4.41-3.13-7.223 0-2.812 1.04-5.22 3.13-7.223 2.13-2.003 4.67-3.004 7.61-3.004s5.45 1.001 7.54 3.004c2.13 2.003 3.2 4.411 3.2 7.223 0 2.813-1.07 5.22-3.2 7.223-2.09 2.003-4.6 3.005-7.54 3.005zm104.59 38.352-13.55 3.835c-.86-2.258-2.11-4.453-3.77-6.584-1.62-2.173-3.84-3.963-6.65-5.369-2.82-1.406-6.42-2.109-10.81-2.109-6 0-11.01 1.384-15.02 4.154-3.96 2.728-5.94 6.201-5.94 10.419 0 3.75 1.36 6.712 4.09 8.885 2.73 2.174 6.99 3.985 12.78 5.434l14.58 3.579c8.78 2.131 15.32 5.391 19.62 9.78 4.31 4.347 6.46 9.95 6.46 16.811 0 5.625-1.62 10.653-4.86 15.085-3.2 4.432-7.67 7.926-13.42 10.483-5.76 2.557-12.45 3.835-20.07 3.835-10.02 0-18.31-2.173-24.87-6.519-6.56-4.347-10.72-10.696-12.46-19.049l14.31-3.579c1.37 5.284 3.95 9.247 7.74 11.889 3.83 2.642 8.84 3.963 15.02 3.963 7.03 0 12.61-1.491 16.75-4.474 4.17-3.026 6.26-6.648 6.26-10.867 0-3.409-1.19-6.264-3.58-8.565-2.39-2.344-6.05-4.091-10.99-5.242l-16.37-3.835c-8.99-2.131-15.59-5.433-19.81-9.908-4.18-4.517-6.27-10.163-6.27-16.939 0-5.539 1.56-10.44 4.67-14.701 3.15-4.262 7.44-7.607 12.85-10.036 5.45-2.429 11.63-3.643 18.53-3.643 9.72 0 17.35 2.13 22.89 6.392 5.58 4.261 9.54 9.886 11.89 16.875zm65.66 78.238c-9.46 0-17.62-2.088-24.48-6.264-6.82-4.219-12.08-10.099-15.79-17.642-3.66-7.585-5.5-16.406-5.5-26.463s1.84-18.92 5.5-26.591c3.71-7.713 8.86-13.721 15.47-18.025 6.65-4.347 14.4-6.52 23.27-6.52 5.11 0 10.16.852 15.14 2.557 4.99 1.704 9.53 4.474 13.62 8.309 4.09 3.793 7.35 8.821 9.78 15.085 2.43 6.265 3.64 13.978 3.64 23.14v6.392h-75.68v-13.04h60.34c0-5.54-1.11-10.483-3.32-14.83-2.17-4.346-5.29-7.777-9.33-10.291-4.01-2.514-8.74-3.771-14.19-3.771-6.01 0-11.21 1.491-15.6 4.474-4.35 2.941-7.69 6.776-10.04 11.506-2.34 4.73-3.51 9.801-3.51 15.213v8.693c0 7.415 1.28 13.701 3.83 18.857 2.6 5.113 6.2 9.013 10.81 11.697 4.6 2.642 9.95 3.963 16.04 3.963 3.96 0 7.54-.554 10.74-1.662 3.24-1.15 6.03-2.855 8.37-5.113 2.35-2.301 4.16-5.157 5.44-8.566l14.57 4.091c-1.53 4.944-4.11 9.29-7.74 13.04-3.62 3.707-8.09 6.605-13.42 8.693-5.33 2.046-11.31 3.068-17.96 3.068z" fill="#000"/><path d="m369 1521h1733v1150h-1733z" fill="#b3833b"/><path d="m2401 1521h175v1150h-175z" fill="#b3833b"/><path d="m2640 1521h175v1150h-175z" fill="#b3833b"/><path d="m2879 1521h175v1150h-175z" fill="#b3833b"/><path d="m3118 1521h175v1150h-175z" fill="#b3833b"/><path d="m3356 1521h175v1150h-175z" fill="#b3833b"/><path d="m3595 1521h175v1150h-175z" fill="#b3833b"/><path d="m3834 1521h175v1150h-175z" fill="#b3833b"/><path d="m4073 1521h175v1150h-175z" fill="#b3833b"/><path d="m4311 1521h175v1150h-175z" fill="#b3833b"/><path d="m4551 1521h175v1150h-175z" fill="#b3833b"/><path d="m1147.81 1638v160h-19.37v-139.69h-.94l-39.06 25.94v-19.69l40-26.56zm97.27 162.19c-10.73 0-20.21-1.9-28.44-5.71-8.18-3.85-14.56-9.14-19.14-15.86-4.58-6.77-6.85-14.47-6.8-23.12-.05-6.77 1.28-13.02 3.99-18.75 2.71-5.78 6.4-10.6 11.09-14.45 4.74-3.91 10.03-6.38 15.86-7.42v-.94c-7.66-1.98-13.75-6.28-18.28-12.89-4.53-6.67-6.77-14.25-6.72-22.74-.05-8.12 2.01-15.39 6.17-21.79 4.17-6.41 9.9-11.46 17.19-15.16 7.34-3.7 15.7-5.55 25.08-5.55 9.27 0 17.55 1.85 24.84 5.55s13.02 8.75 17.19 15.16c4.22 6.4 6.35 13.67 6.41 21.79-.06 8.49-2.37 16.07-6.96 22.74-4.53 6.61-10.54 10.91-18.04 12.89v.94c5.78 1.04 10.99 3.51 15.62 7.42 4.64 3.85 8.33 8.67 11.09 14.45 2.76 5.73 4.17 11.98 4.22 18.75-.05 8.65-2.39 16.35-7.03 23.12-4.58 6.72-10.96 12.01-19.14 15.86-8.12 3.81-17.52 5.71-28.2 5.71zm0-17.19c7.24 0 13.49-1.17 18.75-3.52 5.26-2.34 9.32-5.65 12.19-9.92 2.86-4.27 4.32-9.27 4.37-15-.05-6.04-1.61-11.38-4.69-16.01-3.07-4.64-7.26-8.28-12.57-10.94-5.27-2.66-11.28-3.99-18.05-3.99-6.82 0-12.92 1.33-18.28 3.99-5.32 2.66-9.51 6.3-12.58 10.94-3.02 4.63-4.51 9.97-4.45 16.01-.06 5.73 1.32 10.73 4.14 15 2.86 4.27 6.95 7.58 12.26 9.92 5.31 2.35 11.62 3.52 18.91 3.52zm0-75.94c5.73 0 10.81-1.14 15.23-3.44 4.48-2.29 8-5.49 10.55-9.6 2.55-4.12 3.85-8.94 3.91-14.46-.06-5.41-1.33-10.13-3.83-14.14-2.5-4.06-5.97-7.19-10.39-9.37-4.43-2.24-9.59-3.36-15.47-3.36-5.99 0-11.23 1.12-15.7 3.36-4.48 2.18-7.95 5.31-10.4 9.37-2.44 4.01-3.64 8.73-3.59 14.14-.05 5.52 1.17 10.34 3.67 14.46 2.55 4.11 6.07 7.31 10.55 9.6 4.48 2.3 9.63 3.44 15.47 3.44zm100.88-69.06v14.06c0 4.27-.78 8.83-2.35 13.67-1.51 4.8-3.75 9.46-6.72 13.99-2.91 4.48-6.45 8.38-10.62 11.72l-10-8.13c3.28-4.69 6.12-9.55 8.52-14.61 2.44-5.1 3.67-10.54 3.67-16.32v-14.38zm40 0v14.06c0 4.27-.78 8.83-2.35 13.67-1.51 4.8-3.75 9.46-6.72 13.99-2.91 4.48-6.45 8.38-10.62 11.72l-10-8.13c3.28-4.69 6.12-9.55 8.52-14.61 2.44-5.1 3.67-10.54 3.67-16.32v-14.38z" fill="#000"/><path d="m493.812 2282v160h-19.374v-139.69h-.938l-39.062 25.94v-19.69l40-26.56zm42.266 127.19v-15.94l70.313-111.25h11.562v24.69h-7.812l-53.125 84.06v1.25h94.687v17.19zm75.313 32.81v-37.66-7.42-114.92h18.437v160zm86.152-160v14.06c0 4.27-.781 8.83-2.344 13.67-1.51 4.8-3.75 9.46-6.719 13.99-2.916 4.48-6.458 8.38-10.625 11.72l-10-8.13c3.282-4.69 6.12-9.55 8.516-14.61 2.448-5.1 3.672-10.54 3.672-16.32v-14.38zm40 0v14.06c0 4.27-.781 8.83-2.344 13.67-1.51 4.8-3.75 9.46-6.719 13.99-2.916 4.48-6.458 8.38-10.625 11.72l-10-8.13c3.282-4.69 6.12-9.55 8.516-14.61 2.448-5.1 3.672-10.54 3.672-16.32v-14.38z" fill="#000"/><path d="m369 2088.5h1733" stroke="#000" stroke-width="15"/><path d="m2401 2088.5h175" stroke="#000" stroke-width="15"/><path d="m2640 2088.5h175" stroke="#000" stroke-width="15"/><path d="m2879 2088.5h175" stroke="#000" stroke-width="15"/><path d="m3118 2088.5h175" stroke="#000" stroke-width="15"/><path d="m3356 2088.5h175" stroke="#000" stroke-width="15"/><path d="m3595 2088.5h175" stroke="#000" stroke-width="15"/><path d="m3834 2088.5h175" stroke="#000" stroke-width="15"/><path d="m4073 2088.5h175" stroke="#000" stroke-width="15"/><path d="m4312 2088.5h175" stroke="#000" stroke-width="15"/><path d="m4551 2088.5h175" stroke="#000" stroke-width="15"/><path d="m423.274 1446v-11.51l43.21-47.3c5.071-5.54 9.247-10.35 12.528-14.44 3.282-4.14 5.711-8.01 7.287-11.64 1.62-3.66 2.429-7.5 2.429-11.5 0-4.6-1.108-8.59-3.324-11.96-2.173-3.36-5.156-5.96-8.948-7.79-3.793-1.84-8.054-2.75-12.785-2.75-5.028 0-9.417 1.04-13.167 3.13-3.708 2.05-6.584 4.92-8.629 8.63-2.003 3.71-3.005 8.05-3.005 13.04h-15.085c0-7.67 1.769-14.4 5.305-20.2 3.537-5.8 8.353-10.31 14.446-13.55 6.137-3.24 13.019-4.86 20.647-4.86 7.67 0 14.467 1.62 20.39 4.86 5.924 3.24 10.569 7.61 13.935 13.1 3.367 5.5 5.05 11.62 5.05 18.35 0 4.81-.874 9.52-2.621 14.12-1.705 4.56-4.687 9.66-8.949 15.28-4.219 5.58-10.078 12.4-17.578 20.46l-29.403 31.44v1.03h60.852v14.06zm123.957 1.02c-3.153 0-5.859-1.13-8.117-3.39-2.259-2.25-3.388-4.96-3.388-8.11 0-3.16 1.129-5.86 3.388-8.12 2.258-2.26 4.964-3.39 8.117-3.39 3.154 0 5.86 1.13 8.118 3.39 2.259 2.26 3.388 4.96 3.388 8.12 0 2.09-.533 4-1.598 5.75-1.023 1.75-2.408 3.15-4.155 4.22-1.704 1.02-3.622 1.53-5.753 1.53zm190.11-91.02c-1.406-4.3-3.26-8.16-5.561-11.57-2.259-3.45-4.965-6.39-8.118-8.82-3.111-2.43-6.648-4.28-10.611-5.56s-8.31-1.92-13.04-1.92c-7.755 0-14.808 2-21.157 6.01-6.35 4-11.399 9.91-15.149 17.71-3.75 7.79-5.625 17.36-5.625 28.7 0 11.33 1.896 20.9 5.688 28.7 3.793 7.79 8.928 13.7 15.405 17.7 6.478 4.01 13.765 6.01 21.861 6.01 7.5 0 14.105-1.6 19.815-4.79 5.753-3.24 10.228-7.8 13.424-13.68 3.238-5.93 4.858-12.89 4.858-20.9l4.858 1.02h-39.375v-14.06h49.858v14.06c0 10.78-2.302 20.15-6.904 28.12-4.559 7.97-10.866 14.15-18.92 18.54-8.012 4.35-17.216 6.52-27.614 6.52-11.591 0-21.775-2.73-30.554-8.18-8.736-5.46-15.554-13.21-20.454-23.27-4.858-10.06-7.287-21.99-7.287-35.79 0-10.36 1.385-19.67 4.154-27.94 2.813-8.31 6.776-15.38 11.89-21.22 5.113-5.84 11.164-10.31 18.153-13.42s14.68-4.67 23.075-4.67c6.904 0 13.338 1.05 19.304 3.13 6.009 2.05 11.357 4.97 16.044 8.76 4.73 3.75 8.672 8.25 11.826 13.49 3.153 5.2 5.326 10.97 6.52 17.32zm57.321-40.91v130.91h-15.086v-130.91zm89.504 90.77v-58.04h15.085v98.18h-15.085v-16.62h-1.023c-2.301 4.99-5.88 9.23-10.738 12.72-4.858 3.45-10.994 5.18-18.409 5.18-6.137 0-11.591-1.34-16.364-4.03-4.773-2.73-8.523-6.82-11.25-12.27-2.727-5.5-4.091-12.42-4.091-20.78v-62.38h15.085v61.36c0 7.16 2.003 12.87 6.009 17.13 4.048 4.26 9.204 6.39 15.469 6.39 3.75 0 7.564-.95 11.441-2.87 3.921-1.92 7.202-4.86 9.844-8.82 2.685-3.97 4.027-9.02 4.027-15.15zm83.88 42.19c-9.46 0-17.621-2.09-24.482-6.27-6.818-4.22-12.081-10.1-15.788-17.64-3.665-7.59-5.497-16.41-5.497-26.46 0-10.06 1.832-18.92 5.497-26.59 3.707-7.72 8.864-13.73 15.469-18.03 6.647-4.35 14.403-6.52 23.267-6.52 5.113 0 10.163.85 15.149 2.56 4.986 1.7 9.524 4.47 13.615 8.31 4.091 3.79 7.354 8.82 9.784 15.08 2.42 6.27 3.64 13.98 3.64 23.14v6.39h-75.683v-13.04h60.341c0-5.54-1.108-10.48-3.324-14.83-2.173-4.34-5.284-7.77-9.332-10.29-4.006-2.51-8.736-3.77-14.19-3.77-6.009 0-11.208 1.49-15.597 4.48-4.346 2.94-7.692 6.77-10.035 11.5-2.344 4.73-3.516 9.8-3.516 15.21v8.7c0 7.41 1.278 13.7 3.835 18.85 2.6 5.12 6.201 9.02 10.803 11.7 4.602 2.64 9.95 3.96 16.044 3.96 3.963 0 7.542-.55 10.738-1.66 3.239-1.15 6.03-2.85 8.374-5.11 2.344-2.3 4.155-5.16 5.433-8.57l14.579 4.09c-1.54 4.95-4.12 9.29-7.739 13.04-3.622 3.71-8.097 6.61-13.424 8.7-5.326 2.04-11.313 3.07-17.961 3.07zm156.924-100.23v12.78h-50.88v-12.78zm-36.05-23.52h15.08v93.58c0 4.26.62 7.45 1.86 9.58 1.28 2.09 2.9 3.5 4.86 4.22 2 .68 4.11 1.02 6.32 1.02 1.67 0 3.03-.08 4.1-.25 1.06-.21 1.91-.38 2.55-.51l3.07 13.55c-1.02.38-2.45.77-4.28 1.15-1.83.43-4.16.64-6.97.64-4.26 0-8.44-.92-12.53-2.75-4.05-1.83-7.41-4.62-10.1-8.37-2.64-3.75-3.96-8.48-3.96-14.19zm97.57 123.75c-8.86 0-16.64-2.11-23.33-6.33-6.64-4.22-11.84-10.12-15.59-17.71-3.71-7.58-5.56-16.45-5.56-26.59 0-10.23 1.85-19.15 5.56-26.78 3.75-7.63 8.95-13.55 15.59-17.77 6.69-4.22 14.47-6.33 23.33-6.33 8.87 0 16.62 2.11 23.27 6.33 6.69 4.22 11.89 10.14 15.6 17.77 3.75 7.63 5.62 16.55 5.62 26.78 0 10.14-1.87 19.01-5.62 26.59-3.71 7.59-8.91 13.49-15.6 17.71-6.65 4.22-14.4 6.33-23.27 6.33zm0-13.56c6.74 0 12.28-1.72 16.62-5.17 4.35-3.45 7.57-7.99 9.66-13.62 2.08-5.62 3.13-11.72 3.13-18.28s-1.05-12.68-3.13-18.34c-2.09-5.67-5.31-10.25-9.66-13.75-4.34-3.49-9.88-5.24-16.62-5.24-6.73 0-12.27 1.75-16.62 5.24-4.34 3.5-7.56 8.08-9.65 13.75-2.09 5.66-3.13 11.78-3.13 18.34s1.04 12.66 3.13 18.28c2.09 5.63 5.31 10.17 9.65 13.62 4.35 3.45 9.89 5.17 16.62 5.17zm107.15 50.37c-7.29 0-13.55-.93-18.79-2.81-5.24-1.83-9.61-4.26-13.11-7.29-3.45-2.98-6.2-6.17-8.24-9.58l12.02-8.44c1.36 1.79 3.09 3.83 5.17 6.14 2.09 2.34 4.95 4.36 8.57 6.07 3.66 1.74 8.46 2.62 14.38 2.62 7.93 0 14.47-1.92 19.62-5.75 5.16-3.84 7.74-9.85 7.74-18.03v-19.94h-1.28c-1.11 1.79-2.68 4-4.73 6.64-2 2.6-4.9 4.93-8.69 6.97-3.75 2-8.82 3.01-15.22 3.01-7.92 0-15.04-1.88-21.35-5.63-6.26-3.75-11.22-9.2-14.89-16.36-3.62-7.16-5.43-15.86-5.43-26.08 0-10.06 1.77-18.82 5.3-26.27 3.54-7.5 8.46-13.3 14.77-17.39 6.31-4.13 13.59-6.2 21.86-6.2 6.39 0 11.46 1.07 15.21 3.2 3.8 2.08 6.69 4.47 8.7 7.15 2.04 2.65 3.62 4.82 4.73 6.52h1.53v-15.59h14.57v100.99c0 8.44-1.91 15.3-5.75 20.58-3.79 5.33-8.91 9.23-15.34 11.7-6.39 2.52-13.51 3.77-21.35 3.77zm-.51-53.95c6.05 0 11.16-1.38 15.34-4.15s7.35-6.75 9.52-11.95c2.18-5.2 3.26-11.42 3.26-18.67 0-7.07-1.06-13.31-3.19-18.73-2.13-5.41-5.29-9.65-9.46-12.72-4.18-3.07-9.33-4.6-15.47-4.6-6.39 0-11.72 1.62-15.98 4.86-4.22 3.24-7.39 7.58-9.53 13.04-2.08 5.45-3.13 11.5-3.13 18.15 0 6.82 1.07 12.85 3.2 18.09 2.17 5.2 5.37 9.29 9.59 12.27 4.26 2.94 9.54 4.41 15.85 4.41zm111.73 17.14c-9.46 0-17.62-2.09-24.48-6.27-6.82-4.22-12.08-10.1-15.79-17.64-3.66-7.59-5.49-16.41-5.49-26.46 0-10.06 1.83-18.92 5.49-26.59 3.71-7.72 8.87-13.73 15.47-18.03 6.65-4.35 14.4-6.52 23.27-6.52 5.11 0 10.16.85 15.15 2.56 4.98 1.7 9.52 4.47 13.61 8.31 4.09 3.79 7.35 8.82 9.78 15.08 2.43 6.27 3.65 13.98 3.65 23.14v6.39h-75.69v-13.04h60.34c0-5.54-1.1-10.48-3.32-14.83-2.17-4.34-5.28-7.77-9.33-10.29-4.01-2.51-8.74-3.77-14.19-3.77-6.01 0-11.21 1.49-15.6 4.48-4.35 2.94-7.69 6.77-10.03 11.5-2.35 4.73-3.52 9.8-3.52 15.21v8.7c0 7.41 1.28 13.7 3.84 18.85 2.6 5.12 6.2 9.02 10.8 11.7 4.6 2.64 9.95 3.96 16.04 3.96 3.97 0 7.54-.55 10.74-1.66 3.24-1.15 6.03-2.85 8.37-5.11 2.35-2.3 4.16-5.16 5.44-8.57l14.57 4.09c-1.53 4.95-4.11 9.29-7.73 13.04-3.62 3.71-8.1 6.61-13.43 8.7-5.32 2.04-11.31 3.07-17.96 3.07zm106.3-100.23v12.78h-50.88v-12.78zm-36.05-23.52h15.09v93.58c0 4.26.61 7.45 1.85 9.58 1.28 2.09 2.9 3.5 4.86 4.22 2 .68 4.11 1.02 6.33 1.02 1.66 0 3.02-.08 4.09-.25 1.06-.21 1.91-.38 2.55-.51l3.07 13.55c-1.02.38-2.45.77-4.28 1.15-1.83.43-4.16.64-6.97.64-4.26 0-8.44-.92-12.53-2.75-4.04-1.83-7.41-4.62-10.1-8.37-2.64-3.75-3.96-8.48-3.96-14.19zm75.94 62.64v59.06h-15.09v-130.91h15.09v48.07h1.28c2.3-5.07 5.75-9.1 10.35-12.08 4.65-3.03 10.83-4.54 18.54-4.54 6.69 0 12.55 1.34 17.58 4.03 5.03 2.64 8.92 6.71 11.69 12.21 2.82 5.45 4.22 12.4 4.22 20.83v62.39h-15.08v-61.36c0-7.8-2.03-13.83-6.07-18.09-4.01-4.31-9.57-6.46-16.69-6.46-4.94 0-9.37 1.04-13.29 3.13-3.88 2.09-6.95 5.14-9.21 9.14-2.21 4.01-3.32 8.87-3.32 14.58zm132.43 61.11c-9.46 0-17.63-2.09-24.49-6.27-6.81-4.22-12.08-10.1-15.78-17.64-3.67-7.59-5.5-16.41-5.5-26.46 0-10.06 1.83-18.92 5.5-26.59 3.7-7.72 8.86-13.73 15.46-18.03 6.65-4.35 14.41-6.52 23.27-6.52 5.12 0 10.16.85 15.15 2.56 4.99 1.7 9.52 4.47 13.62 8.31 4.09 3.79 7.35 8.82 9.78 15.08 2.42 6.27 3.64 13.98 3.64 23.14v6.39h-75.68v-13.04h60.34c0-5.54-1.11-10.48-3.33-14.83-2.17-4.34-5.28-7.77-9.33-10.29-4-2.51-8.73-3.77-14.19-3.77-6.01 0-11.21 1.49-15.6 4.48-4.34 2.94-7.69 6.77-10.03 11.5s-3.52 9.8-3.52 15.21v8.7c0 7.41 1.28 13.7 3.84 18.85 2.6 5.12 6.2 9.02 10.8 11.7 4.6 2.64 9.95 3.96 16.05 3.96 3.96 0 7.54-.55 10.73-1.66 3.24-1.15 6.03-2.85 8.38-5.11 2.34-2.3 4.15-5.16 5.43-8.57l14.57 4.09c-1.53 4.95-4.11 9.29-7.73 13.04-3.62 3.71-8.1 6.61-13.42 8.7-5.33 2.04-11.32 3.07-17.96 3.07zm63.6-2.05v-98.18h14.57v14.83h1.02c1.79-4.86 5.03-8.8 9.72-11.83 4.69-3.02 9.97-4.54 15.85-4.54 1.11 0 2.49.03 4.16.07 1.66.04 2.91.1 3.77.19v15.34c-.51-.13-1.69-.32-3.52-.57-1.79-.3-3.68-.45-5.69-.45-4.77 0-9.03 1-12.78 3-3.71 1.96-6.65 4.69-8.82 8.18-2.13 3.46-3.2 7.4-3.2 11.83v62.13z" fill="#000"/><path d="m2484.69 1447.79c-8.43 0-15.95-1.45-22.56-4.35-6.56-2.89-11.78-6.92-15.66-12.08-3.84-5.2-5.92-11.23-6.26-18.09h16.1c.34 4.22 1.79 7.86 4.35 10.93 2.56 3.03 5.9 5.37 10.04 7.03 4.13 1.67 8.71 2.5 13.74 2.5 5.62 0 10.61-.98 14.96-2.94 4.34-1.96 7.75-4.69 10.22-8.18 2.47-3.5 3.71-7.55 3.71-12.15 0-4.82-1.19-9.06-3.58-12.72-2.39-3.71-5.88-6.61-10.48-8.69-4.6-2.09-10.23-3.14-16.88-3.14h-10.48v-14.06h10.48c5.2 0 9.76-.94 13.68-2.81 3.97-1.88 7.05-4.52 9.27-7.93 2.26-3.41 3.39-7.41 3.39-12.01 0-4.44-.98-8.29-2.94-11.57s-4.73-5.84-8.31-7.67c-3.54-1.84-7.71-2.75-12.53-2.75-4.52 0-8.78.83-12.78 2.49-3.97 1.62-7.21 3.99-9.72 7.1-2.51 3.06-3.88 6.77-4.09 11.12h-15.34c.25-6.86 2.32-12.87 6.2-18.03 3.88-5.2 8.95-9.24 15.21-12.14 6.31-2.9 13.23-4.35 20.78-4.35 8.09 0 15.04 1.64 20.83 4.92 5.8 3.24 10.25 7.52 13.36 12.85s4.67 11.08 4.67 17.26c0 7.37-1.94 13.66-5.82 18.86-3.83 5.19-9.05 8.8-15.66 10.8v1.02c8.27 1.36 14.72 4.88 19.37 10.55 4.64 5.62 6.97 12.59 6.97 20.9 0 7.12-1.94 13.51-5.82 19.18-3.83 5.62-9.08 10.05-15.72 13.29-6.65 3.24-14.22 4.86-22.7 4.86zm82.54-.77c-3.15 0-5.86-1.13-8.12-3.39-2.26-2.25-3.38-4.96-3.38-8.11 0-3.16 1.12-5.86 3.38-8.12s4.97-3.39 8.12-3.39 5.86 1.13 8.12 3.39 3.39 4.96 3.39 8.12c0 2.09-.54 4-1.6 5.75-1.02 1.75-2.41 3.15-4.16 4.22-1.7 1.02-3.62 1.53-5.75 1.53zm205.96-91.02h-15.85c-.94-4.56-2.58-8.57-4.92-12.02-2.3-3.45-5.11-6.35-8.44-8.69-3.28-2.39-6.92-4.18-10.93-5.37-4-1.19-8.18-1.79-12.53-1.79-7.92 0-15.1 2-21.54 6.01-6.39 4-11.48 9.91-15.28 17.71-3.75 7.79-5.62 17.36-5.62 28.7 0 11.33 1.87 20.9 5.62 28.7 3.8 7.79 8.89 13.7 15.28 17.7 6.44 4.01 13.62 6.01 21.54 6.01 4.35 0 8.53-.6 12.53-1.79 4.01-1.19 7.65-2.96 10.93-5.3 3.33-2.39 6.14-5.31 8.44-8.76 2.34-3.5 3.98-7.5 4.92-12.02h15.85c-1.19 6.69-3.36 12.68-6.52 17.96-3.15 5.29-7.07 9.78-11.76 13.49-4.69 3.66-9.95 6.46-15.79 8.37-5.79 1.92-11.99 2.88-18.6 2.88-11.16 0-21.09-2.73-29.78-8.18-8.7-5.46-15.54-13.21-20.52-23.27-4.99-10.06-7.48-21.99-7.48-35.79 0-13.81 2.49-25.74 7.48-35.8 4.98-10.06 11.82-17.81 20.52-23.27 8.69-5.45 18.62-8.18 29.78-8.18 6.61 0 12.81.96 18.6 2.88 5.84 1.92 11.1 4.73 15.79 8.44 4.69 3.66 8.61 8.13 11.76 13.42 3.16 5.24 5.33 11.23 6.52 17.96zm85.45 49.86v-58.04h15.08v98.18h-15.08v-16.62h-1.02c-2.31 4.99-5.88 9.23-10.74 12.72-4.86 3.45-11 5.18-18.41 5.18-6.14 0-11.59-1.34-16.37-4.03-4.77-2.73-8.52-6.82-11.25-12.27-2.72-5.5-4.09-12.42-4.09-20.78v-62.38h15.09v61.36c0 7.16 2 12.87 6.01 17.13 4.05 4.26 9.2 6.39 15.47 6.39 3.75 0 7.56-.95 11.44-2.87 3.92-1.92 7.2-4.86 9.84-8.82 2.69-3.97 4.03-9.02 4.03-15.15zm85.41-58.04v12.78h-50.88v-12.78zm-36.05-23.52h15.09v93.58c0 4.26.61 7.45 1.85 9.58 1.28 2.09 2.9 3.5 4.86 4.22 2 .68 4.11 1.02 6.33 1.02 1.66 0 3.02-.08 4.09-.25 1.06-.21 1.91-.38 2.55-.51l3.07 13.55c-1.02.38-2.45.77-4.28 1.15-1.83.43-4.16.64-6.97.64-4.26 0-8.44-.92-12.53-2.75-4.04-1.83-7.41-4.62-10.1-8.37-2.64-3.75-3.96-8.48-3.96-14.19zm109.37 121.7v-98.18h15.08v98.18zm7.67-114.55c-2.94 0-5.48-1-7.61-3-2.08-2-3.13-4.41-3.13-7.22 0-2.82 1.05-5.22 3.13-7.23 2.13-2 4.67-3 7.61-3s5.45 1 7.54 3c2.13 2.01 3.2 4.41 3.2 7.23 0 2.81-1.07 5.22-3.2 7.22-2.09 2-4.6 3-7.54 3zm50.13 55.49v59.06h-15.09v-98.18h14.58v15.34h1.28c2.3-4.99 5.79-8.99 10.48-12.02 4.69-3.07 10.74-4.6 18.15-4.6 6.65 0 12.47 1.36 17.45 4.09 4.99 2.69 8.87 6.78 11.64 12.27 2.77 5.46 4.15 12.36 4.15 20.71v62.39h-15.08v-61.36c0-7.72-2.01-13.73-6.01-18.03-4.01-4.35-9.51-6.52-16.49-6.52-4.82 0-9.12 1.04-12.92 3.13-3.75 2.09-6.71 5.14-8.88 9.14-2.17 4.01-3.26 8.87-3.26 14.58zm186.6-71.85v130.91h-15.85v-114.29h-.77l-31.96 21.22v-16.11l32.73-21.73zm41.16 131.93c-3.15 0-5.86-1.13-8.11-3.39-2.26-2.25-3.39-4.96-3.39-8.11 0-3.16 1.13-5.86 3.39-8.12 2.25-2.26 4.96-3.39 8.11-3.39 3.16 0 5.86 1.13 8.12 3.39s3.39 4.96 3.39 8.12c0 2.09-.53 4-1.6 5.75-1.02 1.75-2.41 3.15-4.15 4.22-1.71 1.02-3.63 1.53-5.76 1.53zm76.6.77c-7.5 0-14.26-1.49-20.27-4.47-6-2.99-10.82-7.08-14.44-12.28s-5.61-11.12-5.95-17.77h15.34c.6 5.93 3.29 10.83 8.06 14.7 4.81 3.84 10.57 5.76 17.26 5.76 5.37 0 10.14-1.26 14.31-3.77 4.22-2.52 7.53-5.97 9.91-10.36 2.43-4.43 3.65-9.44 3.65-15.02 0-5.71-1.26-10.8-3.78-15.28-2.47-4.51-5.88-8.07-10.22-10.67-4.35-2.6-9.31-3.92-14.9-3.97-4-.04-8.11.58-12.33 1.86-4.22 1.23-7.69 2.83-10.42 4.79l-14.83-1.79 7.92-64.43h68.02v14.06h-54.72l-4.6 38.61h.77c2.68-2.13 6.05-3.9 10.09-5.3 4.05-1.41 8.27-2.11 12.66-2.11 8.01 0 15.15 1.91 21.41 5.75 6.31 3.79 11.25 8.99 14.83 15.6 3.63 6.6 5.44 14.14 5.44 22.62 0 8.36-1.88 15.81-5.63 22.38-3.71 6.52-8.82 11.67-15.34 15.46-6.52 3.75-13.93 5.63-22.24 5.63zm82.15-132.7v11.51c0 3.49-.64 7.22-1.92 11.18-1.23 3.92-3.07 7.74-5.49 11.44-2.39 3.67-5.29 6.87-8.7 9.59l-8.18-6.65c2.69-3.83 5.01-7.81 6.97-11.95 2-4.17 3-8.63 3-13.36v-11.76zm32.73 0v11.51c0 3.49-.64 7.22-1.92 11.18-1.24 3.92-3.07 7.74-5.5 11.44-2.38 3.67-5.28 6.87-8.69 9.59l-8.18-6.65c2.68-3.83 5.01-7.81 6.97-11.95 2-4.17 3-8.63 3-13.36v-11.76zm142.7 54.72-13.55 3.83c-.85-2.26-2.11-4.45-3.77-6.58-1.62-2.18-3.84-3.96-6.65-5.37s-6.41-2.11-10.8-2.11c-6.01 0-11.02 1.38-15.02 4.15-3.97 2.73-5.95 6.2-5.95 10.42 0 3.75 1.37 6.72 4.09 8.89 2.73 2.17 6.99 3.98 12.79 5.43l14.57 3.58c8.78 2.13 15.32 5.39 19.62 9.78 4.31 4.35 6.46 9.95 6.46 16.81 0 5.63-1.62 10.66-4.86 15.09-3.19 4.43-7.67 7.92-13.42 10.48s-12.44 3.84-20.07 3.84c-10.02 0-18.3-2.18-24.87-6.52-6.56-4.35-10.71-10.7-12.46-19.05l14.32-3.58c1.36 5.28 3.94 9.24 7.73 11.89 3.84 2.64 8.84 3.96 15.02 3.96 7.03 0 12.62-1.49 16.75-4.47 4.18-3.03 6.26-6.65 6.26-10.87 0-3.41-1.19-6.27-3.58-8.57-2.38-2.34-6.05-4.09-10.99-5.24l-16.36-3.83c-9-2.13-15.6-5.44-19.82-9.91-4.18-4.52-6.26-10.16-6.26-16.94 0-5.54 1.55-10.44 4.66-14.7 3.16-4.26 7.44-7.61 12.85-10.04 5.45-2.43 11.63-3.64 18.54-3.64 9.71 0 17.34 2.13 22.88 6.39 5.58 4.26 9.55 9.89 11.89 16.88zm67.2-21.99v12.78h-50.88v-12.78zm-36.05-23.52h15.08v93.58c0 4.26.62 7.45 1.85 9.58 1.28 2.09 2.9 3.5 4.86 4.22 2.01.68 4.11 1.02 6.33 1.02 1.66 0 3.03-.08 4.09-.25 1.07-.21 1.92-.38 2.56-.51l3.07 13.55c-1.03.38-2.45.77-4.29 1.15-1.83.43-4.15.64-6.96.64-4.27 0-8.44-.92-12.53-2.75-4.05-1.83-7.42-4.62-10.1-8.37-2.64-3.75-3.96-8.48-3.96-14.19zm58.74 121.7v-98.18h14.57v14.83h1.02c1.79-4.86 5.03-8.8 9.72-11.83 4.69-3.02 9.97-4.54 15.85-4.54 1.11 0 2.5.03 4.16.07s2.92.1 3.77.19v15.34c-.51-.13-1.68-.32-3.52-.57-1.79-.3-3.68-.45-5.69-.45-4.77 0-9.03 1-12.78 3-3.71 1.96-6.65 4.69-8.82 8.18-2.13 3.46-3.2 7.4-3.2 11.83v62.13zm66.97 0v-98.18h15.09v98.18zm7.67-114.55c-2.94 0-5.47-1-7.61-3-2.08-2-3.13-4.41-3.13-7.22 0-2.82 1.05-5.22 3.13-7.23 2.14-2 4.67-3 7.61-3s5.46 1 7.54 3c2.13 2.01 3.2 4.41 3.2 7.23 0 2.81-1.07 5.22-3.2 7.22-2.08 2-4.6 3-7.54 3zm35.05 151.37v-135h14.57v15.59h1.79c1.11-1.7 2.64-3.87 4.6-6.52 2-2.68 4.86-5.07 8.57-7.15 3.75-2.13 8.82-3.2 15.21-3.2 8.27 0 15.55 2.07 21.86 6.2s11.23 9.99 14.77 17.58c3.53 7.58 5.3 16.53 5.3 26.84 0 10.4-1.77 19.42-5.3 27.04-3.54 7.59-8.44 13.47-14.71 17.65-6.26 4.13-13.48 6.2-21.66 6.2-6.31 0-11.36-1.05-15.15-3.14-3.8-2.13-6.72-4.54-8.76-7.22-2.05-2.73-3.62-4.99-4.73-6.78h-1.28v51.91zm14.83-85.91c0 7.41 1.08 13.96 3.26 19.62 2.17 5.63 5.34 10.04 9.52 13.23 4.18 3.16 9.29 4.73 15.34 4.73 6.31 0 11.57-1.66 15.79-4.98 4.26-3.37 7.46-7.89 9.59-13.55 2.17-5.71 3.26-12.06 3.26-19.05 0-6.9-1.07-13.13-3.2-18.67-2.09-5.58-5.26-9.99-9.52-13.23-4.22-3.28-9.53-4.92-15.92-4.92-6.14 0-11.29 1.56-15.47 4.67-4.17 3.07-7.33 7.37-9.46 12.91-2.13 5.5-3.19 11.91-3.19 19.24zm164.4-27.1-13.55 3.83c-.85-2.26-2.11-4.45-3.77-6.58-1.62-2.18-3.84-3.96-6.65-5.37s-6.41-2.11-10.8-2.11c-6.01 0-11.02 1.38-15.03 4.15-3.96 2.73-5.94 6.2-5.94 10.42 0 3.75 1.36 6.72 4.09 8.89s6.99 3.98 12.79 5.43l14.57 3.58c8.78 2.13 15.32 5.39 19.62 9.78 4.31 4.35 6.46 9.95 6.46 16.81 0 5.63-1.62 10.66-4.86 15.09-3.2 4.43-7.67 7.92-13.42 10.48-5.76 2.56-12.45 3.84-20.07 3.84-10.02 0-18.31-2.18-24.87-6.52-6.56-4.35-10.72-10.7-12.46-19.05l14.31-3.58c1.37 5.28 3.95 9.24 7.74 11.89 3.83 2.64 8.84 3.96 15.02 3.96 7.03 0 12.61-1.49 16.75-4.47 4.17-3.03 6.26-6.65 6.26-10.87 0-3.41-1.19-6.27-3.58-8.57-2.38-2.34-6.05-4.09-10.99-5.24l-16.37-3.83c-8.99-2.13-15.59-5.44-19.81-9.91-4.18-4.52-6.27-10.16-6.27-16.94 0-5.54 1.56-10.44 4.67-14.7 3.15-4.26 7.44-7.61 12.85-10.04 5.45-2.43 11.63-3.64 18.54-3.64 9.71 0 17.34 2.13 22.88 6.39 5.58 4.26 9.54 9.89 11.89 16.88z" fill="#000"/><path d="m132 3138h200v1150h-200z" fill="#b3833b"/><path d="m132 3705.5h200" stroke="#000" stroke-width="15"/><path d="m2963 3138h200v1150h-200z" fill="#b3833b"/><path d="m3763 3138h200v1150h-200z" fill="#b3833b"/><path d="m1188 3138h200v1150h-200z" fill="#b3833b"/><path d="m1188 3705.5h200" stroke="#000" stroke-width="15"/><path d="m660 3138h200v1150h-200z" fill="#b3833b"/><path d="m660 3705.5h200" stroke="#000" stroke-width="15"/><path d="m3363 3138h200v1150h-200z" fill="#b3833b"/><path d="m4163 3138h200v1150h-200z" fill="#b3833b"/><path d="m4563 3138h200v1150h-200z" fill="#b3833b"/><path d="m1716 3138h200v1150h-200z" fill="#b3833b"/><path d="m1716 3705.5h200" stroke="#000" stroke-width="15"/><path d="m2244 3138h200v1150h-200z" fill="#b3833b"/><path d="m2244 3705.5h200" stroke="#000" stroke-width="15"/><path d="m0 0h200v1150h-200z" fill="#b3833b" transform="matrix(-1 0 0 1 596 3138)"/><path d="m0-7.5h200" stroke="#000" stroke-width="15" transform="matrix(-1 .00000009 .00000008 1 596 3713)"/><path d="m0 0h200v1150h-200z" fill="#b3833b" transform="matrix(-1 0 0 1 3363 3138)"/><path d="m0 0h200v1150h-200z" fill="#b3833b" transform="matrix(-1 0 0 1 4163 3138)"/><path d="m0 0h200v1150h-200z" fill="#b3833b" transform="matrix(-1 0 0 1 1652 3138)"/><path d="m0-7.5h200" stroke="#000" stroke-width="15" transform="matrix(-1 .00000009 .00000008 1 1652 3713)"/><path d="m0 0h200v1150h-200z" fill="#b3833b" transform="matrix(-1 0 0 1 1124 3138)"/><path d="m0-7.5h200" stroke="#000" stroke-width="15" transform="matrix(-1 .00000009 .00000008 1 1124 3713)"/><path d="m0 0h200v1150h-200z" fill="#b3833b" transform="matrix(-1 0 0 1 3763 3138)"/><path d="m0 0h200v1150h-200z" fill="#b3833b" transform="matrix(-1 0 0 1 4563 3138)"/><path d="m0 0h200v1150h-200z" fill="#b3833b" transform="matrix(-1 0 0 1 4963 3138)"/><path d="m0 0h200v1150h-200z" fill="#b3833b" transform="matrix(-1 0 0 1 2180 3138)"/><path d="m0-7.5h200" stroke="#000" stroke-width="15" transform="matrix(-1 .00000009 .00000008 1 2180 3713)"/><path d="m0 0h200v1150h-200z" fill="#b3833b" transform="matrix(-1 0 0 1 2708 3138)"/><g stroke-width="15"><path d="m0-7.5h200" stroke="#000" transform="matrix(-1 .00000009 .00000008 1 2708 3713)"/><path d="m254.697 3659.7 42-42" stroke="#d5a459"/><path d="m3085.7 3659.7 42-42" stroke="#d5a459"/><path d="m3885.7 3659.7 42-42" stroke="#d5a459"/><path d="m1310.7 3659.7 42-42" stroke="#d5a459"/><path d="m782.697 3659.7 42-42" stroke="#d5a459"/><path d="m3485.7 3659.7 42-42" stroke="#d5a459"/><path d="m4285.7 3659.7 42-42" stroke="#d5a459"/><path d="m4685.7 3659.7 42-42" stroke="#d5a459"/><path d="m1838.7 3659.7 42-42" stroke="#d5a459"/><path d="m2366.7 3659.7 42-42" stroke="#d5a459"/><path d="m0-7.5h59.397" stroke="#d5a459" transform="matrix(-.707107 -.707107 -.707107 .707107 468 3665)"/><path d="m0-7.5h59.397" stroke="#d5a459" transform="matrix(-.707107 -.707107 -.707107 .707107 3235 3665)"/><path d="m0-7.5h59.397" stroke="#d5a459" transform="matrix(-.707107 -.707107 -.707107 .707107 4035 3665)"/><path d="m0-7.5h59.397" stroke="#d5a459" transform="matrix(-.707107 -.707107 -.707107 .707107 1524 3665)"/><path d="m0-7.5h59.397" stroke="#d5a459" transform="matrix(-.707107 -.707107 -.707107 .707107 996 3665)"/><path d="m0-7.5h59.397" stroke="#d5a459" transform="matrix(-.707107 -.707107 -.707107 .707107 3635 3665)"/><path d="m0-7.5h59.397" stroke="#d5a459" transform="matrix(-.707107 -.707107 -.707107 .707107 4435 3665)"/><path d="m0-7.5h59.397" stroke="#d5a459" transform="matrix(-.707107 -.707107 -.707107 .707107 4835 3665)"/><path d="m0-7.5h59.397" stroke="#d5a459" transform="matrix(-.707107 -.707107 -.707107 .707107 2052 3665)"/><path d="m0-7.5h59.397" stroke="#d5a459" transform="matrix(-.707107 -.707107 -.707107 .707107 2580 3665)"/><path d="m0-7.5h59.397" stroke="#d5a459" transform="matrix(.707107 .707107 .707107 -.707107 258 3741)"/><path d="m0-7.5h59.397" stroke="#d5a459" transform="matrix(.707107 .707107 .707107 -.707107 3089 3741)"/><path d="m0-7.5h59.397" stroke="#d5a459" transform="matrix(.707107 .707107 .707107 -.707107 3889 3741)"/><path d="m0-7.5h59.397" stroke="#d5a459" transform="matrix(.707107 .707107 .707107 -.707107 1314 3741)"/><path d="m0-7.5h59.397" stroke="#d5a459" transform="matrix(.707107 .707107 .707107 -.707107 786 3741)"/><path d="m0-7.5h59.397" stroke="#d5a459" transform="matrix(.707107 .707107 .707107 -.707107 3489 3741)"/><path d="m0-7.5h59.397" stroke="#d5a459" transform="matrix(.707107 .707107 .707107 -.707107 4289 3741)"/><path d="m0-7.5h59.397" stroke="#d5a459" transform="matrix(.707107 .707107 .707107 -.707107 4689 3741)"/><path d="m0-7.5h59.397" stroke="#d5a459" transform="matrix(.707107 .707107 .707107 -.707107 1842 3741)"/><path d="m0-7.5h59.397" stroke="#d5a459" transform="matrix(.707107 .707107 .707107 -.707107 2370 3741)"/><path d="m475.303 3746.3-42 42" stroke="#d5a459"/><path d="m3242.3 3746.3-42 42" stroke="#d5a459"/><path d="m4042.3 3746.3-42 42" stroke="#d5a459"/><path d="m1531.3 3746.3-42 42" stroke="#d5a459"/><path d="m1003.3 3746.3-41.997 42" stroke="#d5a459"/><path d="m3642.3 3746.3-42 42" stroke="#d5a459"/><path d="m4442.3 3746.3-42 42" stroke="#d5a459"/><path d="m4842.3 3746.3-42 42" stroke="#d5a459"/><path d="m2059.3 3746.3-42 42" stroke="#d5a459"/><path d="m2587.3 3746.3-42 42" stroke="#d5a459"/><path d="m205.428 3673.98 91-101" stroke="#d5a459"/><path d="m3036.43 3673.98 91-101" stroke="#d5a459"/><path d="m3836.43 3673.98 91-101" stroke="#d5a459"/><path d="m1261.43 3673.98 91-101" stroke="#d5a459"/><path d="m733.428 3673.98 91-101" stroke="#d5a459"/><path d="m3436.43 3673.98 91-101" stroke="#d5a459"/><path d="m4236.43 3673.98 91-101" stroke="#d5a459"/><path d="m4636.43 3673.98 91-101" stroke="#d5a459"/><path d="m1789.43 3673.98 91-101" stroke="#d5a459"/><path d="m2317.43 3673.98 91-101" stroke="#d5a459"/><path d="m0-7.5h135.949" stroke="#d5a459" transform="matrix(-.669371 -.742928 -.742928 .669371 517 3679)"/><path d="m0-7.5h135.949" stroke="#d5a459" transform="matrix(-.669371 -.742928 -.742928 .669371 3284 3679)"/><path d="m0-7.5h135.949" stroke="#d5a459" transform="matrix(-.669371 -.742928 -.742928 .669371 4084 3679)"/><path d="m0-7.5h135.949" stroke="#d5a459" transform="matrix(-.669371 -.742928 -.742928 .669371 1573 3679)"/><path d="m0-7.5h135.949" stroke="#d5a459" transform="matrix(-.669371 -.742928 -.742928 .669371 1045 3679)"/><path d="m0-7.5h135.949" stroke="#d5a459" transform="matrix(-.669371 -.742928 -.742928 .669371 3684 3679)"/><path d="m0-7.5h135.949" stroke="#d5a459" transform="matrix(-.669371 -.742928 -.742928 .669371 4484 3679)"/><path d="m0-7.5h135.949" stroke="#d5a459" transform="matrix(-.669371 -.742928 -.742928 .669371 4884 3679)"/><path d="m0-7.5h135.949" stroke="#d5a459" transform="matrix(-.669371 -.742928 -.742928 .669371 2101 3679)"/><path d="m0-7.5h135.949" stroke="#d5a459" transform="matrix(-.669371 -.742928 -.742928 .669371 2629 3679)"/><path d="m0-7.5h135.949" stroke="#d5a459" transform="matrix(.669371 .742928 .742928 -.669371 209 3727)"/><path d="m0-7.5h135.949" stroke="#d5a459" transform="matrix(.669371 .742928 .742928 -.669371 3040 3727)"/><path d="m0-7.5h135.949" stroke="#d5a459" transform="matrix(.669371 .742928 .742928 -.669371 3840 3727)"/><path d="m0-7.5h135.949" stroke="#d5a459" transform="matrix(.669371 .742928 .742928 -.669371 1265 3727)"/><path d="m0-7.5h135.949" stroke="#d5a459" transform="matrix(.669371 .742928 .742928 -.669371 737 3727)"/><path d="m0-7.5h135.949" stroke="#d5a459" transform="matrix(.669371 .742928 .742928 -.669371 3440 3727)"/><path d="m0-7.5h135.949" stroke="#d5a459" transform="matrix(.669371 .742928 .742928 -.669371 4240 3727)"/><path d="m0-7.5h135.949" stroke="#d5a459" transform="matrix(.669371 .742928 .742928 -.669371 4640 3727)"/><path d="m0-7.5h135.949" stroke="#d5a459" transform="matrix(.669371 .742928 .742928 -.669371 1793 3727)"/><path d="m0-7.5h135.949" stroke="#d5a459" transform="matrix(.669371 .742928 .742928 -.669371 2321 3727)"/><path d="m524.572 3732.02-91 101" stroke="#d5a459"/><path d="m3291.57 3732.02-91 101" stroke="#d5a459"/><path d="m4091.57 3732.02-91 101" stroke="#d5a459"/><path d="m1580.57 3732.02-91 101" stroke="#d5a459"/><path d="m1052.57 3732.02-90.998 101" stroke="#d5a459"/><path d="m3691.57 3732.02-91 101" stroke="#d5a459"/><path d="m4491.57 3732.02-91 101" stroke="#d5a459"/><path d="m4891.57 3732.02-91 101" stroke="#d5a459"/><path d="m2108.57 3732.02-91 101" stroke="#d5a459"/><path d="m2636.57 3732.02-91 101" stroke="#d5a459"/><path d="m163.422 3674.99 133-148" stroke="#d5a459"/><path d="m2994.42 3674.99 133-148" stroke="#d5a459"/><path d="m3794.42 3674.99 133-148" stroke="#d5a459"/><path d="m1219.42 3674.99 133-148" stroke="#d5a459"/><path d="m691.422 3674.99 133-148" stroke="#d5a459"/><path d="m3394.42 3674.99 133-148" stroke="#d5a459"/><path d="m4194.42 3674.99 133-148" stroke="#d5a459"/><path d="m4594.42 3674.99 133-148" stroke="#d5a459"/><path d="m1747.42 3674.99 133-148" stroke="#d5a459"/><path d="m2275.42 3674.99 133-148" stroke="#d5a459"/><path d="m0-7.5h198.98" stroke="#d5a459" transform="matrix(-.668409 -.743794 -.743794 .668409 559 3680)"/><path d="m0-7.5h198.98" stroke="#d5a459" transform="matrix(-.668409 -.743794 -.743794 .668409 3326 3680)"/><path d="m0-7.5h198.98" stroke="#d5a459" transform="matrix(-.668409 -.743794 -.743794 .668409 4126 3680)"/><path d="m0-7.5h198.98" stroke="#d5a459" transform="matrix(-.668409 -.743794 -.743794 .668409 1615 3680)"/><path d="m0-7.5h198.98" stroke="#d5a459" transform="matrix(-.668409 -.743794 -.743794 .668409 1087 3680)"/><path d="m0-7.5h198.98" stroke="#d5a459" transform="matrix(-.668409 -.743794 -.743794 .668409 3726 3680)"/><path d="m0-7.5h198.98" stroke="#d5a459" transform="matrix(-.668409 -.743794 -.743794 .668409 4526 3680)"/><path d="m0-7.5h198.98" stroke="#d5a459" transform="matrix(-.668409 -.743794 -.743794 .668409 4926 3680)"/><path d="m0-7.5h198.98" stroke="#d5a459" transform="matrix(-.668409 -.743794 -.743794 .668409 2143 3680)"/><path d="m0-7.5h198.98" stroke="#d5a459" transform="matrix(-.668409 -.743794 -.743794 .668409 2671 3680)"/><path d="m163.422 3617.99 133-148" stroke="#7e5517"/><path d="m2994.42 3617.99 133-148" stroke="#7e5517"/><path d="m3794.42 3617.99 133-148" stroke="#7e5517"/><path d="m1219.42 3617.99 133-148" stroke="#7e5517"/><path d="m691.422 3617.99 133-148" stroke="#7e5517"/><path d="m3394.42 3617.99 133-148" stroke="#7e5517"/><path d="m4194.42 3617.99 133-148" stroke="#7e5517"/><path d="m4594.42 3617.99 133-148" stroke="#7e5517"/><path d="m1747.42 3617.99 133-148" stroke="#7e5517"/><path d="m2275.42 3617.99 133-148" stroke="#7e5517"/><path d="m0-7.5h198.98" stroke="#7e5517" transform="matrix(-.668409 -.743794 -.743794 .668409 559 3623)"/><path d="m0-7.5h198.98" stroke="#7e5517" transform="matrix(-.668409 -.743794 -.743794 .668409 3326 3623)"/><path d="m0-7.5h198.98" stroke="#7e5517" transform="matrix(-.668409 -.743794 -.743794 .668409 4126 3623)"/><path d="m0-7.5h198.98" stroke="#7e5517" transform="matrix(-.668409 -.743794 -.743794 .668409 1615 3623)"/><path d="m0-7.5h198.98" stroke="#7e5517" transform="matrix(-.668409 -.743794 -.743794 .668409 1087 3623)"/><path d="m0-7.5h198.98" stroke="#7e5517" transform="matrix(-.668409 -.743794 -.743794 .668409 3726 3623)"/><path d="m0-7.5h198.98" stroke="#7e5517" transform="matrix(-.668409 -.743794 -.743794 .668409 4526 3623)"/><path d="m0-7.5h198.98" stroke="#7e5517" transform="matrix(-.668409 -.743794 -.743794 .668409 4926 3623)"/><path d="m0-7.5h198.98" stroke="#7e5517" transform="matrix(-.668409 -.743794 -.743794 .668409 2143 3623)"/><path d="m0-7.5h198.98" stroke="#7e5517" transform="matrix(-.668409 -.743794 -.743794 .668409 2671 3623)"/><path d="m0-7.5h198.98" stroke="#7e5517" transform="matrix(.668409 .743794 .743794 -.668409 174 3803)"/><path d="m0-7.5h198.98" stroke="#7e5517" transform="matrix(.668409 .743794 .743794 -.668409 3005 3803)"/><path d="m0-7.5h198.98" stroke="#7e5517" transform="matrix(.668409 .743794 .743794 -.668409 3805 3803)"/><path d="m0-7.5h198.98" stroke="#7e5517" transform="matrix(.668409 .743794 .743794 -.668409 1230 3803)"/><path d="m0-7.5h198.98" stroke="#7e5517" transform="matrix(.668409 .743794 .743794 -.668409 702 3803)"/><path d="m0-7.5h198.98" stroke="#7e5517" transform="matrix(.668409 .743794 .743794 -.668409 3405 3803)"/><path d="m0-7.5h198.98" stroke="#7e5517" transform="matrix(.668409 .743794 .743794 -.668409 4205 3803)"/><path d="m0-7.5h198.98" stroke="#7e5517" transform="matrix(.668409 .743794 .743794 -.668409 4605 3803)"/><path d="m0-7.5h198.98" stroke="#7e5517" transform="matrix(.668409 .743794 .743794 -.668409 1758 3803)"/><path d="m0-7.5h198.98" stroke="#7e5517" transform="matrix(.668409 .743794 .743794 -.668409 2286 3803)"/><path d="m559.578 3808.01-133 148" stroke="#7e5517"/><path d="m3326.58 3808.01-133 148" stroke="#7e5517"/><path d="m4126.58 3808.01-133 148" stroke="#7e5517"/><path d="m1615.58 3808.01-133 148" stroke="#7e5517"/><path d="m1087.58 3808.01-133.002 148" stroke="#7e5517"/><path d="m3726.58 3808.01-133 148" stroke="#7e5517"/><path d="m4526.58 3808.01-133 148" stroke="#7e5517"/><path d="m4926.58 3808.01-133 148" stroke="#7e5517"/><path d="m2143.58 3808.01-133 148" stroke="#7e5517"/><path d="m2671.58 3808.01-133 148" stroke="#7e5517"/><path d="m161.422 3559.99 133-148" stroke="#7e5517"/><path d="m2992.42 3559.99 133-148" stroke="#7e5517"/><path d="m3792.42 3559.99 133-148" stroke="#7e5517"/><path d="m1217.42 3559.99 133-148" stroke="#7e5517"/><path d="m689.422 3559.99 133-148" stroke="#7e5517"/><path d="m3392.42 3559.99 133-148" stroke="#7e5517"/><path d="m4192.42 3559.99 133-148" stroke="#7e5517"/><path d="m4592.42 3559.99 133-148" stroke="#7e5517"/><path d="m1745.42 3559.99 133-148" stroke="#7e5517"/><path d="m2273.42 3559.99 133-148" stroke="#7e5517"/><path d="m0-7.5h198.98" stroke="#7e5517" transform="matrix(-.668409 -.743794 -.743794 .668409 561 3565)"/><path d="m0-7.5h198.98" stroke="#7e5517" transform="matrix(-.668409 -.743794 -.743794 .668409 3328 3565)"/><path d="m0-7.5h198.98" stroke="#7e5517" transform="matrix(-.668409 -.743794 -.743794 .668409 4128 3565)"/><path d="m0-7.5h198.98" stroke="#7e5517" transform="matrix(-.668409 -.743794 -.743794 .668409 1617 3565)"/><path d="m0-7.5h198.98" stroke="#7e5517" transform="matrix(-.668409 -.743794 -.743794 .668409 1089 3565)"/><path d="m0-7.5h198.98" stroke="#7e5517" transform="matrix(-.668409 -.743794 -.743794 .668409 3728 3565)"/><path d="m0-7.5h198.98" stroke="#7e5517" transform="matrix(-.668409 -.743794 -.743794 .668409 4528 3565)"/><path d="m0-7.5h198.98" stroke="#7e5517" transform="matrix(-.668409 -.743794 -.743794 .668409 4928 3565)"/><path d="m0-7.5h198.98" stroke="#7e5517" transform="matrix(-.668409 -.743794 -.743794 .668409 2145 3565)"/><path d="m0-7.5h198.98" stroke="#7e5517" transform="matrix(-.668409 -.743794 -.743794 .668409 2673 3565)"/><path d="m0-7.5h198.98" stroke="#7e5517" transform="matrix(.668409 .743794 .743794 -.668409 172 3861)"/><path d="m0-7.5h198.98" stroke="#7e5517" transform="matrix(.668409 .743794 .743794 -.668409 3003 3861)"/><path d="m0-7.5h198.98" stroke="#7e5517" transform="matrix(.668409 .743794 .743794 -.668409 3803 3861)"/><path d="m0-7.5h198.98" stroke="#7e5517" transform="matrix(.668409 .743794 .743794 -.668409 1228 3861)"/><path d="m0-7.5h198.98" stroke="#7e5517" transform="matrix(.668409 .743794 .743794 -.668409 700 3861)"/><path d="m0-7.5h198.98" stroke="#7e5517" transform="matrix(.668409 .743794 .743794 -.668409 3403 3861)"/><path d="m0-7.5h198.98" stroke="#7e5517" transform="matrix(.668409 .743794 .743794 -.668409 4203 3861)"/><path d="m0-7.5h198.98" stroke="#7e5517" transform="matrix(.668409 .743794 .743794 -.668409 4603 3861)"/><path d="m0-7.5h198.98" stroke="#7e5517" transform="matrix(.668409 .743794 .743794 -.668409 1756 3861)"/><path d="m0-7.5h198.98" stroke="#7e5517" transform="matrix(.668409 .743794 .743794 -.668409 2284 3861)"/><path d="m561.578 3866.01-133 148" stroke="#7e5517"/><path d="m3328.58 3866.01-133 148" stroke="#7e5517"/><path d="m4128.58 3866.01-133 148" stroke="#7e5517"/><path d="m1617.58 3866.01-133 148" stroke="#7e5517"/><path d="m1089.58 3866.01-133.002 148" stroke="#7e5517"/><path d="m3728.58 3866.01-133 148" stroke="#7e5517"/><path d="m4528.58 3866.01-133 148" stroke="#7e5517"/><path d="m4928.58 3866.01-133 148" stroke="#7e5517"/><path d="m2145.58 3866.01-133 148" stroke="#7e5517"/><path d="m2673.58 3866.01-133 148" stroke="#7e5517"/><path d="m159.422 3506.99 133-148" stroke="#7e5517"/><path d="m2990.42 3506.99 133-148" stroke="#7e5517"/><path d="m3790.42 3506.99 133-148" stroke="#7e5517"/><path d="m1215.42 3506.99 133-148" stroke="#7e5517"/><path d="m687.422 3506.99 133-148" stroke="#7e5517"/><path d="m3390.42 3506.99 133-148" stroke="#7e5517"/><path d="m4190.42 3506.99 133-148" stroke="#7e5517"/><path d="m4590.42 3506.99 133-148" stroke="#7e5517"/><path d="m1743.42 3506.99 133-148" stroke="#7e5517"/><path d="m2271.42 3506.99 133-148" stroke="#7e5517"/><path d="m0-7.5h198.98" stroke="#7e5517" transform="matrix(-.668409 -.743794 -.743794 .668409 563 3512)"/><path d="m0-7.5h198.98" stroke="#7e5517" transform="matrix(-.668409 -.743794 -.743794 .668409 3330 3512)"/><path d="m0-7.5h198.98" stroke="#7e5517" transform="matrix(-.668409 -.743794 -.743794 .668409 4130 3512)"/><path d="m0-7.5h198.98" stroke="#7e5517" transform="matrix(-.668409 -.743794 -.743794 .668409 1619 3512)"/><path d="m0-7.5h198.98" stroke="#7e5517" transform="matrix(-.668409 -.743794 -.743794 .668409 1091 3512)"/><path d="m0-7.5h198.98" stroke="#7e5517" transform="matrix(-.668409 -.743794 -.743794 .668409 3730 3512)"/><path d="m0-7.5h198.98" stroke="#7e5517" transform="matrix(-.668409 -.743794 -.743794 .668409 4530 3512)"/><path d="m0-7.5h198.98" stroke="#7e5517" transform="matrix(-.668409 -.743794 -.743794 .668409 4930 3512)"/><path d="m0-7.5h198.98" stroke="#7e5517" transform="matrix(-.668409 -.743794 -.743794 .668409 2147 3512)"/><path d="m0-7.5h198.98" stroke="#7e5517" transform="matrix(-.668409 -.743794 -.743794 .668409 2675 3512)"/><path d="m0-7.5h198.98" stroke="#7e5517" transform="matrix(.668409 .743794 .743794 -.668409 170 3914)"/><path d="m0-7.5h198.98" stroke="#7e5517" transform="matrix(.668409 .743794 .743794 -.668409 3001 3914)"/><path d="m0-7.5h198.98" stroke="#7e5517" transform="matrix(.668409 .743794 .743794 -.668409 3801 3914)"/><path d="m0-7.5h198.98" stroke="#7e5517" transform="matrix(.668409 .743794 .743794 -.668409 1226 3914)"/><path d="m0-7.5h198.98" stroke="#7e5517" transform="matrix(.668409 .743794 .743794 -.668409 698 3914)"/><path d="m0-7.5h198.98" stroke="#7e5517" transform="matrix(.668409 .743794 .743794 -.668409 3401 3914)"/><path d="m0-7.5h198.98" stroke="#7e5517" transform="matrix(.668409 .743794 .743794 -.668409 4201 3914)"/><path d="m0-7.5h198.98" stroke="#7e5517" transform="matrix(.668409 .743794 .743794 -.668409 4601 3914)"/><path d="m0-7.5h198.98" stroke="#7e5517" transform="matrix(.668409 .743794 .743794 -.668409 1754 3914)"/><path d="m0-7.5h198.98" stroke="#7e5517" transform="matrix(.668409 .743794 .743794 -.668409 2282 3914)"/><path d="m563.578 3919.01-133 148" stroke="#7e5517"/><path d="m3330.58 3919.01-133 148" stroke="#7e5517"/><path d="m4130.58 3919.01-133 148" stroke="#7e5517"/><path d="m1619.58 3919.01-133 148" stroke="#7e5517"/><path d="m1091.58 3919.01-133.002 148" stroke="#7e5517"/><path d="m3730.58 3919.01-133 148" stroke="#7e5517"/><path d="m4530.58 3919.01-133 148" stroke="#7e5517"/><path d="m4930.58 3919.01-133 148" stroke="#7e5517"/><path d="m2147.58 3919.01-133 148" stroke="#7e5517"/><path d="m2675.58 3919.01-133 148" stroke="#7e5517"/><path d="m159.422 3445.99 133-148" stroke="#7e5517"/><path d="m2990.42 3445.99 133-148" stroke="#7e5517"/><path d="m3790.42 3445.99 133-148" stroke="#7e5517"/><path d="m1215.42 3445.99 133-148" stroke="#7e5517"/><path d="m687.422 3445.99 133-148" stroke="#7e5517"/><path d="m3390.42 3445.99 133-148" stroke="#7e5517"/><path d="m4190.42 3445.99 133-148" stroke="#7e5517"/><path d="m4590.42 3445.99 133-148" stroke="#7e5517"/><path d="m1743.42 3445.99 133-148" stroke="#7e5517"/><path d="m2271.42 3445.99 133-148" stroke="#7e5517"/><path d="m0-7.5h198.98" stroke="#7e5517" transform="matrix(-.668409 -.743794 -.743794 .668409 563 3451)"/><path d="m0-7.5h198.98" stroke="#7e5517" transform="matrix(-.668409 -.743794 -.743794 .668409 3330 3451)"/><path d="m0-7.5h198.98" stroke="#7e5517" transform="matrix(-.668409 -.743794 -.743794 .668409 4130 3451)"/><path d="m0-7.5h198.98" stroke="#7e5517" transform="matrix(-.668409 -.743794 -.743794 .668409 1619 3451)"/><path d="m0-7.5h198.98" stroke="#7e5517" transform="matrix(-.668409 -.743794 -.743794 .668409 1091 3451)"/><path d="m0-7.5h198.98" stroke="#7e5517" transform="matrix(-.668409 -.743794 -.743794 .668409 3730 3451)"/><path d="m0-7.5h198.98" stroke="#7e5517" transform="matrix(-.668409 -.743794 -.743794 .668409 4530 3451)"/><path d="m0-7.5h198.98" stroke="#7e5517" transform="matrix(-.668409 -.743794 -.743794 .668409 4930 3451)"/><path d="m0-7.5h198.98" stroke="#7e5517" transform="matrix(-.668409 -.743794 -.743794 .668409 2147 3451)"/><path d="m0-7.5h198.98" stroke="#7e5517" transform="matrix(-.668409 -.743794 -.743794 .668409 2675 3451)"/><path d="m0-7.5h198.98" stroke="#7e5517" transform="matrix(.668409 .743794 .743794 -.668409 170 3975)"/><path d="m0-7.5h198.98" stroke="#7e5517" transform="matrix(.668409 .743794 .743794 -.668409 3001 3975)"/><path d="m0-7.5h198.98" stroke="#7e5517" transform="matrix(.668409 .743794 .743794 -.668409 3801 3975)"/><path d="m0-7.5h198.98" stroke="#7e5517" transform="matrix(.668409 .743794 .743794 -.668409 1226 3975)"/><path d="m0-7.5h198.98" stroke="#7e5517" transform="matrix(.668409 .743794 .743794 -.668409 698 3975)"/><path d="m0-7.5h198.98" stroke="#7e5517" transform="matrix(.668409 .743794 .743794 -.668409 3401 3975)"/><path d="m0-7.5h198.98" stroke="#7e5517" transform="matrix(.668409 .743794 .743794 -.668409 4201 3975)"/><path d="m0-7.5h198.98" stroke="#7e5517" transform="matrix(.668409 .743794 .743794 -.668409 4601 3975)"/><path d="m0-7.5h198.98" stroke="#7e5517" transform="matrix(.668409 .743794 .743794 -.668409 1754 3975)"/><path d="m0-7.5h198.98" stroke="#7e5517" transform="matrix(.668409 .743794 .743794 -.668409 2282 3975)"/><path d="m563.578 3980.01-133 148" stroke="#7e5517"/><path d="m3330.58 3980.01-133 148" stroke="#7e5517"/><path d="m4130.58 3980.01-133 148" stroke="#7e5517"/><path d="m1619.58 3980.01-133 148" stroke="#7e5517"/><path d="m1091.58 3980.01-133.002 148" stroke="#7e5517"/><path d="m3730.58 3980.01-133 148" stroke="#7e5517"/><path d="m4530.58 3980.01-133 148" stroke="#7e5517"/><path d="m4930.58 3980.01-133 148" stroke="#7e5517"/><path d="m2147.58 3980.01-133 148" stroke="#7e5517"/><path d="m2675.58 3980.01-133 148" stroke="#7e5517"/><path d="m159.422 3386.99 133-148" stroke="#7e5517"/><path d="m2990.42 3386.99 133-148" stroke="#7e5517"/><path d="m3790.42 3386.99 133-148" stroke="#7e5517"/><path d="m1215.42 3386.99 133-148" stroke="#7e5517"/><path d="m687.422 3386.99 133-148" stroke="#7e5517"/><path d="m3390.42 3386.99 133-148" stroke="#7e5517"/><path d="m4190.42 3386.99 133-148" stroke="#7e5517"/><path d="m4590.42 3386.99 133-148" stroke="#7e5517"/><path d="m1743.42 3386.99 133-148" stroke="#7e5517"/><path d="m2271.42 3386.99 133-148" stroke="#7e5517"/><path d="m0-7.5h198.98" stroke="#7e5517" transform="matrix(-.668409 -.743794 -.743794 .668409 563 3392)"/><path d="m0-7.5h198.98" stroke="#7e5517" transform="matrix(-.668409 -.743794 -.743794 .668409 3330 3392)"/><path d="m0-7.5h198.98" stroke="#7e5517" transform="matrix(-.668409 -.743794 -.743794 .668409 4130 3392)"/><path d="m0-7.5h198.98" stroke="#7e5517" transform="matrix(-.668409 -.743794 -.743794 .668409 1619 3392)"/><path d="m0-7.5h198.98" stroke="#7e5517" transform="matrix(-.668409 -.743794 -.743794 .668409 1091 3392)"/><path d="m0-7.5h198.98" stroke="#7e5517" transform="matrix(-.668409 -.743794 -.743794 .668409 3730 3392)"/><path d="m0-7.5h198.98" stroke="#7e5517" transform="matrix(-.668409 -.743794 -.743794 .668409 4530 3392)"/><path d="m0-7.5h198.98" stroke="#7e5517" transform="matrix(-.668409 -.743794 -.743794 .668409 4930 3392)"/><path d="m0-7.5h198.98" stroke="#7e5517" transform="matrix(-.668409 -.743794 -.743794 .668409 2147 3392)"/><path d="m0-7.5h198.98" stroke="#7e5517" transform="matrix(-.668409 -.743794 -.743794 .668409 2675 3392)"/><path d="m0-7.5h198.98" stroke="#7e5517" transform="matrix(.668409 .743794 .743794 -.668409 170 4034)"/><path d="m0-7.5h198.98" stroke="#7e5517" transform="matrix(.668409 .743794 .743794 -.668409 3001 4034)"/><path d="m0-7.5h198.98" stroke="#7e5517" transform="matrix(.668409 .743794 .743794 -.668409 3801 4034)"/><path d="m0-7.5h198.98" stroke="#7e5517" transform="matrix(.668409 .743794 .743794 -.668409 1226 4034)"/><path d="m0-7.5h198.98" stroke="#7e5517" transform="matrix(.668409 .743794 .743794 -.668409 698 4034)"/><path d="m0-7.5h198.98" stroke="#7e5517" transform="matrix(.668409 .743794 .743794 -.668409 3401 4034)"/><path d="m0-7.5h198.98" stroke="#7e5517" transform="matrix(.668409 .743794 .743794 -.668409 4201 4034)"/><path d="m0-7.5h198.98" stroke="#7e5517" transform="matrix(.668409 .743794 .743794 -.668409 4601 4034)"/><path d="m0-7.5h198.98" stroke="#7e5517" transform="matrix(.668409 .743794 .743794 -.668409 1754 4034)"/><path d="m0-7.5h198.98" stroke="#7e5517" transform="matrix(.668409 .743794 .743794 -.668409 2282 4034)"/><path d="m563.578 4039.01-133 148" stroke="#7e5517"/><path d="m3330.58 4039.01-133 148" stroke="#7e5517"/><path d="m4130.58 4039.01-133 148" stroke="#7e5517"/><path d="m1619.58 4039.01-133 148" stroke="#7e5517"/><path d="m1091.58 4039.01-133.002 148" stroke="#7e5517"/><path d="m3730.58 4039.01-133 148" stroke="#7e5517"/><path d="m4530.58 4039.01-133 148" stroke="#7e5517"/><path d="m4930.58 4039.01-133 148" stroke="#7e5517"/><path d="m2147.58 4039.01-133 148" stroke="#7e5517"/><path d="m2675.58 4039.01-133 148" stroke="#7e5517"/><path d="m153.422 3327.99 133-148" stroke="#7e5517"/><path d="m2984.42 3327.99 133-148" stroke="#7e5517"/><path d="m3784.42 3327.99 133-148" stroke="#7e5517"/><path d="m1209.42 3327.99 133-148" stroke="#7e5517"/><path d="m681.422 3327.99 133-148" stroke="#7e5517"/><path d="m3384.42 3327.99 133-148" stroke="#7e5517"/><path d="m4184.42 3327.99 133-148" stroke="#7e5517"/><path d="m4584.42 3327.99 133-148" stroke="#7e5517"/><path d="m1737.42 3327.99 133-148" stroke="#7e5517"/><path d="m2265.42 3327.99 133-148" stroke="#7e5517"/><path d="m0-7.5h198.98" stroke="#7e5517" transform="matrix(-.668409 -.743794 -.743794 .668409 569 3333)"/><path d="m0-7.5h198.98" stroke="#7e5517" transform="matrix(-.668409 -.743794 -.743794 .668409 3336 3333)"/><path d="m0-7.5h198.98" stroke="#7e5517" transform="matrix(-.668409 -.743794 -.743794 .668409 4136 3333)"/><path d="m0-7.5h198.98" stroke="#7e5517" transform="matrix(-.668409 -.743794 -.743794 .668409 1625 3333)"/><path d="m0-7.5h198.98" stroke="#7e5517" transform="matrix(-.668409 -.743794 -.743794 .668409 1097 3333)"/><path d="m0-7.5h198.98" stroke="#7e5517" transform="matrix(-.668409 -.743794 -.743794 .668409 3736 3333)"/><path d="m0-7.5h198.98" stroke="#7e5517" transform="matrix(-.668409 -.743794 -.743794 .668409 4536 3333)"/><path d="m0-7.5h198.98" stroke="#7e5517" transform="matrix(-.668409 -.743794 -.743794 .668409 4936 3333)"/><path d="m0-7.5h198.98" stroke="#7e5517" transform="matrix(-.668409 -.743794 -.743794 .668409 2153 3333)"/><path d="m0-7.5h198.98" stroke="#7e5517" transform="matrix(-.668409 -.743794 -.743794 .668409 2681 3333)"/><path d="m0-7.5h198.98" stroke="#7e5517" transform="matrix(.668409 .743794 .743794 -.668409 164 4093)"/><path d="m0-7.5h198.98" stroke="#7e5517" transform="matrix(.668409 .743794 .743794 -.668409 2995 4093)"/><path d="m0-7.5h198.98" stroke="#7e5517" transform="matrix(.668409 .743794 .743794 -.668409 3795 4093)"/><path d="m0-7.5h198.98" stroke="#7e5517" transform="matrix(.668409 .743794 .743794 -.668409 1220 4093)"/><path d="m0-7.5h198.98" stroke="#7e5517" transform="matrix(.668409 .743794 .743794 -.668409 692 4093)"/><path d="m0-7.5h198.98" stroke="#7e5517" transform="matrix(.668409 .743794 .743794 -.668409 3395 4093)"/><path d="m0-7.5h198.98" stroke="#7e5517" transform="matrix(.668409 .743794 .743794 -.668409 4195 4093)"/><path d="m0-7.5h198.98" stroke="#7e5517" transform="matrix(.668409 .743794 .743794 -.668409 4595 4093)"/><path d="m0-7.5h198.98" stroke="#7e5517" transform="matrix(.668409 .743794 .743794 -.668409 1748 4093)"/><path d="m0-7.5h198.98" stroke="#7e5517" transform="matrix(.668409 .743794 .743794 -.668409 2276 4093)"/><path d="m569.578 4098.01-133 148" stroke="#7e5517"/><path d="m3336.58 4098.01-133 148" stroke="#7e5517"/><path d="m4136.58 4098.01-133 148" stroke="#7e5517"/><path d="m1625.58 4098.01-133 148" stroke="#7e5517"/><path d="m1097.58 4098.01-133.002 148" stroke="#7e5517"/><path d="m3736.58 4098.01-133 148" stroke="#7e5517"/><path d="m4536.58 4098.01-133 148" stroke="#7e5517"/><path d="m4936.58 4098.01-133 148" stroke="#7e5517"/><path d="m2153.58 4098.01-133 148" stroke="#7e5517"/><path d="m2681.58 4098.01-133 148" stroke="#7e5517"/><path d="m159.624 3248.77 71-73" stroke="#7e5517"/><path d="m2990.62 3248.77 71-73" stroke="#7e5517"/><path d="m3790.62 3248.77 71-73" stroke="#7e5517"/><path d="m1215.62 3248.77 71-73" stroke="#7e5517"/><path d="m687.624 3248.77 71-73" stroke="#7e5517"/><path d="m3390.62 3248.77 71-73" stroke="#7e5517"/><path d="m4190.62 3248.77 71-73" stroke="#7e5517"/><path d="m4590.62 3248.77 71-73" stroke="#7e5517"/><path d="m1743.62 3248.77 71-73" stroke="#7e5517"/><path d="m2271.62 3248.77 71-73" stroke="#7e5517"/><path d="m0-7.5h101.833" stroke="#7e5517" transform="matrix(-.697219 -.716859 -.716859 .697219 563 3254)"/><path d="m0-7.5h101.833" stroke="#7e5517" transform="matrix(-.697219 -.716859 -.716859 .697219 3330 3254)"/><path d="m0-7.5h101.833" stroke="#7e5517" transform="matrix(-.697219 -.716859 -.716859 .697219 4130 3254)"/><path d="m0-7.5h101.833" stroke="#7e5517" transform="matrix(-.697219 -.716859 -.716859 .697219 1619 3254)"/><path d="m0-7.5h101.833" stroke="#7e5517" transform="matrix(-.697219 -.716859 -.716859 .697219 1091 3254)"/><path d="m0-7.5h101.833" stroke="#7e5517" transform="matrix(-.697219 -.716859 -.716859 .697219 3730 3254)"/><path d="m0-7.5h101.833" stroke="#7e5517" transform="matrix(-.697219 -.716859 -.716859 .697219 4530 3254)"/><path d="m0-7.5h101.833" stroke="#7e5517" transform="matrix(-.697219 -.716859 -.716859 .697219 4930 3254)"/><path d="m0-7.5h101.833" stroke="#7e5517" transform="matrix(-.697219 -.716859 -.716859 .697219 2147 3254)"/><path d="m0-7.5h101.833" stroke="#7e5517" transform="matrix(-.697219 -.716859 -.716859 .697219 2675 3254)"/><path d="m0-7.5h101.833" stroke="#7e5517" transform="matrix(.697219 .716859 .716859 -.697219 170 4172)"/><path d="m0-7.5h101.833" stroke="#7e5517" transform="matrix(.697219 .716859 .716859 -.697219 3001 4172)"/><path d="m0-7.5h101.833" stroke="#7e5517" transform="matrix(.697219 .716859 .716859 -.697219 3801 4172)"/><path d="m0-7.5h101.833" stroke="#7e5517" transform="matrix(.697219 .716859 .716859 -.697219 1226 4172)"/><path d="m0-7.5h101.833" stroke="#7e5517" transform="matrix(.697219 .716859 .716859 -.697219 698 4172)"/><path d="m0-7.5h101.833" stroke="#7e5517" transform="matrix(.697219 .716859 .716859 -.697219 3401 4172)"/><path d="m0-7.5h101.833" stroke="#7e5517" transform="matrix(.697219 .716859 .716859 -.697219 4201 4172)"/><path d="m0-7.5h101.833" stroke="#7e5517" transform="matrix(.697219 .716859 .716859 -.697219 4601 4172)"/><path d="m0-7.5h101.833" stroke="#7e5517" transform="matrix(.697219 .716859 .716859 -.697219 1754 4172)"/><path d="m0-7.5h101.833" stroke="#7e5517" transform="matrix(.697219 .716859 .716859 -.697219 2282 4172)"/><path d="m563.376 4177.23-71 73" stroke="#7e5517"/><path d="m3330.38 4177.23-71 73" stroke="#7e5517"/><path d="m4130.38 4177.23-71 73" stroke="#7e5517"/><path d="m1619.38 4177.23-71 73" stroke="#7e5517"/><path d="m1091.38 4177.23-71 73" stroke="#7e5517"/><path d="m3730.38 4177.23-71 73" stroke="#7e5517"/><path d="m4530.38 4177.23-71 73" stroke="#7e5517"/><path d="m4930.38 4177.23-71 73" stroke="#7e5517"/><path d="m2147.38 4177.23-71 73" stroke="#7e5517"/><path d="m2675.38 4177.23-71 73" stroke="#7e5517"/><path d="m0-7.5h198.98" stroke="#d5a459" transform="matrix(.668409 .743794 .743794 -.668409 167 3726)"/><path d="m0-7.5h198.98" stroke="#d5a459" transform="matrix(.668409 .743794 .743794 -.668409 2998 3726)"/><path d="m0-7.5h198.98" stroke="#d5a459" transform="matrix(.668409 .743794 .743794 -.668409 3798 3726)"/><path d="m0-7.5h198.98" stroke="#d5a459" transform="matrix(.668409 .743794 .743794 -.668409 1223 3726)"/><path d="m0-7.5h198.98" stroke="#d5a459" transform="matrix(.668409 .743794 .743794 -.668409 695 3726)"/><path d="m0-7.5h198.98" stroke="#d5a459" transform="matrix(.668409 .743794 .743794 -.668409 3398 3726)"/><path d="m0-7.5h198.98" stroke="#d5a459" transform="matrix(.668409 .743794 .743794 -.668409 4198 3726)"/><path d="m0-7.5h198.98" stroke="#d5a459" transform="matrix(.668409 .743794 .743794 -.668409 4598 3726)"/><path d="m0-7.5h198.98" stroke="#d5a459" transform="matrix(.668409 .743794 .743794 -.668409 1751 3726)"/><path d="m0-7.5h198.98" stroke="#d5a459" transform="matrix(.668409 .743794 .743794 -.668409 2279 3726)"/><path d="m566.578 3731.01-133 148" stroke="#d5a459"/><path d="m3333.58 3731.01-133 148" stroke="#d5a459"/><path d="m4133.58 3731.01-133 148" stroke="#d5a459"/><path d="m1622.58 3731.01-133 148" stroke="#d5a459"/><path d="m1094.58 3731.01-133.002 148" stroke="#d5a459"/><path d="m3733.58 3731.01-133 148" stroke="#d5a459"/><path d="m4533.58 3731.01-133 148" stroke="#d5a459"/><path d="m4933.58 3731.01-133 148" stroke="#d5a459"/><path d="m2150.58 3731.01-133 148" stroke="#d5a459"/><path d="m2678.58 3731.01-133 148" stroke="#d5a459"/></g><path d="m158.37 3032.15v-13.04l57.529-91.02h9.46v20.2h-6.392l-43.466 68.78v1.02h77.472v14.06zm61.62 26.85v-30.81-6.07-94.03h15.085v130.91zm69.241 1.02c-3.153 0-5.859-1.13-8.117-3.39-2.259-2.25-3.388-4.96-3.388-8.11 0-3.16 1.129-5.86 3.388-8.12 2.258-2.26 4.964-3.39 8.117-3.39 3.154 0 5.86 1.13 8.118 3.39 2.259 2.26 3.388 4.96 3.388 8.12 0 2.09-.533 4-1.598 5.75-1.023 1.75-2.408 3.15-4.155 4.22-1.704 1.02-3.622 1.53-5.753 1.53zm100.621-1.02v-130.91h78.495v14.06h-62.642v44.24h56.761v14.06h-56.761v58.55zm118.685-130.91v130.91h-15.086v-130.91zm27.629 130.91v-98.18h15.085v98.18zm7.671-114.55c-2.941 0-5.476-1-7.607-3-2.088-2-3.132-4.41-3.132-7.22 0-2.82 1.044-5.22 3.132-7.23 2.131-2 4.666-3 7.607-3 2.94 0 5.454 1 7.542 3 2.131 2.01 3.196 4.41 3.196 7.23 0 2.81-1.065 5.22-3.196 7.22-2.088 2-4.602 3-7.542 3zm35.044 151.37v-135h14.574v15.59h1.79c1.108-1.7 2.642-3.87 4.602-6.52 2.003-2.68 4.858-5.07 8.565-7.15 3.75-2.13 8.821-3.2 15.213-3.2 8.267 0 15.554 2.07 21.861 6.2s11.229 9.99 14.766 17.58c3.537 7.58 5.305 16.53 5.305 26.84 0 10.4-1.768 19.42-5.305 27.04-3.537 7.59-8.438 13.47-14.702 17.65-6.264 4.13-13.487 6.2-21.669 6.2-6.307 0-11.356-1.05-15.149-3.14-3.793-2.13-6.712-4.54-8.757-7.22-2.046-2.73-3.622-4.99-4.73-6.78h-1.279v51.91zm14.83-85.91c0 7.41 1.086 13.96 3.26 19.62 2.173 5.63 5.348 10.04 9.524 13.23 4.176 3.16 9.289 4.73 15.341 4.73 6.306 0 11.569-1.66 15.788-4.98 4.261-3.37 7.457-7.89 9.588-13.55 2.173-5.71 3.26-12.06 3.26-19.05 0-6.9-1.065-13.13-3.196-18.67-2.088-5.58-5.263-9.99-9.524-13.23-4.219-3.28-9.524-4.92-15.916-4.92-6.137 0-11.293 1.56-15.469 4.67-4.176 3.07-7.33 7.37-9.46 12.91-2.131 5.5-3.196 11.91-3.196 19.24zm185.369 51.14c-8.864 0-16.641-2.11-23.331-6.33-6.648-4.22-11.847-10.12-15.597-17.71-3.707-7.58-5.561-16.45-5.561-26.59 0-10.23 1.854-19.15 5.561-26.78 3.75-7.63 8.949-13.55 15.597-17.77 6.69-4.22 14.467-6.33 23.331-6.33s16.619 2.11 23.267 6.33c6.69 4.22 11.889 10.14 15.597 17.77 3.75 7.63 5.625 16.55 5.625 26.78 0 10.14-1.875 19.01-5.625 26.59-3.708 7.59-8.907 13.49-15.597 17.71-6.648 4.22-14.403 6.33-23.267 6.33zm0-13.56c6.733 0 12.273-1.72 16.619-5.17 4.347-3.45 7.564-7.99 9.652-13.62 2.088-5.62 3.132-11.72 3.132-18.28s-1.044-12.68-3.132-18.34c-2.088-5.67-5.305-10.25-9.652-13.75-4.346-3.49-9.886-5.24-16.619-5.24s-12.273 1.75-16.619 5.24c-4.347 3.5-7.564 8.08-9.652 13.75-2.088 5.66-3.133 11.78-3.133 18.34s1.045 12.66 3.133 18.28c2.088 5.63 5.305 10.17 9.652 13.62 4.346 3.45 9.886 5.17 16.619 5.17zm82.601-47.55v59.06h-15.085v-98.18h14.574v15.34h1.278c2.301-4.99 5.796-8.99 10.483-12.02 4.688-3.07 10.739-4.6 18.154-4.6 6.647 0 12.464 1.36 17.45 4.09 4.986 2.69 8.863 6.78 11.633 12.27 2.77 5.46 4.155 12.36 4.155 20.71v62.39h-15.085v-61.36c0-7.72-2.003-13.73-6.009-18.03-4.005-4.35-9.502-6.52-16.491-6.52-4.815 0-9.119 1.04-12.912 3.13-3.75 2.09-6.712 5.14-8.885 9.14-2.173 4.01-3.26 8.87-3.26 14.58zm181.999 61.11c-9.46 0-17.62-2.09-24.48-6.27-6.82-4.22-12.08-10.1-15.79-17.64-3.666-7.59-5.498-16.41-5.498-26.46 0-10.06 1.832-18.92 5.498-26.59 3.71-7.72 8.86-13.73 15.47-18.03 6.65-4.35 14.4-6.52 23.26-6.52 5.12 0 10.17.85 15.15 2.56 4.99 1.7 9.53 4.47 13.62 8.31 4.09 3.79 7.35 8.82 9.78 15.08 2.43 6.27 3.64 13.98 3.64 23.14v6.39h-75.68v-13.04h60.34c0-5.54-1.11-10.48-3.32-14.83-2.18-4.34-5.29-7.77-9.34-10.29-4-2.51-8.73-3.77-14.19-3.77-6 0-11.2 1.49-15.59 4.48-4.35 2.94-7.69 6.77-10.04 11.5-2.34 4.73-3.51 9.8-3.51 15.21v8.7c0 7.41 1.28 13.7 3.83 18.85 2.6 5.12 6.2 9.02 10.8 11.7 4.61 2.64 9.95 3.96 16.05 3.96 3.96 0 7.54-.55 10.74-1.66 3.24-1.15 6.03-2.85 8.37-5.11 2.34-2.3 4.16-5.16 5.43-8.57l14.58 4.09c-1.54 4.95-4.11 9.29-7.74 13.04-3.62 3.71-8.09 6.61-13.42 8.7-5.33 2.04-11.31 3.07-17.96 3.07zm100.67 0c-8.18 0-15.4-2.07-21.67-6.2-6.26-4.18-11.16-10.06-14.7-17.65-3.53-7.62-5.3-16.64-5.3-27.04 0-10.31 1.77-19.26 5.3-26.84 3.54-7.59 8.46-13.45 14.77-17.58s13.59-6.2 21.86-6.2c6.39 0 11.44 1.07 15.15 3.2 3.75 2.08 6.6 4.47 8.56 7.15 2.01 2.65 3.56 4.82 4.67 6.52h1.28v-48.32h15.08v130.91h-14.57v-15.09h-1.79c-1.11 1.79-2.68 4.05-4.73 6.78-2.05 2.68-4.96 5.09-8.76 7.22-3.79 2.09-8.84 3.14-15.15 3.14zm2.05-13.56c6.05 0 11.16-1.57 15.34-4.73 4.18-3.19 7.35-7.6 9.52-13.23 2.18-5.66 3.26-12.21 3.26-19.62 0-7.33-1.06-13.74-3.19-19.24-2.13-5.54-5.29-9.84-9.46-12.91-4.18-3.11-9.33-4.67-15.47-4.67-6.39 0-11.72 1.64-15.98 4.92-4.22 3.24-7.39 7.65-9.53 13.23-2.08 5.54-3.13 11.77-3.13 18.67 0 6.99 1.07 13.34 3.2 19.05 2.17 5.66 5.37 10.18 9.59 13.55 4.26 3.32 9.54 4.98 15.85 4.98zm112.31 50.37c-7.29 0-13.55-.93-18.8-2.81-5.24-1.83-9.6-4.26-13.1-7.29-3.45-2.98-6.2-6.17-8.25-9.58l12.02-8.44c1.37 1.79 3.09 3.83 5.18 6.14 2.09 2.34 4.94 4.36 8.56 6.07 3.67 1.74 8.46 2.62 14.39 2.62 7.92 0 14.46-1.92 19.62-5.75 5.16-3.84 7.73-9.85 7.73-18.03v-19.94h-1.27c-1.11 1.79-2.69 4-4.73 6.64-2.01 2.6-4.9 4.93-8.7 6.97-3.75 2-8.82 3.01-15.21 3.01-7.93 0-15.04-1.88-21.35-5.63-6.26-3.75-11.23-9.2-14.89-16.36-3.62-7.16-5.44-15.86-5.44-26.08 0-10.06 1.77-18.82 5.31-26.27 3.54-7.5 8.46-13.3 14.77-17.39 6.3-4.13 13.59-6.2 21.86-6.2 6.39 0 11.46 1.07 15.21 3.2 3.79 2.08 6.69 4.47 8.69 7.15 2.05 2.65 3.62 4.82 4.73 6.52h1.54v-15.59h14.57v100.99c0 8.44-1.92 15.3-5.75 20.58-3.8 5.33-8.91 9.23-15.34 11.7-6.4 2.52-13.51 3.77-21.35 3.77zm-.51-53.95c6.05 0 11.16-1.38 15.34-4.15 4.17-2.77 7.35-6.75 9.52-11.95s3.26-11.42 3.26-18.67c0-7.07-1.06-13.31-3.2-18.73-2.13-5.41-5.28-9.65-9.46-12.72-4.17-3.07-9.33-4.6-15.46-4.6-6.4 0-11.72 1.62-15.98 4.86-4.22 3.24-7.4 7.58-9.53 13.04-2.09 5.45-3.13 11.5-3.13 18.15 0 6.82 1.06 12.85 3.2 18.09 2.17 5.2 5.36 9.29 9.58 12.27 4.26 2.94 9.55 4.41 15.86 4.41zm111.73 17.14c-9.46 0-17.62-2.09-24.48-6.27-6.82-4.22-12.08-10.1-15.79-17.64-3.67-7.59-5.5-16.41-5.5-26.46 0-10.06 1.83-18.92 5.5-26.59 3.71-7.72 8.86-13.73 15.47-18.03 6.65-4.35 14.4-6.52 23.26-6.52 5.12 0 10.17.85 15.15 2.56 4.99 1.7 9.53 4.47 13.62 8.31 4.09 3.79 7.35 8.82 9.78 15.08 2.43 6.27 3.64 13.98 3.64 23.14v6.39h-75.68v-13.04h60.34c0-5.54-1.11-10.48-3.32-14.83-2.18-4.34-5.29-7.77-9.34-10.29-4-2.51-8.73-3.77-14.19-3.77-6 0-11.2 1.49-15.59 4.48-4.35 2.94-7.69 6.77-10.04 11.5-2.34 4.73-3.51 9.8-3.51 15.21v8.7c0 7.41 1.28 13.7 3.83 18.85 2.6 5.12 6.2 9.02 10.8 11.7 4.61 2.64 9.95 3.96 16.05 3.96 3.96 0 7.54-.55 10.74-1.66 3.24-1.15 6.03-2.85 8.37-5.11 2.34-2.3 4.16-5.16 5.43-8.57l14.58 4.09c-1.54 4.95-4.11 9.29-7.74 13.04-3.62 3.71-8.09 6.61-13.42 8.7-5.33 2.04-11.31 3.07-17.96 3.07zm86.1-19.95-1.02 6.91c-.73 4.85-1.84 10.05-3.33 15.59-1.45 5.54-2.96 10.76-4.54 15.66-1.57 4.9-2.87 8.8-3.89 11.7h-11.51c.55-2.73 1.28-6.33 2.17-10.8.9-4.48 1.79-9.48 2.69-15.02.94-5.5 1.7-11.13 2.3-16.88l.77-7.16zm107.47 20.2c-6.23 0-11.87-1.17-16.94-3.51-5.07-2.39-9.1-5.82-12.08-10.3-2.99-4.51-4.48-9.97-4.48-16.36 0-5.62 1.11-10.18 3.33-13.68 2.21-3.54 5.17-6.31 8.88-8.31s7.8-3.49 12.27-4.47c4.52-1.03 9.06-1.83 13.62-2.43 5.96-.77 10.8-1.34 14.51-1.73 3.75-.42 6.48-1.13 8.18-2.11 1.75-.98 2.62-2.68 2.62-5.11v-.51c0-6.31-1.73-11.21-5.18-14.7-3.41-3.5-8.58-5.24-15.53-5.24-7.2 0-12.85 1.57-16.94 4.73-4.09 3.15-6.97 6.52-8.63 10.09l-14.32-5.11c2.56-5.96 5.97-10.61 10.23-13.93 4.31-3.37 8.99-5.71 14.06-7.03 5.12-1.37 10.15-2.05 15.09-2.05 3.15 0 6.77.38 10.87 1.15 4.13.72 8.11 2.24 11.95 4.54 3.88 2.3 7.09 5.77 9.65 10.42 2.56 4.64 3.84 10.86 3.84 18.66v64.69h-15.09v-13.3h-.77c-1.02 2.14-2.72 4.42-5.11 6.84-2.39 2.43-5.56 4.5-9.52 6.2-3.97 1.71-8.8 2.56-14.51 2.56zm2.3-13.55c5.96 0 10.99-1.17 15.08-3.52 4.14-2.34 7.25-5.36 9.33-9.07 2.14-3.71 3.2-7.61 3.2-11.7v-13.81c-.64.77-2.04 1.47-4.22 2.11-2.13.6-4.6 1.13-7.41 1.6-2.77.43-5.48.81-8.12 1.15-2.6.3-4.71.56-6.33.77-3.92.51-7.58 1.34-10.99 2.49-3.37 1.11-6.1 2.79-8.19 5.05-2.04 2.22-3.06 5.24-3.06 9.08 0 5.24 1.94 9.2 5.81 11.89 3.92 2.64 8.89 3.96 14.9 3.96zm85.31-119.66v130.91h-15.08v-130.91zm70.33 32.73v12.78h-50.88v-12.78zm-36.05-23.52h15.09v93.58c0 4.26.62 7.45 1.85 9.58 1.28 2.09 2.9 3.5 4.86 4.22 2 .68 4.11 1.02 6.33 1.02 1.66 0 3.02-.08 4.09-.25 1.06-.21 1.92-.38 2.55-.51l3.07 13.55c-1.02.38-2.45.77-4.28 1.15-1.83.43-4.15.64-6.97.64-4.26 0-8.43-.92-12.53-2.75-4.04-1.83-7.41-4.62-10.09-8.37-2.65-3.75-3.97-8.48-3.97-14.19zm98.86 123.75c-9.47 0-17.63-2.09-24.49-6.27-6.81-4.22-12.08-10.1-15.78-17.64-3.67-7.59-5.5-16.41-5.5-26.46 0-10.06 1.83-18.92 5.5-26.59 3.7-7.72 8.86-13.73 15.46-18.03 6.65-4.35 14.41-6.52 23.27-6.52 5.11 0 10.16.85 15.15 2.56 4.99 1.7 9.52 4.47 13.62 8.31 4.09 3.79 7.35 8.82 9.77 15.08 2.43 6.27 3.65 13.98 3.65 23.14v6.39h-75.68v-13.04h60.34c0-5.54-1.11-10.48-3.33-14.83-2.17-4.34-5.28-7.77-9.33-10.29-4-2.51-8.73-3.77-14.19-3.77-6.01 0-11.21 1.49-15.6 4.48-4.34 2.94-7.69 6.77-10.03 11.5s-3.52 9.8-3.52 15.21v8.7c0 7.41 1.28 13.7 3.84 18.85 2.6 5.12 6.2 9.02 10.8 11.7 4.6 2.64 9.95 3.96 16.05 3.96 3.96 0 7.54-.55 10.73-1.66 3.24-1.15 6.03-2.85 8.38-5.11 2.34-2.3 4.15-5.16 5.43-8.57l14.57 4.09c-1.53 4.95-4.11 9.29-7.73 13.04-3.62 3.71-8.1 6.61-13.42 8.7-5.33 2.04-11.32 3.07-17.96 3.07zm63.6-2.05v-98.18h14.57v14.83h1.02c1.79-4.86 5.03-8.8 9.72-11.83 4.69-3.02 9.97-4.54 15.85-4.54 1.11 0 2.49.03 4.16.07 1.66.04 2.91.1 3.77.19v15.34c-.51-.13-1.69-.32-3.52-.57-1.79-.3-3.68-.45-5.69-.45-4.77 0-9.03 1-12.78 3-3.71 1.96-6.65 4.69-8.82 8.18-2.13 3.46-3.2 7.4-3.2 11.83v62.13zm82.05-59.06v59.06h-15.08v-98.18h14.57v15.34h1.28c2.3-4.99 5.8-8.99 10.48-12.02 4.69-3.07 10.74-4.6 18.16-4.6 6.64 0 12.46 1.36 17.45 4.09 4.98 2.69 8.86 6.78 11.63 12.27 2.77 5.46 4.16 12.36 4.16 20.71v62.39h-15.09v-61.36c0-7.72-2-13.73-6.01-18.03-4-4.35-9.5-6.52-16.49-6.52-4.81 0-9.12 1.04-12.91 3.13-3.75 2.09-6.71 5.14-8.89 9.14-2.17 4.01-3.26 8.87-3.26 14.58zm119.1 61.36c-6.22 0-11.86-1.17-16.94-3.51-5.07-2.39-9.09-5.82-12.08-10.3-2.98-4.51-4.47-9.97-4.47-16.36 0-5.62 1.11-10.18 3.32-13.68 2.22-3.54 5.18-6.31 8.89-8.31s7.8-3.49 12.27-4.47c4.52-1.03 9.06-1.83 13.62-2.43 5.96-.77 10.8-1.34 14.51-1.73 3.75-.42 6.47-1.13 8.18-2.11 1.74-.98 2.62-2.68 2.62-5.11v-.51c0-6.31-1.73-11.21-5.18-14.7-3.41-3.5-8.59-5.24-15.53-5.24-7.2 0-12.85 1.57-16.94 4.73-4.09 3.15-6.97 6.52-8.63 10.09l-14.32-5.11c2.56-5.96 5.97-10.61 10.23-13.93 4.3-3.37 8.99-5.71 14.06-7.03 5.12-1.37 10.14-2.05 15.09-2.05 3.15 0 6.77.38 10.86 1.15 4.14.72 8.12 2.24 11.96 4.54 3.87 2.3 7.09 5.77 9.65 10.42 2.56 4.64 3.83 10.86 3.83 18.66v64.69h-15.08v-13.3h-.77c-1.02 2.14-2.73 4.42-5.11 6.84-2.39 2.43-5.56 4.5-9.53 6.2-3.96 1.71-8.8 2.56-14.51 2.56zm2.3-13.55c5.97 0 11-1.17 15.09-3.52 4.13-2.34 7.24-5.36 9.33-9.07 2.13-3.71 3.2-7.61 3.2-11.7v-13.81c-.64.77-2.05 1.47-4.22 2.11-2.13.6-4.6 1.13-7.42 1.6-2.77.43-5.47.81-8.11 1.15-2.6.3-4.71.56-6.33.77-3.92.51-7.59 1.34-11 2.49-3.36 1.11-6.09 2.79-8.18 5.05-2.04 2.22-3.07 5.24-3.07 9.08 0 5.24 1.94 9.2 5.82 11.89 3.92 2.64 8.89 3.96 14.89 3.96zm112.94-86.93v12.78h-50.88v-12.78zm-36.05-23.52h15.08v93.58c0 4.26.62 7.45 1.85 9.58 1.28 2.09 2.9 3.5 4.86 4.22 2 .68 4.11 1.02 6.33 1.02 1.66 0 3.03-.08 4.09-.25 1.07-.21 1.92-.38 2.56-.51l3.07 13.55c-1.03.38-2.45.77-4.29 1.15-1.83.43-4.15.64-6.96.64-4.27 0-8.44-.92-12.53-2.75-4.05-1.83-7.42-4.62-10.1-8.37-2.64-3.75-3.96-8.48-3.96-14.19zm58.74 121.7v-98.18h15.08v98.18zm7.67-114.55c-2.94 0-5.48-1-7.61-3-2.09-2-3.13-4.41-3.13-7.22 0-2.82 1.04-5.22 3.13-7.23 2.13-2 4.67-3 7.61-3s5.45 1 7.54 3c2.13 2.01 3.2 4.41 3.2 7.23 0 2.81-1.07 5.22-3.2 7.22-2.09 2-4.6 3-7.54 3zm50.13 55.49v59.06h-15.09v-98.18h14.58v15.34h1.28c2.3-4.99 5.79-8.99 10.48-12.02 4.69-3.07 10.74-4.6 18.15-4.6 6.65 0 12.47 1.36 17.45 4.09 4.99 2.69 8.87 6.78 11.64 12.27 2.77 5.46 4.15 12.36 4.15 20.71v62.39h-15.09v-61.36c0-7.72-2-13.73-6-18.03-4.01-4.35-9.51-6.52-16.5-6.52-4.81 0-9.11 1.04-12.91 3.13-3.75 2.09-6.71 5.14-8.88 9.14-2.18 4.01-3.26 8.87-3.26 14.58zm129.84 97.92c-7.29 0-13.55-.93-18.8-2.81-5.24-1.83-9.61-4.26-13.1-7.29-3.45-2.98-6.2-6.17-8.25-9.58l12.02-8.44c1.37 1.79 3.09 3.83 5.18 6.14 2.09 2.34 4.94 4.36 8.56 6.07 3.67 1.74 8.46 2.62 14.39 2.62 7.92 0 14.46-1.92 19.62-5.75 5.16-3.84 7.73-9.85 7.73-18.03v-19.94h-1.27c-1.11 1.79-2.69 4-4.73 6.64-2.01 2.6-4.9 4.93-8.7 6.97-3.75 2-8.82 3.01-15.21 3.01-7.93 0-15.04-1.88-21.35-5.63-6.26-3.75-11.23-9.2-14.89-16.36-3.63-7.16-5.44-15.86-5.44-26.08 0-10.06 1.77-18.82 5.31-26.27 3.54-7.5 8.46-13.3 14.76-17.39 6.31-4.13 13.6-6.2 21.87-6.2 6.39 0 11.46 1.07 15.21 3.2 3.79 2.08 6.69 4.47 8.69 7.15 2.05 2.65 3.62 4.82 4.73 6.52h1.54v-15.59h14.57v100.99c0 8.44-1.92 15.3-5.75 20.58-3.8 5.33-8.91 9.23-15.34 11.7-6.4 2.52-13.51 3.77-21.35 3.77zm-.51-53.95c6.05 0 11.16-1.38 15.34-4.15 4.17-2.77 7.35-6.75 9.52-11.95s3.26-11.42 3.26-18.67c0-7.07-1.07-13.31-3.2-18.73-2.13-5.41-5.28-9.65-9.46-12.72-4.17-3.07-9.33-4.6-15.46-4.6-6.4 0-11.72 1.62-15.99 4.86-4.21 3.24-7.39 7.58-9.52 13.04-2.09 5.45-3.13 11.5-3.13 18.15 0 6.82 1.06 12.85 3.19 18.09 2.18 5.2 5.37 9.29 9.59 12.27 4.26 2.94 9.55 4.41 15.86 4.41z" fill="#000"/><path d="m3057.67 3049.79c-7.5 0-14.25-1.49-20.26-4.47-6.01-2.99-10.83-7.08-14.45-12.28s-5.6-11.12-5.94-17.77h15.34c.6 5.93 3.28 10.83 8.05 14.7 4.82 3.84 10.57 5.76 17.26 5.76 5.37 0 10.14-1.26 14.32-3.77 4.22-2.52 7.52-5.97 9.91-10.36 2.43-4.43 3.64-9.44 3.64-15.02 0-5.71-1.26-10.8-3.77-15.28-2.47-4.51-5.88-8.07-10.23-10.67-4.34-2.6-9.31-3.92-14.89-3.97-4.01-.04-8.12.58-12.34 1.86-4.22 1.23-7.69 2.83-10.42 4.79l-14.83-1.79 7.93-64.43h68.01v14.06h-54.71l-4.61 38.61h.77c2.68-2.13 6.05-3.9 10.1-5.3 4.05-1.41 8.27-2.11 12.66-2.11 8.01 0 15.14 1.91 21.41 5.75 6.31 3.79 11.25 8.99 14.83 15.6 3.62 6.6 5.43 14.14 5.43 22.62 0 8.36-1.87 15.81-5.62 22.38-3.71 6.52-8.82 11.67-15.34 15.46-6.52 3.75-13.94 5.63-22.25 5.63zm83.56-.77c-3.15 0-5.86-1.13-8.12-3.39-2.26-2.25-3.38-4.96-3.38-8.11 0-3.16 1.12-5.86 3.38-8.12s4.97-3.39 8.12-3.39 5.86 1.13 8.12 3.39 3.39 4.96 3.39 8.12c0 2.09-.54 4-1.6 5.75-1.02 1.75-2.41 3.15-4.16 4.22-1.7 1.02-3.62 1.53-5.75 1.53zm190.11-91.02c-1.41-4.3-3.26-8.16-5.56-11.57-2.26-3.45-4.96-6.39-8.12-8.82-3.11-2.43-6.65-4.28-10.61-5.56s-8.31-1.92-13.04-1.92c-7.75 0-14.81 2-21.16 6.01-6.35 4-11.4 9.91-15.15 17.71-3.75 7.79-5.62 17.36-5.62 28.7 0 11.33 1.9 20.9 5.69 28.7 3.79 7.79 8.93 13.7 15.4 17.7 6.48 4.01 13.77 6.01 21.86 6.01 7.5 0 14.11-1.6 19.82-4.79 5.75-3.24 10.23-7.8 13.42-13.68 3.24-5.93 4.86-12.89 4.86-20.9l4.86 1.02h-39.38v-14.06h49.86v14.06c0 10.78-2.3 20.15-6.9 28.12-4.56 7.97-10.87 14.15-18.92 18.54-8.01 4.35-17.22 6.52-27.62 6.52-11.59 0-21.77-2.73-30.55-8.18-8.74-5.46-15.55-13.21-20.45-23.27-4.86-10.06-7.29-21.99-7.29-35.79 0-10.36 1.38-19.67 4.15-27.94 2.82-8.31 6.78-15.38 11.89-21.22 5.12-5.84 11.17-10.31 18.16-13.42 6.98-3.11 14.68-4.67 23.07-4.67 6.9 0 13.34 1.05 19.31 3.13 6 2.05 11.35 4.97 16.04 8.76 4.73 3.75 8.67 8.25 11.82 13.49 3.16 5.2 5.33 10.97 6.52 17.32zm57.32-40.91v130.91h-15.08v-130.91zm89.51 90.77v-58.04h15.08v98.18h-15.08v-16.62h-1.03c-2.3 4.99-5.88 9.23-10.74 12.72-4.85 3.45-10.99 5.18-18.4 5.18-6.14 0-11.6-1.34-16.37-4.03-4.77-2.73-8.52-6.82-11.25-12.27-2.73-5.5-4.09-12.42-4.09-20.78v-62.38h15.09v61.36c0 7.16 2 12.87 6 17.13 4.05 4.26 9.21 6.39 15.47 6.39 3.75 0 7.57-.95 11.45-2.87 3.92-1.92 7.2-4.86 9.84-8.82 2.68-3.97 4.03-9.02 4.03-15.15zm83.88 42.19c-9.46 0-17.62-2.09-24.49-6.27-6.81-4.22-12.08-10.1-15.78-17.64-3.67-7.59-5.5-16.41-5.5-26.46 0-10.06 1.83-18.92 5.5-26.59 3.7-7.72 8.86-13.73 15.46-18.03 6.65-4.35 14.41-6.52 23.27-6.52 5.12 0 10.17.85 15.15 2.56 4.99 1.7 9.53 4.47 13.62 8.31 4.09 3.79 7.35 8.82 9.78 15.08 2.42 6.27 3.64 13.98 3.64 23.14v6.39h-75.68v-13.04h60.34c0-5.54-1.11-10.48-3.33-14.83-2.17-4.34-5.28-7.77-9.33-10.29-4-2.51-8.73-3.77-14.19-3.77-6.01 0-11.21 1.49-15.59 4.48-4.35 2.94-7.7 6.77-10.04 11.5s-3.52 9.8-3.52 15.21v8.7c0 7.41 1.28 13.7 3.84 18.85 2.6 5.12 6.2 9.02 10.8 11.7 4.6 2.64 9.95 3.96 16.05 3.96 3.96 0 7.54-.55 10.73-1.66 3.24-1.15 6.03-2.85 8.38-5.11 2.34-2.3 4.15-5.16 5.43-8.57l14.58 4.09c-1.54 4.95-4.12 9.29-7.74 13.04-3.62 3.71-8.1 6.61-13.42 8.7-5.33 2.04-11.32 3.07-17.96 3.07zm114.22-2.05v-98.18h15.09v98.18zm7.67-114.55c-2.94 0-5.47-1-7.6-3-2.09-2-3.14-4.41-3.14-7.22 0-2.82 1.05-5.22 3.14-7.23 2.13-2 4.66-3 7.6-3s5.46 1 7.54 3c2.14 2.01 3.2 4.41 3.2 7.23 0 2.81-1.06 5.22-3.2 7.22-2.08 2-4.6 3-7.54 3zm77.75 16.37v12.78h-50.89v-12.78zm-36.06-23.52h15.09v93.58c0 4.26.62 7.45 1.85 9.58 1.28 2.09 2.9 3.5 4.86 4.22 2 .68 4.11 1.02 6.33 1.02 1.66 0 3.02-.08 4.09-.25 1.07-.21 1.92-.38 2.56-.51l3.07 13.55c-1.03.38-2.46.77-4.29 1.15-1.83.43-4.15.64-6.96.64-4.27 0-8.44-.92-12.53-2.75-4.05-1.83-7.42-4.62-10.1-8.37-2.64-3.75-3.97-8.48-3.97-14.19zm138.26 124c-6.22 0-11.86-1.17-16.93-3.51-5.08-2.39-9.1-5.82-12.09-10.3-2.98-4.51-4.47-9.97-4.47-16.36 0-5.62 1.11-10.18 3.32-13.68 2.22-3.54 5.18-6.31 8.89-8.31s7.8-3.49 12.27-4.47c4.52-1.03 9.06-1.83 13.62-2.43 5.96-.77 10.8-1.34 14.51-1.73 3.75-.42 6.47-1.13 8.18-2.11 1.75-.98 2.62-2.68 2.62-5.11v-.51c0-6.31-1.73-11.21-5.18-14.7-3.41-3.5-8.59-5.24-15.53-5.24-7.2 0-12.85 1.57-16.94 4.73-4.09 3.15-6.97 6.52-8.63 10.09l-14.32-5.11c2.56-5.96 5.97-10.61 10.23-13.93 4.3-3.37 8.99-5.71 14.06-7.03 5.12-1.37 10.14-2.05 15.09-2.05 3.15 0 6.77.38 10.86 1.15 4.14.72 8.12 2.24 11.96 4.54 3.87 2.3 7.09 5.77 9.65 10.42 2.56 4.64 3.83 10.86 3.83 18.66v64.69h-15.08v-13.3h-.77c-1.02 2.14-2.73 4.42-5.11 6.84-2.39 2.43-5.56 4.5-9.53 6.2-3.96 1.71-8.8 2.56-14.51 2.56zm2.31-13.55c5.96 0 10.99-1.17 15.08-3.52 4.13-2.34 7.24-5.36 9.33-9.07 2.13-3.71 3.2-7.61 3.2-11.7v-13.81c-.64.77-2.05 1.47-4.22 2.11-2.13.6-4.6 1.13-7.41 1.6-2.77.43-5.48.81-8.12 1.15-2.6.3-4.71.56-6.33.77-3.92.51-7.59 1.34-10.99 2.49-3.37 1.11-6.1 2.79-8.19 5.05-2.04 2.22-3.06 5.24-3.06 9.08 0 5.24 1.93 9.2 5.81 11.89 3.92 2.64 8.89 3.96 14.9 3.96zm85.31-119.66v130.91h-15.08v-130.91zm42.72 0v130.91h-15.09v-130.91zm120.95 32.73v12.78h-50.88v-12.78zm-36.05-23.52h15.09v93.58c0 4.26.61 7.45 1.85 9.58 1.28 2.09 2.9 3.5 4.86 4.22 2 .68 4.11 1.02 6.33 1.02 1.66 0 3.02-.08 4.09-.25 1.06-.21 1.91-.38 2.55-.51l3.07 13.55c-1.02.38-2.45.77-4.28 1.15-1.83.43-4.16.64-6.97.64-4.26 0-8.44-.92-12.53-2.75-4.05-1.83-7.41-4.62-10.1-8.37-2.64-3.75-3.96-8.48-3.96-14.19zm97.57 123.75c-8.86 0-16.64-2.11-23.33-6.33-6.64-4.22-11.84-10.12-15.59-17.71-3.71-7.58-5.56-16.45-5.56-26.59 0-10.23 1.85-19.15 5.56-26.78 3.75-7.63 8.95-13.55 15.59-17.77 6.69-4.22 14.47-6.33 23.33-6.33 8.87 0 16.62 2.11 23.27 6.33 6.69 4.22 11.89 10.14 15.6 17.77 3.75 7.63 5.62 16.55 5.62 26.78 0 10.14-1.87 19.01-5.62 26.59-3.71 7.59-8.91 13.49-15.6 17.71-6.65 4.22-14.4 6.33-23.27 6.33zm0-13.56c6.74 0 12.28-1.72 16.62-5.17 4.35-3.45 7.57-7.99 9.66-13.62 2.08-5.62 3.13-11.72 3.13-18.28s-1.05-12.68-3.13-18.34c-2.09-5.67-5.31-10.25-9.66-13.75-4.34-3.49-9.88-5.24-16.62-5.24-6.73 0-12.27 1.75-16.61 5.24-4.35 3.5-7.57 8.08-9.66 13.75-2.08 5.66-3.13 11.78-3.13 18.34s1.05 12.66 3.13 18.28c2.09 5.63 5.31 10.17 9.66 13.62 4.34 3.45 9.88 5.17 16.61 5.17zm107.15 50.37c-7.29 0-13.55-.93-18.79-2.81-5.24-1.83-9.61-4.26-13.1-7.29-3.46-2.98-6.21-6.17-8.25-9.58l12.02-8.44c1.36 1.79 3.09 3.83 5.17 6.14 2.09 2.34 4.95 4.36 8.57 6.07 3.66 1.74 8.46 2.62 14.38 2.62 7.93 0 14.47-1.92 19.63-5.75 5.15-3.84 7.73-9.85 7.73-18.03v-19.94h-1.28c-1.11 1.79-2.68 4-4.73 6.64-2 2.6-4.9 4.93-8.69 6.97-3.75 2-8.82 3.01-15.22 3.01-7.92 0-15.04-1.88-21.34-5.63-6.27-3.75-11.23-9.2-14.9-16.36-3.62-7.16-5.43-15.86-5.43-26.08 0-10.06 1.77-18.82 5.3-26.27 3.54-7.5 8.46-13.3 14.77-17.39 6.31-4.13 13.59-6.2 21.86-6.2 6.39 0 11.46 1.07 15.21 3.2 3.8 2.08 6.69 4.47 8.7 7.15 2.04 2.65 3.62 4.82 4.73 6.52h1.53v-15.59h14.57v100.99c0 8.44-1.91 15.3-5.75 20.58-3.79 5.33-8.9 9.23-15.34 11.7-6.39 2.52-13.51 3.77-21.35 3.77zm-.51-53.95c6.05 0 11.16-1.38 15.34-4.15s7.35-6.75 9.53-11.95c2.17-5.2 3.26-11.42 3.26-18.67 0-7.07-1.07-13.31-3.2-18.73-2.13-5.41-5.28-9.65-9.46-12.72s-9.33-4.6-15.47-4.6c-6.39 0-11.72 1.62-15.98 4.86-4.22 3.24-7.39 7.58-9.52 13.04-2.09 5.45-3.14 11.5-3.14 18.15 0 6.82 1.07 12.85 3.2 18.09 2.17 5.2 5.37 9.29 9.59 12.27 4.26 2.94 9.54 4.41 15.85 4.41zm111.73 17.14c-9.46 0-17.62-2.09-24.48-6.27-6.82-4.22-12.08-10.1-15.79-17.64-3.66-7.59-5.49-16.41-5.49-26.46 0-10.06 1.83-18.92 5.49-26.59 3.71-7.72 8.87-13.73 15.47-18.03 6.65-4.35 14.41-6.52 23.27-6.52 5.11 0 10.16.85 15.15 2.56 4.98 1.7 9.52 4.47 13.61 8.31 4.09 3.79 7.35 8.82 9.78 15.08 2.43 6.27 3.65 13.98 3.65 23.14v6.39h-75.69v-13.04h60.35c0-5.54-1.11-10.48-3.33-14.83-2.17-4.34-5.28-7.77-9.33-10.29-4.01-2.51-8.74-3.77-14.19-3.77-6.01 0-11.21 1.49-15.6 4.48-4.34 2.94-7.69 6.77-10.03 11.5-2.35 4.73-3.52 9.8-3.52 15.21v8.7c0 7.41 1.28 13.7 3.84 18.85 2.6 5.12 6.2 9.02 10.8 11.7 4.6 2.64 9.95 3.96 16.04 3.96 3.97 0 7.55-.55 10.74-1.66 3.24-1.15 6.03-2.85 8.38-5.11 2.34-2.3 4.15-5.16 5.43-8.57l14.57 4.09c-1.53 4.95-4.11 9.29-7.73 13.04-3.62 3.71-8.1 6.61-13.43 8.7-5.32 2.04-11.31 3.07-17.96 3.07zm106.3-100.23v12.78h-50.88v-12.78zm-36.05-23.52h15.09v93.58c0 4.26.61 7.45 1.85 9.58 1.28 2.09 2.9 3.5 4.86 4.22 2 .68 4.11 1.02 6.33 1.02 1.66 0 3.02-.08 4.09-.25 1.06-.21 1.92-.38 2.55-.51l3.07 13.55c-1.02.38-2.45.77-4.28 1.15-1.83.43-4.15.64-6.97.64-4.26 0-8.43-.92-12.53-2.75-4.04-1.83-7.41-4.62-10.1-8.37-2.64-3.75-3.96-8.48-3.96-14.19zm75.94 62.64v59.06h-15.09v-130.91h15.09v48.07h1.28c2.3-5.07 5.75-9.1 10.35-12.08 4.65-3.03 10.83-4.54 18.54-4.54 6.69 0 12.55 1.34 17.58 4.03 5.03 2.64 8.93 6.71 11.7 12.21 2.81 5.45 4.21 12.4 4.21 20.83v62.39h-15.08v-61.36c0-7.8-2.03-13.83-6.07-18.09-4.01-4.31-9.57-6.46-16.69-6.46-4.94 0-9.37 1.04-13.29 3.13-3.88 2.09-6.95 5.14-9.21 9.14-2.21 4.01-3.32 8.87-3.32 14.58zm132.43 61.11c-9.46 0-17.62-2.09-24.49-6.27-6.81-4.22-12.08-10.1-15.78-17.64-3.67-7.59-5.5-16.41-5.5-26.46 0-10.06 1.83-18.92 5.5-26.59 3.7-7.72 8.86-13.73 15.47-18.03 6.64-4.35 14.4-6.52 23.26-6.52 5.12 0 10.17.85 15.15 2.56 4.99 1.7 9.53 4.47 13.62 8.31 4.09 3.79 7.35 8.82 9.78 15.08 2.43 6.27 3.64 13.98 3.64 23.14v6.39h-75.68v-13.04h60.34c0-5.54-1.11-10.48-3.32-14.83-2.18-4.34-5.29-7.77-9.34-10.29-4-2.51-8.73-3.77-14.19-3.77-6.01 0-11.21 1.49-15.59 4.48-4.35 2.94-7.7 6.77-10.04 11.5s-3.52 9.8-3.52 15.21v8.7c0 7.41 1.28 13.7 3.84 18.85 2.6 5.12 6.2 9.02 10.8 11.7 4.6 2.64 9.95 3.96 16.05 3.96 3.96 0 7.54-.55 10.74-1.66 3.23-1.15 6.02-2.85 8.37-5.11 2.34-2.3 4.15-5.16 5.43-8.57l14.58 4.09c-1.54 4.95-4.12 9.29-7.74 13.04-3.62 3.71-8.1 6.61-13.42 8.7-5.33 2.04-11.32 3.07-17.96 3.07zm63.6-2.05v-98.18h14.57v14.83h1.02c1.79-4.86 5.03-8.8 9.72-11.83 4.69-3.02 9.97-4.54 15.85-4.54 1.11 0 2.49.03 4.16.07 1.66.04 2.92.1 3.77.19v15.34c-.51-.13-1.69-.32-3.52-.57-1.79-.3-3.68-.45-5.69-.45-4.77 0-9.03 1-12.78 3-3.71 1.96-6.65 4.69-8.82 8.18-2.13 3.46-3.2 7.4-3.2 11.83v62.13zm86.91-130.91-1.28 94.09h-14.82l-1.28-94.09zm-8.69 131.93c-3.15 0-5.86-1.13-8.12-3.39-2.26-2.25-3.39-4.96-3.39-8.11 0-3.16 1.13-5.86 3.39-8.12s4.97-3.39 8.12-3.39 5.86 1.13 8.12 3.39 3.39 4.96 3.39 8.12c0 2.09-.54 4-1.6 5.75-1.03 1.75-2.41 3.15-4.16 4.22-1.7 1.02-3.62 1.53-5.75 1.53z" fill="#000"/></svg>