<svg width="11322" height="2195" viewBox="0 0 11322 2195" fill="none" xmlns="http://www.w3.org/2000/svg">
<rect width="11322" height="2195" fill="#F3F2F1"/>
<rect x="247" y="215" width="10800" height="700" fill="#B3833B"/>
<rect x="141" y="1287" width="3466.67" height="700" fill="#B3833B"/>
<rect x="3914" y="1287" width="3466.67" height="700" fill="#B3833B"/>
<rect x="7687" y="1287" width="3466.67" height="700" fill="#B3833B"/>
<path d="M5218.59 430.858C5229.93 430.948 5241.26 433.107 5252.6 437.335C5263.93 441.563 5274.28 448.58 5283.63 458.386C5292.99 468.102 5300.5 481.372 5306.17 498.195C5311.84 515.018 5314.67 536.114 5314.67 561.483C5314.67 586.043 5312.33 607.858 5307.65 626.93C5303.07 645.912 5296.41 661.926 5287.68 674.97C5279.05 688.015 5268.52 697.911 5256.11 704.658C5243.78 711.405 5229.84 714.778 5214.27 714.778C5198.8 714.778 5184.99 711.72 5172.85 705.602C5160.79 699.395 5150.89 690.804 5143.16 679.828C5135.51 668.763 5130.61 655.943 5128.45 641.369H5161.38C5164.34 654.054 5170.24 664.535 5179.05 672.811C5187.96 680.998 5199.7 685.091 5214.27 685.091C5235.59 685.091 5252.42 675.78 5264.74 657.158C5277.16 638.536 5283.36 612.222 5283.36 578.216H5281.2C5276.17 585.773 5270.18 592.295 5263.26 597.783C5256.33 603.27 5248.64 607.499 5240.18 610.467C5231.73 613.436 5222.73 614.92 5213.19 614.92C5197.36 614.92 5182.83 611.007 5169.61 603.18C5156.47 595.264 5145.95 584.423 5138.03 570.659C5130.2 556.805 5126.29 540.972 5126.29 523.159C5126.29 506.246 5130.07 490.773 5137.62 476.739C5145.27 462.615 5155.98 451.369 5169.74 443.003C5183.6 434.636 5199.88 430.588 5218.59 430.858ZM5218.59 460.545C5207.26 460.545 5197.04 463.379 5187.96 469.047C5178.96 474.625 5171.81 482.181 5166.5 491.717C5161.29 501.163 5158.68 511.644 5158.68 523.159C5158.68 534.674 5161.2 545.155 5166.23 554.601C5171.36 563.957 5178.33 571.424 5187.15 577.001C5196.06 582.489 5206.18 585.233 5217.51 585.233C5226.06 585.233 5234.02 583.569 5241.4 580.24C5248.77 576.821 5255.21 572.188 5260.69 566.341C5266.27 560.403 5270.63 553.701 5273.78 546.234C5276.93 538.678 5278.51 530.806 5278.51 522.619C5278.51 511.824 5275.9 501.703 5270.68 492.257C5265.55 482.811 5258.44 475.164 5249.36 469.317C5240.36 463.469 5230.11 460.545 5218.59 460.545ZM5396.34 434.636V458.926C5396.34 466.303 5395 474.175 5392.3 482.541C5389.69 490.818 5385.82 498.869 5380.69 506.696C5375.65 514.433 5369.54 521.18 5362.34 526.938L5345.07 512.903C5350.73 504.807 5355.64 496.395 5359.78 487.669C5364 478.853 5366.12 469.452 5366.12 459.466V434.636H5396.34ZM5569.04 503.727L5618.7 588.472L5668.36 503.727H5705.06L5638.13 607.364L5705.06 711H5668.36L5618.7 630.574L5569.04 711H5532.33L5598.19 607.364L5532.33 503.727H5569.04ZM5865.47 711L5989.08 466.483V464.324H5846.58V434.636H6023.63V465.943L5900.56 711H5865.47ZM6102.54 434.636V458.926C6102.54 466.303 6101.19 474.175 6098.49 482.541C6095.88 490.818 6092.01 498.869 6086.88 506.696C6081.84 514.433 6075.73 521.18 6068.53 526.938L6051.26 512.903C6056.93 504.807 6061.83 496.395 6065.97 487.669C6070.19 478.853 6072.31 469.452 6072.31 459.466V434.636H6102.54ZM6171.63 434.636V458.926C6171.63 466.303 6170.28 474.175 6167.58 482.541C6164.97 490.818 6161.1 498.869 6155.97 506.696C6150.94 514.433 6144.82 521.18 6137.62 526.938L6120.35 512.903C6126.02 504.807 6130.92 496.395 6135.06 487.669C6139.29 478.853 6141.4 469.452 6141.4 459.466V434.636H6171.63Z" fill="black"/>
<path d="M1235.47 1775V1498.64H1332.09C1351.34 1498.64 1367.22 1501.96 1379.72 1508.62C1392.22 1515.19 1401.54 1524.05 1407.65 1535.21C1413.77 1546.27 1416.83 1558.55 1416.83 1572.05C1416.83 1583.92 1414.72 1593.73 1410.49 1601.46C1406.35 1609.2 1400.86 1615.32 1394.02 1619.82C1387.28 1624.31 1379.95 1627.64 1372.03 1629.8V1632.5C1380.48 1633.04 1388.99 1636.01 1397.53 1641.41C1406.08 1646.8 1413.23 1654.54 1418.99 1664.62C1424.75 1674.69 1427.62 1687.02 1427.62 1701.59C1427.62 1715.45 1424.48 1727.9 1418.18 1738.97C1411.88 1750.04 1401.94 1758.81 1388.36 1765.28C1374.77 1771.76 1357.09 1775 1335.32 1775H1235.47ZM1268.93 1745.31H1335.32C1357.18 1745.31 1372.7 1741.08 1381.88 1732.63C1391.15 1724.08 1395.78 1713.74 1395.78 1701.59C1395.78 1692.23 1393.39 1683.6 1388.63 1675.68C1383.86 1667.68 1377.07 1661.29 1368.25 1656.52C1359.43 1651.66 1349 1649.23 1336.94 1649.23H1268.93V1745.31ZM1268.93 1620.09H1331.01C1341.08 1620.09 1350.17 1618.11 1358.26 1614.15C1366.45 1610.19 1372.93 1604.61 1377.7 1597.41C1382.55 1590.22 1384.98 1581.76 1384.98 1572.05C1384.98 1559.9 1380.75 1549.6 1372.3 1541.14C1363.84 1532.6 1350.44 1528.32 1332.09 1528.32H1268.93V1620.09ZM1562.5 1779.32C1543.79 1779.32 1527.37 1774.87 1513.25 1765.96C1499.21 1757.05 1488.24 1744.59 1480.32 1728.58C1472.49 1712.57 1468.58 1693.85 1468.58 1672.44C1468.58 1650.85 1472.49 1632.01 1480.32 1615.9C1488.24 1599.8 1499.21 1587.29 1513.25 1578.39C1527.37 1569.48 1543.79 1565.03 1562.5 1565.03C1581.21 1565.03 1597.59 1569.48 1611.62 1578.39C1625.74 1587.29 1636.72 1599.8 1644.55 1615.9C1652.46 1632.01 1656.42 1650.85 1656.42 1672.44C1656.42 1693.85 1652.46 1712.57 1644.55 1728.58C1636.72 1744.59 1625.74 1757.05 1611.62 1765.96C1597.59 1774.87 1581.21 1779.32 1562.5 1779.32ZM1562.5 1750.71C1576.71 1750.71 1588.41 1747.07 1597.59 1739.78C1606.76 1732.49 1613.55 1722.91 1617.96 1711.04C1622.37 1699.16 1624.57 1686.3 1624.57 1672.44C1624.57 1658.59 1622.37 1645.68 1617.96 1633.71C1613.55 1621.75 1606.76 1612.08 1597.59 1604.7C1588.41 1597.32 1576.71 1593.64 1562.5 1593.64C1548.29 1593.64 1536.59 1597.32 1527.42 1604.7C1518.24 1612.08 1511.45 1621.75 1507.04 1633.71C1502.63 1645.68 1500.43 1658.59 1500.43 1672.44C1500.43 1686.3 1502.63 1699.16 1507.04 1711.04C1511.45 1722.91 1518.24 1732.49 1527.42 1739.78C1536.59 1747.07 1548.29 1750.71 1562.5 1750.71ZM1766.03 1779.86C1752.89 1779.86 1740.97 1777.38 1730.27 1772.44C1719.56 1767.4 1711.06 1760.16 1704.76 1750.71C1698.47 1741.17 1695.32 1729.66 1695.32 1716.16C1695.32 1704.29 1697.66 1694.66 1702.34 1687.29C1707.01 1679.82 1713.27 1673.97 1721.09 1669.74C1728.92 1665.52 1737.56 1662.37 1747 1660.3C1756.54 1658.14 1766.12 1656.43 1775.74 1655.17C1788.34 1653.55 1798.55 1652.34 1806.38 1651.53C1814.29 1650.63 1820.05 1649.14 1823.65 1647.07C1827.34 1645 1829.18 1641.41 1829.18 1636.28V1635.2C1829.18 1621.88 1825.54 1611.54 1818.25 1604.16C1811.05 1596.79 1800.12 1593.1 1785.46 1593.1C1770.26 1593.1 1758.34 1596.43 1749.7 1603.08C1741.06 1609.74 1734.99 1616.85 1731.48 1624.4L1701.26 1613.61C1706.65 1601.01 1713.85 1591.21 1722.85 1584.19C1731.93 1577.08 1741.83 1572.14 1752.53 1569.35C1763.33 1566.47 1773.95 1565.03 1784.38 1565.03C1791.04 1565.03 1798.69 1565.84 1807.32 1567.46C1816.05 1568.99 1824.46 1572.18 1832.56 1577.04C1840.74 1581.9 1847.53 1589.23 1852.93 1599.03C1858.33 1608.84 1861.03 1621.97 1861.03 1638.44V1775H1829.18V1746.93H1827.56C1825.4 1751.43 1821.81 1756.24 1816.77 1761.37C1811.73 1766.5 1805.03 1770.86 1796.66 1774.46C1788.29 1778.06 1778.08 1779.86 1766.03 1779.86ZM1770.89 1751.25C1783.48 1751.25 1794.1 1748.78 1802.73 1743.83C1811.46 1738.88 1818.03 1732.49 1822.44 1724.67C1826.93 1716.84 1829.18 1708.61 1829.18 1699.97V1670.82C1827.83 1672.44 1824.86 1673.93 1820.28 1675.28C1815.78 1676.54 1810.56 1677.66 1804.62 1678.65C1798.77 1679.55 1793.06 1680.36 1787.48 1681.08C1782 1681.71 1777.54 1682.25 1774.13 1682.7C1765.85 1683.78 1758.11 1685.53 1750.92 1687.96C1743.81 1690.3 1738.05 1693.85 1733.64 1698.62C1729.32 1703.3 1727.17 1709.69 1727.17 1717.78C1727.17 1728.85 1731.26 1737.22 1739.44 1742.88C1747.72 1748.46 1758.2 1751.25 1770.89 1751.25ZM1919.16 1775V1567.73H1949.92V1599.03H1952.08C1955.86 1588.78 1962.7 1580.46 1972.59 1574.07C1982.49 1567.68 1993.64 1564.49 2006.06 1564.49C2008.4 1564.49 2011.32 1564.53 2014.83 1564.62C2018.34 1564.71 2020.99 1564.85 2022.79 1565.03V1597.41C2021.71 1597.14 2019.24 1596.74 2015.37 1596.2C2011.59 1595.57 2007.59 1595.26 2003.36 1595.26C1993.28 1595.26 1984.29 1597.37 1976.37 1601.6C1968.54 1605.74 1962.34 1611.49 1957.75 1618.87C1953.25 1626.16 1951 1634.48 1951 1643.84V1775H1919.16ZM2132.5 1779.32C2115.23 1779.32 2099.98 1774.96 2086.75 1766.23C2073.53 1757.41 2063.18 1745 2055.72 1728.98C2048.25 1712.88 2044.52 1693.85 2044.52 1671.9C2044.52 1650.13 2048.25 1631.24 2055.72 1615.23C2063.18 1599.21 2073.58 1586.84 2086.89 1578.12C2100.2 1569.39 2115.59 1565.03 2133.04 1565.03C2146.53 1565.03 2157.2 1567.28 2165.02 1571.78C2172.94 1576.18 2178.97 1581.22 2183.1 1586.89C2187.33 1592.47 2190.62 1597.05 2192.96 1600.65H2195.65V1498.64H2227.5V1775H2196.73V1743.15H2192.96C2190.62 1746.93 2187.29 1751.7 2182.97 1757.46C2178.65 1763.12 2172.49 1768.21 2164.48 1772.71C2156.48 1777.11 2145.82 1779.32 2132.5 1779.32ZM2136.82 1750.71C2149.59 1750.71 2160.39 1747.38 2169.21 1740.72C2178.02 1733.98 2184.72 1724.67 2189.31 1712.79C2193.9 1700.83 2196.19 1687.02 2196.19 1671.36C2196.19 1655.89 2193.94 1642.35 2189.45 1630.75C2184.95 1619.05 2178.29 1609.96 2169.48 1603.49C2160.66 1596.92 2149.77 1593.64 2136.82 1593.64C2123.32 1593.64 2112.08 1597.1 2103.08 1604.03C2094.18 1610.86 2087.47 1620.18 2082.98 1631.96C2078.57 1643.66 2076.36 1656.79 2076.36 1671.36C2076.36 1686.12 2078.61 1699.52 2083.11 1711.58C2087.7 1723.54 2094.45 1733.08 2103.35 1740.18C2112.35 1747.2 2123.5 1750.71 2136.82 1750.71ZM2493.74 1498.64V1775H2460.28V1533.72H2458.66L2391.19 1578.52V1544.52L2460.28 1498.64H2493.74Z" fill="black"/>
<path d="M4981.47 1775V1498.64H5078.09C5097.34 1498.64 5113.22 1501.96 5125.72 1508.62C5138.22 1515.19 5147.54 1524.05 5153.65 1535.21C5159.77 1546.27 5162.83 1558.55 5162.83 1572.05C5162.83 1583.92 5160.72 1593.73 5156.49 1601.46C5152.35 1609.2 5146.86 1615.32 5140.02 1619.82C5133.28 1624.31 5125.95 1627.64 5118.03 1629.8V1632.5C5126.48 1633.04 5134.99 1636.01 5143.53 1641.41C5152.08 1646.8 5159.23 1654.54 5164.99 1664.62C5170.75 1674.69 5173.62 1687.02 5173.62 1701.59C5173.62 1715.45 5170.48 1727.9 5164.18 1738.97C5157.88 1750.04 5147.94 1758.81 5134.36 1765.28C5120.77 1771.76 5103.09 1775 5081.32 1775H4981.47ZM5014.93 1745.31H5081.32C5103.18 1745.31 5118.7 1741.08 5127.88 1732.63C5137.15 1724.08 5141.78 1713.74 5141.78 1701.59C5141.78 1692.23 5139.39 1683.6 5134.63 1675.68C5129.86 1667.68 5123.07 1661.29 5114.25 1656.52C5105.43 1651.66 5095 1649.23 5082.94 1649.23H5014.93V1745.31ZM5014.93 1620.09H5077.01C5087.08 1620.09 5096.17 1618.11 5104.26 1614.15C5112.45 1610.19 5118.93 1604.61 5123.7 1597.41C5128.55 1590.22 5130.98 1581.76 5130.98 1572.05C5130.98 1559.9 5126.75 1549.6 5118.3 1541.14C5109.84 1532.6 5096.44 1528.32 5078.09 1528.32H5014.93V1620.09ZM5308.5 1779.32C5289.79 1779.32 5273.37 1774.87 5259.25 1765.96C5245.21 1757.05 5234.24 1744.59 5226.32 1728.58C5218.49 1712.57 5214.58 1693.85 5214.58 1672.44C5214.58 1650.85 5218.49 1632.01 5226.32 1615.9C5234.24 1599.8 5245.21 1587.29 5259.25 1578.39C5273.37 1569.48 5289.79 1565.03 5308.5 1565.03C5327.21 1565.03 5343.59 1569.48 5357.62 1578.39C5371.74 1587.29 5382.72 1599.8 5390.55 1615.9C5398.46 1632.01 5402.42 1650.85 5402.42 1672.44C5402.42 1693.85 5398.46 1712.57 5390.55 1728.58C5382.72 1744.59 5371.74 1757.05 5357.62 1765.96C5343.59 1774.87 5327.21 1779.32 5308.5 1779.32ZM5308.5 1750.71C5322.71 1750.71 5334.41 1747.07 5343.59 1739.78C5352.76 1732.49 5359.55 1722.91 5363.96 1711.04C5368.37 1699.16 5370.57 1686.3 5370.57 1672.44C5370.57 1658.59 5368.37 1645.68 5363.96 1633.71C5359.55 1621.75 5352.76 1612.08 5343.59 1604.7C5334.41 1597.32 5322.71 1593.64 5308.5 1593.64C5294.29 1593.64 5282.59 1597.32 5273.42 1604.7C5264.24 1612.08 5257.45 1621.75 5253.04 1633.71C5248.63 1645.68 5246.43 1658.59 5246.43 1672.44C5246.43 1686.3 5248.63 1699.16 5253.04 1711.04C5257.45 1722.91 5264.24 1732.49 5273.42 1739.78C5282.59 1747.07 5294.29 1750.71 5308.5 1750.71ZM5512.03 1779.86C5498.89 1779.86 5486.97 1777.38 5476.27 1772.44C5465.56 1767.4 5457.06 1760.16 5450.76 1750.71C5444.47 1741.17 5441.32 1729.66 5441.32 1716.16C5441.32 1704.29 5443.66 1694.66 5448.34 1687.29C5453.01 1679.82 5459.27 1673.97 5467.09 1669.74C5474.92 1665.52 5483.56 1662.37 5493 1660.3C5502.54 1658.14 5512.12 1656.43 5521.74 1655.17C5534.34 1653.55 5544.55 1652.34 5552.38 1651.53C5560.29 1650.63 5566.05 1649.14 5569.65 1647.07C5573.34 1645 5575.18 1641.41 5575.18 1636.28V1635.2C5575.18 1621.88 5571.54 1611.54 5564.25 1604.16C5557.05 1596.79 5546.12 1593.1 5531.46 1593.1C5516.26 1593.1 5504.34 1596.43 5495.7 1603.08C5487.06 1609.74 5480.99 1616.85 5477.48 1624.4L5447.26 1613.61C5452.65 1601.01 5459.85 1591.21 5468.85 1584.19C5477.93 1577.08 5487.83 1572.14 5498.53 1569.35C5509.33 1566.47 5519.95 1565.03 5530.38 1565.03C5537.04 1565.03 5544.69 1565.84 5553.32 1567.46C5562.05 1568.99 5570.46 1572.18 5578.56 1577.04C5586.74 1581.9 5593.53 1589.23 5598.93 1599.03C5604.33 1608.84 5607.03 1621.97 5607.03 1638.44V1775H5575.18V1746.93H5573.56C5571.4 1751.43 5567.81 1756.24 5562.77 1761.37C5557.73 1766.5 5551.03 1770.86 5542.66 1774.46C5534.29 1778.06 5524.08 1779.86 5512.03 1779.86ZM5516.89 1751.25C5529.48 1751.25 5540.1 1748.78 5548.73 1743.83C5557.46 1738.88 5564.03 1732.49 5568.44 1724.67C5572.93 1716.84 5575.18 1708.61 5575.18 1699.97V1670.82C5573.83 1672.44 5570.86 1673.93 5566.28 1675.28C5561.78 1676.54 5556.56 1677.66 5550.62 1678.65C5544.77 1679.55 5539.06 1680.36 5533.48 1681.08C5528 1681.71 5523.54 1682.25 5520.13 1682.7C5511.85 1683.78 5504.11 1685.53 5496.92 1687.96C5489.81 1690.3 5484.05 1693.85 5479.64 1698.62C5475.32 1703.3 5473.17 1709.69 5473.17 1717.78C5473.17 1728.85 5477.26 1737.22 5485.44 1742.88C5493.72 1748.46 5504.2 1751.25 5516.89 1751.25ZM5665.16 1775V1567.73H5695.92V1599.03H5698.08C5701.86 1588.78 5708.7 1580.46 5718.59 1574.07C5728.49 1567.68 5739.64 1564.49 5752.06 1564.49C5754.4 1564.49 5757.32 1564.53 5760.83 1564.62C5764.34 1564.71 5766.99 1564.85 5768.79 1565.03V1597.41C5767.71 1597.14 5765.24 1596.74 5761.37 1596.2C5757.59 1595.57 5753.59 1595.26 5749.36 1595.26C5739.28 1595.26 5730.29 1597.37 5722.37 1601.6C5714.54 1605.74 5708.34 1611.49 5703.75 1618.87C5699.25 1626.16 5697 1634.48 5697 1643.84V1775H5665.16ZM5878.5 1779.32C5861.23 1779.32 5845.98 1774.96 5832.75 1766.23C5819.53 1757.41 5809.18 1745 5801.72 1728.98C5794.25 1712.88 5790.52 1693.85 5790.52 1671.9C5790.52 1650.13 5794.25 1631.24 5801.72 1615.23C5809.18 1599.21 5819.58 1586.84 5832.89 1578.12C5846.2 1569.39 5861.59 1565.03 5879.04 1565.03C5892.53 1565.03 5903.2 1567.28 5911.02 1571.78C5918.94 1576.18 5924.97 1581.22 5929.1 1586.89C5933.33 1592.47 5936.62 1597.05 5938.96 1600.65H5941.65V1498.64H5973.5V1775H5942.73V1743.15H5938.96C5936.62 1746.93 5933.29 1751.7 5928.97 1757.46C5924.65 1763.12 5918.49 1768.21 5910.48 1772.71C5902.48 1777.11 5891.82 1779.32 5878.5 1779.32ZM5882.82 1750.71C5895.59 1750.71 5906.39 1747.38 5915.21 1740.72C5924.02 1733.98 5930.72 1724.67 5935.31 1712.79C5939.9 1700.83 5942.19 1687.02 5942.19 1671.36C5942.19 1655.89 5939.94 1642.35 5935.45 1630.75C5930.95 1619.05 5924.29 1609.96 5915.48 1603.49C5906.66 1596.92 5895.77 1593.64 5882.82 1593.64C5869.32 1593.64 5858.08 1597.1 5849.08 1604.03C5840.18 1610.86 5833.47 1620.18 5828.98 1631.96C5824.57 1643.66 5822.36 1656.79 5822.36 1671.36C5822.36 1686.12 5824.61 1699.52 5829.11 1711.58C5833.7 1723.54 5840.45 1733.08 5849.35 1740.18C5858.35 1747.2 5869.5 1750.71 5882.82 1750.71ZM6142.58 1775V1750.71L6233.81 1650.85C6244.51 1639.16 6253.33 1628.99 6260.25 1620.36C6267.18 1611.63 6272.31 1603.44 6275.64 1595.8C6279.06 1588.06 6280.77 1579.96 6280.77 1571.51C6280.77 1561.79 6278.43 1553.38 6273.75 1546.27C6269.16 1539.16 6262.86 1533.68 6254.86 1529.81C6246.85 1525.94 6237.85 1524.01 6227.87 1524.01C6217.25 1524.01 6207.99 1526.21 6200.07 1530.62C6192.24 1534.94 6186.17 1541.01 6181.85 1548.84C6177.62 1556.66 6175.51 1565.84 6175.51 1576.36H6143.66C6143.66 1560.17 6147.4 1545.96 6154.86 1533.72C6162.33 1521.49 6172.5 1511.95 6185.36 1505.11C6198.32 1498.28 6212.84 1494.86 6228.95 1494.86C6245.14 1494.86 6259.49 1498.28 6272 1505.11C6284.5 1511.95 6294.31 1521.17 6301.41 1532.78C6308.52 1544.38 6312.07 1557.29 6312.07 1571.51C6312.07 1581.67 6310.23 1591.61 6306.54 1601.33C6302.94 1610.95 6296.64 1621.7 6287.65 1633.58C6278.74 1645.36 6266.37 1659.76 6250.54 1676.76L6188.47 1743.15V1745.31H6316.93V1775H6142.58Z" fill="black"/>
<path d="M8749.47 1775V1498.64H8846.09C8865.34 1498.64 8881.22 1501.96 8893.72 1508.62C8906.22 1515.19 8915.54 1524.05 8921.65 1535.21C8927.77 1546.27 8930.83 1558.55 8930.83 1572.05C8930.83 1583.92 8928.72 1593.73 8924.49 1601.46C8920.35 1609.2 8914.86 1615.32 8908.02 1619.82C8901.28 1624.31 8893.95 1627.64 8886.03 1629.8V1632.5C8894.48 1633.04 8902.99 1636.01 8911.53 1641.41C8920.08 1646.8 8927.23 1654.54 8932.99 1664.62C8938.75 1674.69 8941.62 1687.02 8941.62 1701.59C8941.62 1715.45 8938.48 1727.9 8932.18 1738.97C8925.88 1750.04 8915.94 1758.81 8902.36 1765.28C8888.77 1771.76 8871.09 1775 8849.32 1775H8749.47ZM8782.93 1745.31H8849.32C8871.18 1745.31 8886.7 1741.08 8895.88 1732.63C8905.15 1724.08 8909.78 1713.74 8909.78 1701.59C8909.78 1692.23 8907.39 1683.6 8902.63 1675.68C8897.86 1667.68 8891.07 1661.29 8882.25 1656.52C8873.43 1651.66 8863 1649.23 8850.94 1649.23H8782.93V1745.31ZM8782.93 1620.09H8845.01C8855.08 1620.09 8864.17 1618.11 8872.26 1614.15C8880.45 1610.19 8886.93 1604.61 8891.7 1597.41C8896.55 1590.22 8898.98 1581.76 8898.98 1572.05C8898.98 1559.9 8894.75 1549.6 8886.3 1541.14C8877.84 1532.6 8864.44 1528.32 8846.09 1528.32H8782.93V1620.09ZM9076.5 1779.32C9057.79 1779.32 9041.37 1774.87 9027.25 1765.96C9013.21 1757.05 9002.24 1744.59 8994.32 1728.58C8986.49 1712.57 8982.58 1693.85 8982.58 1672.44C8982.58 1650.85 8986.49 1632.01 8994.32 1615.9C9002.24 1599.8 9013.21 1587.29 9027.25 1578.39C9041.37 1569.48 9057.79 1565.03 9076.5 1565.03C9095.21 1565.03 9111.59 1569.48 9125.62 1578.39C9139.74 1587.29 9150.72 1599.8 9158.55 1615.9C9166.46 1632.01 9170.42 1650.85 9170.42 1672.44C9170.42 1693.85 9166.46 1712.57 9158.55 1728.58C9150.72 1744.59 9139.74 1757.05 9125.62 1765.96C9111.59 1774.87 9095.21 1779.32 9076.5 1779.32ZM9076.5 1750.71C9090.71 1750.71 9102.41 1747.07 9111.59 1739.78C9120.76 1732.49 9127.55 1722.91 9131.96 1711.04C9136.37 1699.16 9138.57 1686.3 9138.57 1672.44C9138.57 1658.59 9136.37 1645.68 9131.96 1633.71C9127.55 1621.75 9120.76 1612.08 9111.59 1604.7C9102.41 1597.32 9090.71 1593.64 9076.5 1593.64C9062.29 1593.64 9050.59 1597.32 9041.42 1604.7C9032.24 1612.08 9025.45 1621.75 9021.04 1633.71C9016.63 1645.68 9014.43 1658.59 9014.43 1672.44C9014.43 1686.3 9016.63 1699.16 9021.04 1711.04C9025.45 1722.91 9032.24 1732.49 9041.42 1739.78C9050.59 1747.07 9062.29 1750.71 9076.5 1750.71ZM9280.03 1779.86C9266.89 1779.86 9254.97 1777.38 9244.27 1772.44C9233.56 1767.4 9225.06 1760.16 9218.76 1750.71C9212.47 1741.17 9209.32 1729.66 9209.32 1716.16C9209.32 1704.29 9211.66 1694.66 9216.34 1687.29C9221.01 1679.82 9227.27 1673.97 9235.09 1669.74C9242.92 1665.52 9251.56 1662.37 9261 1660.3C9270.54 1658.14 9280.12 1656.43 9289.74 1655.17C9302.34 1653.55 9312.55 1652.34 9320.38 1651.53C9328.29 1650.63 9334.05 1649.14 9337.65 1647.07C9341.34 1645 9343.18 1641.41 9343.18 1636.28V1635.2C9343.18 1621.88 9339.54 1611.54 9332.25 1604.16C9325.05 1596.79 9314.12 1593.1 9299.46 1593.1C9284.26 1593.1 9272.34 1596.43 9263.7 1603.08C9255.06 1609.74 9248.99 1616.85 9245.48 1624.4L9215.26 1613.61C9220.65 1601.01 9227.85 1591.21 9236.85 1584.19C9245.93 1577.08 9255.83 1572.14 9266.53 1569.35C9277.33 1566.47 9287.95 1565.03 9298.38 1565.03C9305.04 1565.03 9312.69 1565.84 9321.32 1567.46C9330.05 1568.99 9338.46 1572.18 9346.56 1577.04C9354.74 1581.9 9361.53 1589.23 9366.93 1599.03C9372.33 1608.84 9375.03 1621.97 9375.03 1638.44V1775H9343.18V1746.93H9341.56C9339.4 1751.43 9335.81 1756.24 9330.77 1761.37C9325.73 1766.5 9319.03 1770.86 9310.66 1774.46C9302.29 1778.06 9292.08 1779.86 9280.03 1779.86ZM9284.89 1751.25C9297.48 1751.25 9308.1 1748.78 9316.73 1743.83C9325.46 1738.88 9332.03 1732.49 9336.44 1724.67C9340.93 1716.84 9343.18 1708.61 9343.18 1699.97V1670.82C9341.83 1672.44 9338.86 1673.93 9334.28 1675.28C9329.78 1676.54 9324.56 1677.66 9318.62 1678.65C9312.77 1679.55 9307.06 1680.36 9301.48 1681.08C9296 1681.71 9291.54 1682.25 9288.13 1682.7C9279.85 1683.78 9272.11 1685.53 9264.92 1687.96C9257.81 1690.3 9252.05 1693.85 9247.64 1698.62C9243.32 1703.3 9241.17 1709.69 9241.17 1717.78C9241.17 1728.85 9245.26 1737.22 9253.44 1742.88C9261.72 1748.46 9272.2 1751.25 9284.89 1751.25ZM9433.16 1775V1567.73H9463.92V1599.03H9466.08C9469.86 1588.78 9476.7 1580.46 9486.59 1574.07C9496.49 1567.68 9507.64 1564.49 9520.06 1564.49C9522.4 1564.49 9525.32 1564.53 9528.83 1564.62C9532.34 1564.71 9534.99 1564.85 9536.79 1565.03V1597.41C9535.71 1597.14 9533.24 1596.74 9529.37 1596.2C9525.59 1595.57 9521.59 1595.26 9517.36 1595.26C9507.28 1595.26 9498.29 1597.37 9490.37 1601.6C9482.54 1605.74 9476.34 1611.49 9471.75 1618.87C9467.25 1626.16 9465 1634.48 9465 1643.84V1775H9433.16ZM9646.5 1779.32C9629.23 1779.32 9613.98 1774.96 9600.75 1766.23C9587.53 1757.41 9577.18 1745 9569.72 1728.98C9562.25 1712.88 9558.52 1693.85 9558.52 1671.9C9558.52 1650.13 9562.25 1631.24 9569.72 1615.23C9577.18 1599.21 9587.58 1586.84 9600.89 1578.12C9614.2 1569.39 9629.59 1565.03 9647.04 1565.03C9660.53 1565.03 9671.2 1567.28 9679.02 1571.78C9686.94 1576.18 9692.97 1581.22 9697.1 1586.89C9701.33 1592.47 9704.62 1597.05 9706.96 1600.65H9709.65V1498.64H9741.5V1775H9710.73V1743.15H9706.96C9704.62 1746.93 9701.29 1751.7 9696.97 1757.46C9692.65 1763.12 9686.49 1768.21 9678.48 1772.71C9670.48 1777.11 9659.82 1779.32 9646.5 1779.32ZM9650.82 1750.71C9663.59 1750.71 9674.39 1747.38 9683.21 1740.72C9692.02 1733.98 9698.72 1724.67 9703.31 1712.79C9707.9 1700.83 9710.19 1687.02 9710.19 1671.36C9710.19 1655.89 9707.94 1642.35 9703.45 1630.75C9698.95 1619.05 9692.29 1609.96 9683.48 1603.49C9674.66 1596.92 9663.77 1593.64 9650.82 1593.64C9637.32 1593.64 9626.08 1597.1 9617.08 1604.03C9608.18 1610.86 9601.47 1620.18 9596.98 1631.96C9592.57 1643.66 9590.36 1656.79 9590.36 1671.36C9590.36 1686.12 9592.61 1699.52 9597.11 1711.58C9601.7 1723.54 9608.45 1733.08 9617.35 1740.18C9626.35 1747.2 9637.5 1750.71 9650.82 1750.71ZM10004 1778.78C9986.15 1778.78 9970.27 1775.72 9956.33 1769.6C9942.48 1763.48 9931.46 1754.98 9923.27 1744.1C9915.17 1733.12 9910.76 1720.39 9910.04 1705.91H9944.05C9944.77 1714.82 9947.83 1722.51 9953.23 1728.98C9958.62 1735.37 9965.69 1740.32 9974.41 1743.83C9983.14 1747.34 9992.81 1749.09 10003.4 1749.09C10015.3 1749.09 10025.8 1747.02 10035 1742.88C10044.2 1738.75 10051.4 1732.99 10056.6 1725.61C10061.8 1718.23 10064.4 1709.69 10064.4 1699.97C10064.4 1689.81 10061.9 1680.85 10056.9 1673.12C10051.8 1665.29 10044.4 1659.17 10034.7 1654.77C10025 1650.36 10013.1 1648.15 9999.11 1648.15H9976.98V1618.47H9999.11C10010.1 1618.47 10019.7 1616.49 10028 1612.53C10036.4 1608.57 10042.9 1602.99 10047.6 1595.8C10052.3 1588.6 10054.7 1580.14 10054.7 1570.43C10054.7 1561.07 10052.6 1552.93 10048.5 1546C10044.4 1539.07 10038.5 1533.68 10031 1529.81C10023.5 1525.94 10014.7 1524.01 10004.5 1524.01C9994.97 1524.01 9985.97 1525.76 9977.52 1529.27C9969.15 1532.69 9962.31 1537.68 9957 1544.25C9951.7 1550.72 9948.82 1558.55 9948.37 1567.73H9915.98C9916.52 1553.24 9920.89 1540.56 9929.07 1529.67C9937.26 1518.7 9947.96 1510.15 9961.19 1504.03C9974.5 1497.92 9989.12 1494.86 10005 1494.86C10022.1 1494.86 10036.8 1498.32 10049 1505.25C10061.3 1512.09 10070.7 1521.13 10077.2 1532.37C10083.8 1543.62 10087.1 1555.76 10087.1 1568.81C10087.1 1584.37 10083 1597.64 10074.8 1608.62C10066.7 1619.59 10055.7 1627.19 10041.7 1631.42V1633.58C10059.2 1636.46 10072.8 1643.88 10082.6 1655.85C10092.4 1667.72 10097.3 1682.43 10097.3 1699.97C10097.3 1715 10093.3 1728.49 10085.1 1740.45C10077 1752.33 10065.9 1761.69 10051.9 1768.52C10037.8 1775.36 10021.9 1778.78 10004 1778.78Z" fill="black"/>
</svg>
