<svg fill="none" height="2195" viewBox="0 0 11322 2195" width="11322" xmlns="http://www.w3.org/2000/svg"><g fill="#b3833b"><path d="m247 215h10800v700h-10800z"/><path d="m141 1287h3466.67v700h-3466.67z"/><path d="m3914 1287h3466.67v700h-3466.67z"/><path d="m7687 1287h3466.67v700h-3466.67z"/></g><path d="m5218.59 430.858c11.34.09 22.67 2.249 34.01 6.477 11.33 4.228 21.68 11.245 31.03 21.051 9.36 9.716 16.87 22.986 22.54 39.809s8.5 37.919 8.5 63.288c0 24.56-2.34 46.375-7.02 65.447-4.58 18.982-11.24 34.996-19.97 48.04-8.63 13.045-19.16 22.941-31.57 29.688-12.33 6.747-26.27 10.12-41.84 10.12-15.47 0-29.28-3.058-41.42-9.176-12.06-6.207-21.96-14.798-29.69-25.774-7.65-11.065-12.55-23.885-14.71-38.459h32.93c2.96 12.685 8.86 23.166 17.67 31.442 8.91 8.187 20.65 12.28 35.22 12.28 21.32 0 38.15-9.311 50.47-27.933 12.42-18.622 18.62-44.936 18.62-78.942h-2.16c-5.03 7.557-11.02 14.079-17.94 19.567-6.93 5.487-14.62 9.716-23.08 12.684-8.45 2.969-17.45 4.453-26.99 4.453-15.83 0-30.36-3.913-43.58-11.74-13.14-7.916-23.66-18.757-31.58-32.521-7.83-13.854-11.74-29.687-11.74-47.5 0-16.913 3.78-32.386 11.33-46.42 7.65-14.124 18.36-25.37 32.12-33.736 13.86-8.367 30.14-12.415 48.85-12.145zm0 29.687c-11.33 0-21.55 2.834-30.63 8.502-9 5.578-16.15 13.134-21.46 22.67-5.21 9.446-7.82 19.927-7.82 31.442s2.52 21.996 7.55 31.442c5.13 9.356 12.1 16.823 20.92 22.4 8.91 5.488 19.03 8.232 30.36 8.232 8.55 0 16.51-1.664 23.89-4.993 7.37-3.419 13.81-8.052 19.29-13.899 5.58-5.938 9.94-12.64 13.09-20.107 3.15-7.556 4.73-15.428 4.73-23.615 0-10.795-2.61-20.916-7.83-30.362-5.13-9.446-12.24-17.093-21.32-22.94-9-5.848-19.25-8.772-30.77-8.772zm177.75-25.909v24.29c0 7.377-1.34 15.249-4.04 23.615-2.61 8.277-6.48 16.328-11.61 24.155-5.04 7.737-11.15 14.484-18.35 20.242l-17.27-14.035c5.66-8.096 10.57-16.508 14.71-25.234 4.22-8.816 6.34-18.217 6.34-28.203v-24.83zm172.7 69.091 49.66 84.745 49.66-84.745h36.7l-66.93 103.637 66.93 103.636h-36.7l-49.66-80.426-49.66 80.426h-36.71l65.86-103.636-65.86-103.637zm296.43 207.273 123.61-244.517v-2.159h-142.5v-29.688h177.05v31.307l-123.07 245.057zm237.07-276.364v24.29c0 7.377-1.35 15.249-4.05 23.615-2.61 8.277-6.48 16.328-11.61 24.155-5.04 7.737-11.15 14.484-18.35 20.242l-17.27-14.035c5.67-8.096 10.57-16.508 14.71-25.234 4.22-8.816 6.34-18.217 6.34-28.203v-24.83zm69.09 0v24.29c0 7.377-1.35 15.249-4.05 23.615-2.61 8.277-6.48 16.328-11.61 24.155-5.03 7.737-11.15 14.484-18.35 20.242l-17.27-14.035c5.67-8.096 10.57-16.508 14.71-25.234 4.23-8.816 6.34-18.217 6.34-28.203v-24.83z" fill="#000"/><path d="m1235.47 1775v-276.36h96.62c19.25 0 35.13 3.32 47.63 9.98 12.5 6.57 21.82 15.43 27.93 26.59 6.12 11.06 9.18 23.34 9.18 36.84 0 11.87-2.11 21.68-6.34 29.41-4.14 7.74-9.63 13.86-16.47 18.36-6.74 4.49-14.07 7.82-21.99 9.98v2.7c8.45.54 16.96 3.51 25.5 8.91 8.55 5.39 15.7 13.13 21.46 23.21 5.76 10.07 8.63 22.4 8.63 36.97 0 13.86-3.14 26.31-9.44 37.38s-16.24 19.84-29.82 26.31c-13.59 6.48-31.27 9.72-53.04 9.72zm33.46-29.69h66.39c21.86 0 37.38-4.23 46.56-12.68 9.27-8.55 13.9-18.89 13.9-31.04 0-9.36-2.39-17.99-7.15-25.91-4.77-8-11.56-14.39-20.38-19.16-8.82-4.86-19.25-7.29-31.31-7.29h-68.01zm0-125.22h62.08c10.07 0 19.16-1.98 27.25-5.94 8.19-3.96 14.67-9.54 19.44-16.74 4.85-7.19 7.28-15.65 7.28-25.36 0-12.15-4.23-22.45-12.68-30.91-8.46-8.54-21.86-12.82-40.21-12.82h-63.16zm293.57 159.23c-18.71 0-35.13-4.45-49.25-13.36-14.04-8.91-25.01-21.37-32.93-37.38-7.83-16.01-11.74-34.73-11.74-56.14 0-21.59 3.91-40.43 11.74-56.54 7.92-16.1 18.89-28.61 32.93-37.51 14.12-8.91 30.54-13.36 49.25-13.36s35.09 4.45 49.12 13.36c14.12 8.9 25.1 21.41 32.93 37.51 7.91 16.11 11.87 34.95 11.87 56.54 0 21.41-3.96 40.13-11.87 56.14-7.83 16.01-18.81 28.47-32.93 37.38-14.03 8.91-30.41 13.36-49.12 13.36zm0-28.61c14.21 0 25.91-3.64 35.09-10.93 9.17-7.29 15.96-16.87 20.37-28.74 4.41-11.88 6.61-24.74 6.61-38.6 0-13.85-2.2-26.76-6.61-38.73-4.41-11.96-11.2-21.63-20.37-29.01-9.18-7.38-20.88-11.06-35.09-11.06s-25.91 3.68-35.08 11.06c-9.18 7.38-15.97 17.05-20.38 29.01-4.41 11.97-6.61 24.88-6.61 38.73 0 13.86 2.2 26.72 6.61 38.6 4.41 11.87 11.2 21.45 20.38 28.74 9.17 7.29 20.87 10.93 35.08 10.93zm203.53 29.15c-13.14 0-25.06-2.48-35.76-7.42-10.71-5.04-19.21-12.28-25.51-21.73-6.29-9.54-9.44-21.05-9.44-34.55 0-11.87 2.34-21.5 7.02-28.87 4.67-7.47 10.93-13.32 18.75-17.55 7.83-4.22 16.47-7.37 25.91-9.44 9.54-2.16 19.12-3.87 28.74-5.13 12.6-1.62 22.81-2.83 30.64-3.64 7.91-.9 13.67-2.39 17.27-4.46 3.69-2.07 5.53-5.66 5.53-10.79v-1.08c0-13.32-3.64-23.66-10.93-31.04-7.2-7.37-18.13-11.06-32.79-11.06-15.2 0-27.12 3.33-35.76 9.98-8.64 6.66-14.71 13.77-18.22 21.32l-30.22-10.79c5.39-12.6 12.59-22.4 21.59-29.42 9.08-7.11 18.98-12.05 29.68-14.84 10.8-2.88 21.42-4.32 31.85-4.32 6.66 0 14.31.81 22.94 2.43 8.73 1.53 17.14 4.72 25.24 9.58 8.18 4.86 14.97 12.19 20.37 21.99 5.4 9.81 8.1 22.94 8.1 39.41v136.56h-31.85v-28.07h-1.62c-2.16 4.5-5.75 9.31-10.79 14.44s-11.74 9.49-20.11 13.09-18.58 5.4-30.63 5.4zm4.86-28.61c12.59 0 23.21-2.47 31.84-7.42 8.73-4.95 15.3-11.34 19.71-19.16 4.49-7.83 6.74-16.06 6.74-24.7v-29.15c-1.35 1.62-4.32 3.11-8.9 4.46-4.5 1.26-9.72 2.38-15.66 3.37-5.85.9-11.56 1.71-17.14 2.43-5.48.63-9.94 1.17-13.35 1.62-8.28 1.08-16.02 2.83-23.21 5.26-7.11 2.34-12.87 5.89-17.28 10.66-4.32 4.68-6.47 11.07-6.47 19.16 0 11.07 4.09 19.44 12.27 25.1 8.28 5.58 18.76 8.37 31.45 8.37zm148.27 23.75v-207.27h30.76v31.3h2.16c3.78-10.25 10.62-18.57 20.51-24.96 9.9-6.39 21.05-9.58 33.47-9.58 2.34 0 5.26.04 8.77.13s6.16.23 7.96.41v32.38c-1.08-.27-3.55-.67-7.42-1.21-3.78-.63-7.78-.94-12.01-.94-10.08 0-19.07 2.11-26.99 6.34-7.83 4.14-14.03 9.89-18.62 17.27-4.5 7.29-6.75 15.61-6.75 24.97v131.16zm213.34 4.32c-17.27 0-32.52-4.36-45.75-13.09-13.22-8.82-23.57-21.23-31.03-37.25-7.47-16.1-11.2-35.13-11.2-57.08 0-21.77 3.73-40.66 11.2-56.67 7.46-16.02 17.86-28.39 31.17-37.11 13.31-8.73 28.7-13.09 46.15-13.09 13.49 0 24.16 2.25 31.98 6.75 7.92 4.4 13.95 9.44 18.08 15.11 4.23 5.58 7.52 10.16 9.86 13.76h2.69v-102.01h31.85v276.36h-30.77v-31.85h-3.77c-2.34 3.78-5.67 8.55-9.99 14.31-4.32 5.66-10.48 10.75-18.49 15.25-8 4.4-18.66 6.61-31.98 6.61zm4.32-28.61c12.77 0 23.57-3.33 32.39-9.99 8.81-6.74 15.51-16.05 20.1-27.93 4.59-11.96 6.88-25.77 6.88-41.43 0-15.47-2.25-29.01-6.74-40.61-4.5-11.7-11.16-20.79-19.97-27.26-8.82-6.57-19.71-9.85-32.66-9.85-13.5 0-24.74 3.46-33.74 10.39-8.9 6.83-15.61 16.15-20.1 27.93-4.41 11.7-6.62 24.83-6.62 39.4 0 14.76 2.25 28.16 6.75 40.22 4.59 11.96 11.34 21.5 20.24 28.6 9 7.02 20.15 10.53 33.47 10.53zm356.92-252.07v276.36h-33.46v-241.28h-1.62l-67.47 44.8v-34l69.09-45.88z" fill="#000"/><path d="m4981.47 1775v-276.36h96.62c19.25 0 35.13 3.32 47.63 9.98 12.5 6.57 21.82 15.43 27.93 26.59 6.12 11.06 9.18 23.34 9.18 36.84 0 11.87-2.11 21.68-6.34 29.41-4.14 7.74-9.63 13.86-16.47 18.36-6.74 4.49-14.07 7.82-21.99 9.98v2.7c8.45.54 16.96 3.51 25.5 8.91 8.55 5.39 15.7 13.13 21.46 23.21 5.76 10.07 8.63 22.4 8.63 36.97 0 13.86-3.14 26.31-9.44 37.38s-16.24 19.84-29.82 26.31c-13.59 6.48-31.27 9.72-53.04 9.72zm33.46-29.69h66.39c21.86 0 37.38-4.23 46.56-12.68 9.27-8.55 13.9-18.89 13.9-31.04 0-9.36-2.39-17.99-7.15-25.91-4.77-8-11.56-14.39-20.38-19.16-8.82-4.86-19.25-7.29-31.31-7.29h-68.01zm0-125.22h62.08c10.07 0 19.16-1.98 27.25-5.94 8.19-3.96 14.67-9.54 19.44-16.74 4.85-7.19 7.28-15.65 7.28-25.36 0-12.15-4.23-22.45-12.68-30.91-8.46-8.54-21.86-12.82-40.21-12.82h-63.16zm293.57 159.23c-18.71 0-35.13-4.45-49.25-13.36-14.04-8.91-25.01-21.37-32.93-37.38-7.83-16.01-11.74-34.73-11.74-56.14 0-21.59 3.91-40.43 11.74-56.54 7.92-16.1 18.89-28.61 32.93-37.51 14.12-8.91 30.54-13.36 49.25-13.36s35.09 4.45 49.12 13.36c14.12 8.9 25.1 21.41 32.93 37.51 7.91 16.11 11.87 34.95 11.87 56.54 0 21.41-3.96 40.13-11.87 56.14-7.83 16.01-18.81 28.47-32.93 37.38-14.03 8.91-30.41 13.36-49.12 13.36zm0-28.61c14.21 0 25.91-3.64 35.09-10.93 9.17-7.29 15.96-16.87 20.37-28.74 4.41-11.88 6.61-24.74 6.61-38.6 0-13.85-2.2-26.76-6.61-38.73-4.41-11.96-11.2-21.63-20.37-29.01-9.18-7.38-20.88-11.06-35.09-11.06s-25.91 3.68-35.08 11.06c-9.18 7.38-15.97 17.05-20.38 29.01-4.41 11.97-6.61 24.88-6.61 38.73 0 13.86 2.2 26.72 6.61 38.6 4.41 11.87 11.2 21.45 20.38 28.74 9.17 7.29 20.87 10.93 35.08 10.93zm203.53 29.15c-13.14 0-25.06-2.48-35.76-7.42-10.71-5.04-19.21-12.28-25.51-21.73-6.29-9.54-9.44-21.05-9.44-34.55 0-11.87 2.34-21.5 7.02-28.87 4.67-7.47 10.93-13.32 18.75-17.55 7.83-4.22 16.47-7.37 25.91-9.44 9.54-2.16 19.12-3.87 28.74-5.13 12.6-1.62 22.81-2.83 30.64-3.64 7.91-.9 13.67-2.39 17.27-4.46 3.69-2.07 5.53-5.66 5.53-10.79v-1.08c0-13.32-3.64-23.66-10.93-31.04-7.2-7.37-18.13-11.06-32.79-11.06-15.2 0-27.12 3.33-35.76 9.98-8.64 6.66-14.71 13.77-18.22 21.32l-30.22-10.79c5.39-12.6 12.59-22.4 21.59-29.42 9.08-7.11 18.98-12.05 29.68-14.84 10.8-2.88 21.42-4.32 31.85-4.32 6.66 0 14.31.81 22.94 2.43 8.73 1.53 17.14 4.72 25.24 9.58 8.18 4.86 14.97 12.19 20.37 21.99 5.4 9.81 8.1 22.94 8.1 39.41v136.56h-31.85v-28.07h-1.62c-2.16 4.5-5.75 9.31-10.79 14.44s-11.74 9.49-20.11 13.09-18.58 5.4-30.63 5.4zm4.86-28.61c12.59 0 23.21-2.47 31.84-7.42 8.73-4.95 15.3-11.34 19.71-19.16 4.49-7.83 6.74-16.06 6.74-24.7v-29.15c-1.35 1.62-4.32 3.11-8.9 4.46-4.5 1.26-9.72 2.38-15.66 3.37-5.85.9-11.56 1.71-17.14 2.43-5.48.63-9.94 1.17-13.35 1.62-8.28 1.08-16.02 2.83-23.21 5.26-7.11 2.34-12.87 5.89-17.28 10.66-4.32 4.68-6.47 11.07-6.47 19.16 0 11.07 4.09 19.44 12.27 25.1 8.28 5.58 18.76 8.37 31.45 8.37zm148.27 23.75v-207.27h30.76v31.3h2.16c3.78-10.25 10.62-18.57 20.51-24.96 9.9-6.39 21.05-9.58 33.47-9.58 2.34 0 5.26.04 8.77.13s6.16.23 7.96.41v32.38c-1.08-.27-3.55-.67-7.42-1.21-3.78-.63-7.78-.94-12.01-.94-10.08 0-19.07 2.11-26.99 6.34-7.83 4.14-14.03 9.89-18.62 17.27-4.5 7.29-6.75 15.61-6.75 24.97v131.16zm213.34 4.32c-17.27 0-32.52-4.36-45.75-13.09-13.22-8.82-23.57-21.23-31.03-37.25-7.47-16.1-11.2-35.13-11.2-57.08 0-21.77 3.73-40.66 11.2-56.67 7.46-16.02 17.86-28.39 31.17-37.11 13.31-8.73 28.7-13.09 46.15-13.09 13.49 0 24.16 2.25 31.98 6.75 7.92 4.4 13.95 9.44 18.08 15.11 4.23 5.58 7.52 10.16 9.86 13.76h2.69v-102.01h31.85v276.36h-30.77v-31.85h-3.77c-2.34 3.78-5.67 8.55-9.99 14.31-4.32 5.66-10.48 10.75-18.49 15.25-8 4.4-18.66 6.61-31.98 6.61zm4.32-28.61c12.77 0 23.57-3.33 32.39-9.99 8.81-6.74 15.51-16.05 20.1-27.93 4.59-11.96 6.88-25.77 6.88-41.43 0-15.47-2.25-29.01-6.74-40.61-4.5-11.7-11.16-20.79-19.97-27.26-8.82-6.57-19.71-9.85-32.66-9.85-13.5 0-24.74 3.46-33.74 10.39-8.9 6.83-15.61 16.15-20.1 27.93-4.41 11.7-6.62 24.83-6.62 39.4 0 14.76 2.25 28.16 6.75 40.22 4.59 11.96 11.34 21.5 20.24 28.6 9 7.02 20.15 10.53 33.47 10.53zm259.76 24.29v-24.29l91.23-99.86c10.7-11.69 19.52-21.86 26.44-30.49 6.93-8.73 12.06-16.92 15.39-24.56 3.42-7.74 5.13-15.84 5.13-24.29 0-9.72-2.34-18.13-7.02-25.24-4.59-7.11-10.89-12.59-18.89-16.46-8.01-3.87-17.01-5.8-26.99-5.8-10.62 0-19.88 2.2-27.8 6.61-7.83 4.32-13.9 10.39-18.22 18.22-4.23 7.82-6.34 17-6.34 27.52h-31.85c0-16.19 3.74-30.4 11.2-42.64 7.47-12.23 17.64-21.77 30.5-28.61 12.96-6.83 27.48-10.25 43.59-10.25 16.19 0 30.54 3.42 43.05 10.25 12.5 6.84 22.31 16.06 29.41 27.67 7.11 11.6 10.66 24.51 10.66 38.73 0 10.16-1.84 20.1-5.53 29.82-3.6 9.62-9.9 20.37-18.89 32.25-8.91 11.78-21.28 26.18-37.11 43.18l-62.07 66.39v2.16h128.46v29.69z" fill="#000"/><path d="m8749.47 1775v-276.36h96.62c19.25 0 35.13 3.32 47.63 9.98 12.5 6.57 21.82 15.43 27.93 26.59 6.12 11.06 9.18 23.34 9.18 36.84 0 11.87-2.11 21.68-6.34 29.41-4.14 7.74-9.63 13.86-16.47 18.36-6.74 4.49-14.07 7.82-21.99 9.98v2.7c8.45.54 16.96 3.51 25.5 8.91 8.55 5.39 15.7 13.13 21.46 23.21 5.76 10.07 8.63 22.4 8.63 36.97 0 13.86-3.14 26.31-9.44 37.38s-16.24 19.84-29.82 26.31c-13.59 6.48-31.27 9.72-53.04 9.72zm33.46-29.69h66.39c21.86 0 37.38-4.23 46.56-12.68 9.27-8.55 13.9-18.89 13.9-31.04 0-9.36-2.39-17.99-7.15-25.91-4.77-8-11.56-14.39-20.38-19.16-8.82-4.86-19.25-7.29-31.31-7.29h-68.01zm0-125.22h62.08c10.07 0 19.16-1.98 27.25-5.94 8.19-3.96 14.67-9.54 19.44-16.74 4.85-7.19 7.28-15.65 7.28-25.36 0-12.15-4.23-22.45-12.68-30.91-8.46-8.54-21.86-12.82-40.21-12.82h-63.16zm293.57 159.23c-18.71 0-35.13-4.45-49.25-13.36-14.04-8.91-25.01-21.37-32.93-37.38-7.83-16.01-11.74-34.73-11.74-56.14 0-21.59 3.91-40.43 11.74-56.54 7.92-16.1 18.89-28.61 32.93-37.51 14.12-8.91 30.54-13.36 49.25-13.36s35.09 4.45 49.12 13.36c14.12 8.9 25.1 21.41 32.93 37.51 7.91 16.11 11.87 34.95 11.87 56.54 0 21.41-3.96 40.13-11.87 56.14-7.83 16.01-18.81 28.47-32.93 37.38-14.03 8.91-30.41 13.36-49.12 13.36zm0-28.61c14.21 0 25.91-3.64 35.09-10.93 9.17-7.29 15.96-16.87 20.37-28.74 4.41-11.88 6.61-24.74 6.61-38.6 0-13.85-2.2-26.76-6.61-38.73-4.41-11.96-11.2-21.63-20.37-29.01-9.18-7.38-20.88-11.06-35.09-11.06s-25.91 3.68-35.08 11.06c-9.18 7.38-15.97 17.05-20.38 29.01-4.41 11.97-6.61 24.88-6.61 38.73 0 13.86 2.2 26.72 6.61 38.6 4.41 11.87 11.2 21.45 20.38 28.74 9.17 7.29 20.87 10.93 35.08 10.93zm203.53 29.15c-13.14 0-25.06-2.48-35.76-7.42-10.71-5.04-19.21-12.28-25.51-21.73-6.29-9.54-9.44-21.05-9.44-34.55 0-11.87 2.34-21.5 7.02-28.87 4.67-7.47 10.93-13.32 18.75-17.55 7.83-4.22 16.47-7.37 25.91-9.44 9.54-2.16 19.12-3.87 28.74-5.13 12.6-1.62 22.81-2.83 30.64-3.64 7.91-.9 13.67-2.39 17.27-4.46 3.69-2.07 5.53-5.66 5.53-10.79v-1.08c0-13.32-3.64-23.66-10.93-31.04-7.2-7.37-18.13-11.06-32.79-11.06-15.2 0-27.12 3.33-35.76 9.98-8.64 6.66-14.71 13.77-18.22 21.32l-30.22-10.79c5.39-12.6 12.59-22.4 21.59-29.42 9.08-7.11 18.98-12.05 29.68-14.84 10.8-2.88 21.42-4.32 31.85-4.32 6.66 0 14.31.81 22.94 2.43 8.73 1.53 17.14 4.72 25.24 9.58 8.18 4.86 14.97 12.19 20.37 21.99 5.4 9.81 8.1 22.94 8.1 39.41v136.56h-31.85v-28.07h-1.62c-2.16 4.5-5.75 9.31-10.79 14.44s-11.74 9.49-20.11 13.09-18.58 5.4-30.63 5.4zm4.86-28.61c12.59 0 23.21-2.47 31.84-7.42 8.73-4.95 15.3-11.34 19.71-19.16 4.49-7.83 6.74-16.06 6.74-24.7v-29.15c-1.35 1.62-4.32 3.11-8.9 4.46-4.5 1.26-9.72 2.38-15.66 3.37-5.85.9-11.56 1.71-17.14 2.43-5.48.63-9.94 1.17-13.35 1.62-8.28 1.08-16.02 2.83-23.21 5.26-7.11 2.34-12.87 5.89-17.28 10.66-4.32 4.68-6.47 11.07-6.47 19.16 0 11.07 4.09 19.44 12.27 25.1 8.28 5.58 18.76 8.37 31.45 8.37zm148.27 23.75v-207.27h30.76v31.3h2.16c3.78-10.25 10.62-18.57 20.51-24.96 9.9-6.39 21.05-9.58 33.47-9.58 2.34 0 5.26.04 8.77.13s6.16.23 7.96.41v32.38c-1.08-.27-3.55-.67-7.42-1.21-3.78-.63-7.78-.94-12.01-.94-10.08 0-19.07 2.11-26.99 6.34-7.83 4.14-14.03 9.89-18.62 17.27-4.5 7.29-6.75 15.61-6.75 24.97v131.16zm213.34 4.32c-17.27 0-32.52-4.36-45.75-13.09-13.22-8.82-23.57-21.23-31.03-37.25-7.47-16.1-11.2-35.13-11.2-57.08 0-21.77 3.73-40.66 11.2-56.67 7.46-16.02 17.86-28.39 31.17-37.11 13.31-8.73 28.7-13.09 46.15-13.09 13.49 0 24.16 2.25 31.98 6.75 7.92 4.4 13.95 9.44 18.08 15.11 4.23 5.58 7.52 10.16 9.86 13.76h2.69v-102.01h31.85v276.36h-30.77v-31.85h-3.77c-2.34 3.78-5.67 8.55-9.99 14.31-4.32 5.66-10.48 10.75-18.49 15.25-8 4.4-18.66 6.61-31.98 6.61zm4.32-28.61c12.77 0 23.57-3.33 32.39-9.99 8.81-6.74 15.51-16.05 20.1-27.93 4.59-11.96 6.88-25.77 6.88-41.43 0-15.47-2.25-29.01-6.74-40.61-4.5-11.7-11.16-20.79-19.97-27.26-8.82-6.57-19.71-9.85-32.66-9.85-13.5 0-24.74 3.46-33.74 10.39-8.9 6.83-15.61 16.15-20.1 27.93-4.41 11.7-6.62 24.83-6.62 39.4 0 14.76 2.25 28.16 6.75 40.22 4.59 11.96 11.34 21.5 20.24 28.6 9 7.02 20.15 10.53 33.47 10.53zm353.18 28.07c-17.85 0-33.73-3.06-47.67-9.18-13.85-6.12-24.87-14.62-33.06-25.5-8.1-10.98-12.51-23.71-13.23-38.19h34.01c.72 8.91 3.78 16.6 9.18 23.07 5.39 6.39 12.46 11.34 21.18 14.85 8.73 3.51 18.4 5.26 28.99 5.26 11.9 0 22.4-2.07 31.6-6.21 9.2-4.13 16.4-9.89 21.6-17.27s7.8-15.92 7.8-25.64c0-10.16-2.5-19.12-7.5-26.85-5.1-7.83-12.5-13.95-22.2-18.35-9.7-4.41-21.6-6.62-35.59-6.62h-22.13v-29.68h22.13c10.99 0 20.59-1.98 28.89-5.94 8.4-3.96 14.9-9.54 19.6-16.73 4.7-7.2 7.1-15.66 7.1-25.37 0-9.36-2.1-17.5-6.2-24.43s-10-12.32-17.5-16.19-16.3-5.8-26.5-5.8c-9.53 0-18.53 1.75-26.98 5.26-8.37 3.42-15.21 8.41-20.52 14.98-5.3 6.47-8.18 14.3-8.63 23.48h-32.39c.54-14.49 4.91-27.17 13.09-38.06 8.19-10.97 18.89-19.52 32.12-25.64 13.31-6.11 27.93-9.17 43.81-9.17 17.1 0 31.8 3.46 44 10.39 12.3 6.84 21.7 15.88 28.2 27.12 6.6 11.25 9.9 23.39 9.9 36.44 0 15.56-4.1 28.83-12.3 39.81-8.1 10.97-19.1 18.57-33.1 22.8v2.16c17.5 2.88 31.1 10.3 40.9 22.27 9.8 11.87 14.7 26.58 14.7 44.12 0 15.03-4 28.52-12.2 40.48-8.1 11.88-19.2 21.24-33.2 28.07-14.1 6.84-30 10.26-47.9 10.26z" fill="#000"/></svg>